<svg width="411" height="461" viewBox="0 0 411 461" fill="none" xmlns="http://www.w3.org/2000/svg">
<path d="M291.504 290.163C291.516 290.19 291.527 290.218 291.539 290.246C291.527 290.218 291.516 290.191 291.504 290.163Z" fill="#FE6240"/>
<path d="M292.547 292.569C292.548 292.572 292.548 292.573 292.549 292.575C292.549 292.575 292.547 292.572 292.547 292.569Z" fill="#FE6240"/>
<path d="M292.978 293.531C292.989 293.556 293 293.579 293.011 293.603C293 293.579 292.989 293.555 292.978 293.531Z" fill="#FE6240"/>
<path d="M292.295 291.997C292.306 292.023 292.318 292.049 292.329 292.076C292.317 292.049 292.306 292.024 292.295 291.997Z" fill="#FE6240"/>
<path d="M291.77 290.785C291.783 290.816 291.797 290.848 291.81 290.878C291.797 290.846 291.783 290.816 291.77 290.785Z" fill="#FE6240"/>
<path d="M292.76 293.05C292.77 293.071 292.779 293.093 292.788 293.114C292.778 293.093 292.77 293.071 292.76 293.05Z" fill="#FE6240"/>
<path d="M293.533 294.711C293.537 294.719 293.541 294.727 293.545 294.735C293.54 294.727 293.537 294.719 293.533 294.711Z" fill="#FE6240"/>
<path d="M293.184 293.98C293.192 294 293.202 294.018 293.211 294.038C293.202 294.02 293.193 294 293.184 293.98Z" fill="#FE6240"/>
<path d="M294.128 295.556C294.101 295.535 294.078 295.518 294.055 295.502C294.078 295.519 294.101 295.536 294.128 295.556Z" fill="#FE6240"/>
<path d="M294.59 295.908C294.54 295.87 294.493 295.832 294.448 295.798C294.493 295.832 294.54 295.868 294.59 295.908Z" fill="#FE6240"/>
<path d="M291.255 289.574C291.261 289.589 291.267 289.604 291.274 289.619C291.267 289.604 291.261 289.59 291.255 289.574Z" fill="#FE6240"/>
<path d="M290.97 288.902C290.983 288.934 290.997 288.966 291.01 288.999C290.998 288.967 290.983 288.934 290.97 288.902Z" fill="#FE6240"/>
<path d="M290.69 288.236C290.706 288.273 290.722 288.311 290.737 288.348C290.721 288.311 290.705 288.273 290.69 288.236Z" fill="#FE6240"/>
<path d="M290.409 287.566C290.428 287.611 290.446 287.654 290.465 287.698C290.445 287.654 290.428 287.611 290.409 287.566Z" fill="#FE6240"/>
<path d="M294.031 295.483C294.002 295.464 293.979 295.447 293.962 295.436C293.979 295.448 294.002 295.464 294.031 295.483Z" fill="#FE6240"/>
<path d="M308.662 301.367C308.668 301.384 308.674 301.403 308.682 301.421C308.676 301.403 308.668 301.384 308.662 301.367Z" fill="#FE6240"/>
<path d="M308.551 301.058C308.562 301.087 308.574 301.123 308.59 301.167C308.575 301.124 308.562 301.087 308.551 301.058Z" fill="#FE6240"/>
<path d="M308.594 301.176C308.606 301.209 308.618 301.246 308.633 301.285C308.618 301.246 308.605 301.208 308.594 301.176Z" fill="#FE6240"/>
<path d="M311.218 316.357L311.096 316.44L311.218 316.357Z" fill="#FE6240"/>
<path d="M311.219 316.881L311.096 316.439L311.219 316.881Z" fill="#FE6240"/>
<path d="M307.412 330.532L307.793 330.88L307.412 330.532Z" fill="#FE6240"/>
<path d="M181.021 346.777H183.968V348.865H211.727L214.676 351.69H220.08H225.729L229.169 353.164L242.886 349.634L234.634 342.233V321.414H245.32L246.794 318.097V308.332H242.373C242.373 308.332 241.452 307.226 240.714 308.332C239.978 309.438 236.109 309.438 236.109 309.438L235.372 307.841L236.662 305.876L235.742 300.227L234.636 297.648V292.304C234.636 292.304 232.057 289.909 232.609 288.987C233.161 288.065 234.636 286.04 234.636 286.04L232.531 285.119H226.345V283.093H220.265L219.343 285.119V288.067V289.357L215.474 289.541L214.246 288.804L211.421 289.91L208.842 290.279L206.631 288.804C206.631 288.804 202.946 282.356 202.946 281.618C202.946 280.882 202.946 276.091 202.946 276.091H180.284L176.722 278.308V279.223L178.932 281.434C178.932 281.434 179.669 283.031 179.669 283.523C179.669 284.015 183.23 293.594 183.23 293.594L181.88 295.683V298.139L186.547 309.071L185.196 310.053L184.46 317.546L181.881 319.388L178.81 323.442L178.564 325.898L177.09 327.249L176.722 330.074C176.722 330.074 174.879 337.444 174.879 337.812C174.879 338.181 173.528 339.163 173.528 339.163V348.13L177.582 348.866L181.021 346.777Z" fill="#FE6240"/>
<path d="M350.033 244.342V221.495L351.016 220.635L355.622 212.678H350.033L348.867 210.871L343.523 212.678L341.128 215.936L332.285 214.739L325.837 209.396H318.283H310.912L308.518 210.686V212.667L310.728 214.371L310.176 218.424L314.413 221.557L314.598 224.32L315.15 228.189L308.518 234.821V238.322L313.307 240.684C313.307 240.684 313.492 242.006 312.755 242.006C312.018 242.006 308.518 242.006 308.518 242.006V245.323L329.336 257.299C329.336 257.299 328.6 259.694 329.521 260.43C330.215 260.986 336.568 265.628 339.649 267.877L341.557 264.361C341.557 264.361 342.539 262.396 342.539 261.536C342.539 260.676 344.628 259.079 344.628 259.079L345.488 255.272L348.681 253.798C348.681 253.798 348.681 253.184 348.681 252.815C348.681 252.447 348.681 251.465 348.681 251.465C348.681 251.465 351.384 250.359 351.998 250.359C352.612 250.359 353.226 249.13 353.226 249.13L354.577 247.411L354 248.147L350.033 244.342Z" fill="#FE6240"/>
<path d="M360.912 239.38C360.979 239.296 361.046 239.212 361.112 239.129C361.046 239.213 360.979 239.296 360.912 239.38Z" fill="#FE6240"/>
<path d="M358.068 242.972C358.208 242.795 358.349 242.616 358.491 242.436C358.349 242.617 358.207 242.795 358.068 242.972Z" fill="#FE6240"/>
<path d="M354.807 247.117C354.894 247.005 355.007 246.862 355.14 246.692C355.007 246.863 354.896 247.005 354.807 247.117Z" fill="#FE6240"/>
<path d="M354.592 247.392C354.594 247.39 354.598 247.385 354.601 247.381C354.597 247.387 354.596 247.388 354.592 247.392Z" fill="#FE6240"/>
<path d="M357.808 243.302C357.836 243.266 357.864 243.231 357.892 243.195C357.864 243.231 357.836 243.265 357.808 243.302Z" fill="#FE6240"/>
<path d="M357.077 244.229C357.14 244.149 357.204 244.067 357.27 243.984C357.204 244.066 357.14 244.147 357.077 244.229Z" fill="#FE6240"/>
<path d="M374.354 226.53C374.476 225.916 375.705 226.162 378.039 224.688C380.372 223.214 387.006 216.089 387.006 216.089L396.709 202.333L397.446 199.508C397.446 199.508 399.042 195.209 399.41 194.718C399.779 194.226 400.27 192.753 400.27 192.753L408.009 179.243V175.926L409.605 173.469L410.588 172.118L410.096 169.784L409.605 167.941V166.835C409.605 166.835 410.466 163.519 410.588 162.904L408.623 162.168L406.044 162.904C406.044 162.904 404.201 164.747 403.587 164.747C402.973 164.747 400.762 166.344 400.762 166.344C400.762 166.344 394.989 165.975 394.375 165.975C393.76 165.975 392.41 167.94 392.41 167.94L386.76 168.186C386.76 168.186 381.601 170.029 380.986 170.029C380.372 170.029 376.933 169.292 376.933 169.292L372.634 171.627C372.634 171.627 369.563 171.627 368.703 171.258C367.843 170.89 363.913 166.468 363.544 166.099C363.248 165.804 362.559 165.272 362.297 165.073L359.244 171.381L364.772 178.751C364.772 178.751 373.37 182.68 374.107 183.05C374.843 183.418 384.178 187.84 385.407 187.595C386.635 187.349 391.794 187.605 391.794 187.605L373.493 207.493H366.492L362.193 209.09L361.456 211.301H356.421L351.017 220.636L350.034 221.496V244.341L354.001 248.148L354.578 247.412C354.578 247.412 361.21 238.937 364.035 235.498C366.862 232.057 374.23 227.143 374.354 226.53Z" fill="#FE6240"/>
<path d="M352.735 153.691L353.349 157.008L356.298 159.833H358.263L361.994 157.513C361.838 157.045 361.702 156.639 361.702 156.639L359.123 156.516C359.123 156.516 358.509 153.814 358.141 152.955C357.772 152.095 353.965 151.48 353.965 151.48L350.28 146.567C350.28 146.567 348.437 144.356 346.841 143.742C345.244 143.128 344.262 143.006 343.647 142.882C343.033 142.76 342.787 141.285 342.787 141.285L341.067 141.408L339.348 137.232L336.646 132.073L334.557 128.019L333.362 123.238L330.504 126.301L327.925 127.161L325.714 129.74H323.871L322.397 133.179L323.503 136.25L319.572 141.039L321.292 147.304L322.029 147.794C322.029 147.794 325.346 147.058 326.082 147.058C326.819 147.058 325.96 147.549 326.082 147.918C326.205 148.286 328.047 148.9 328.047 148.9L329.153 147.918L329.89 144.547H330.872L332.07 147.059L335.662 146.567C335.662 146.567 336.398 144.97 336.768 144.602C337.136 144.234 337.75 145.831 337.75 145.831H340.575L348.191 148.901L350.034 152.709L352.735 153.691Z" fill="#FE6240"/>
<path d="M385.408 187.593C384.18 187.838 374.845 183.417 374.108 183.047C373.372 182.679 364.774 178.748 364.774 178.748L359.246 171.378L360.613 168.553L355.141 169.045L353.657 166.466L354.593 162.167L356.299 159.832L353.35 157.007L352.736 153.691L350.033 152.708L348.191 148.901L340.575 145.83H337.75C337.75 145.83 337.136 144.233 336.767 144.602C336.399 144.97 335.661 146.566 335.661 146.566L332.069 147.058L330.872 144.546H329.889L329.153 147.917L328.047 148.899C328.047 148.899 326.204 148.285 326.082 147.917C325.959 147.549 326.818 147.057 326.082 147.057C325.345 147.057 322.028 147.793 322.028 147.793L321.292 147.303V152.462L318.651 153.936L319.572 156.331L316.071 159.832L312.57 160.938V171.992L310.911 169.966L308.517 170.15L307.226 177.52L308.517 180.652V184.153H302.068V187.654L307.044 188.575L314.414 199.076L315.15 203.498H318.467L320.172 209.394H325.836L332.284 214.737L341.127 215.935L343.522 212.676L348.866 210.869L350.032 212.676H355.621L351.944 219.029L356.42 211.299H361.456L362.192 209.089L366.491 207.492H373.492L391.794 187.604C391.796 187.602 386.637 187.348 385.408 187.593Z" fill="#FE6240"/>
<path d="M355.141 169.043L360.613 168.551L362.298 165.068C362.233 165.018 362.193 164.989 362.193 164.989L360.965 165.479L359.859 164.005L362.806 161.18C362.806 161.18 362.56 159.215 362.438 158.846C362.373 158.65 362.17 158.04 361.992 157.51L358.261 159.829H356.296L354.591 162.164L353.654 166.463L355.141 169.043Z" fill="#FE6240"/>
<path d="M298.691 169.045L302.068 167.939L303.112 169.045L303.604 170.887C303.604 170.887 302.867 172.362 304.096 174.081C305.324 175.8 305.324 178.256 305.324 178.256L307.681 178.618L307.228 177.518L308.519 170.148L310.914 169.964L312.572 171.991V160.937L316.073 159.831L319.574 156.33L318.653 153.935L321.294 152.461V147.302L319.574 141.037L323.505 136.248L322.399 133.177L323.873 129.738H325.715L327.926 127.159L330.505 126.298L333.364 123.236L334.559 128.017L333.33 123.104C333.33 123.104 331.12 122.612 330.383 122.244C329.646 121.876 328.172 119.419 328.172 119.419L326.576 119.297L323.136 105.785L323.751 103.574L322.154 100.257L321.662 97.1863L318.101 94.3614L316.012 94.239L314.047 91.4141L311.959 93.7472H310.239V95.712L308.519 97.1863H305.816V99.643L303.605 101.117H302.07L300.658 99.1524H251.772V111.927H247.105V114.383H245.876V138.212H240.227V142.388C240.227 142.388 235.559 143.506 235.559 144.543C235.559 145.581 235.559 148.038 235.559 148.038V150.003V153.933L233.839 155.407L237.278 158.6V163.275L240.225 167.444L241.208 169.041V171.374L244.156 173.831C244.156 173.831 245.876 176.042 245.139 177.516C244.401 178.99 242.436 181.877 243.174 182.398C243.91 182.921 245.385 183.904 245.385 183.904H247.349L248.578 185.132C248.578 185.132 246.858 186.36 248.578 186.36C250.298 186.36 253.245 189.861 253.245 189.861L259.387 178.746L265.037 179.236L266.511 183.658L268.968 183.904L270.442 182.398H272.407L275.354 185.377L280.268 185.623L281.004 182.398L284.689 181.783L285.918 179.727L289.603 181.783C289.603 181.783 290.585 182.368 291.814 182.398C293.042 182.429 294.516 182.398 294.516 182.398L296.235 180.465L299.184 176.779V174.815V171.621L297.463 170.639L298.691 169.045Z" fill="#FE6240"/>
<path d="M315.149 203.498L314.413 199.077L307.043 188.575L302.068 187.655V184.154H308.516V180.653L307.226 177.52L307.678 178.62L305.321 178.258C305.321 178.258 305.321 175.801 304.093 174.082C302.865 172.362 303.601 170.889 303.601 170.889L303.109 169.046L302.065 167.94L298.688 169.046L297.459 170.643L299.18 171.625V174.819V176.784L296.231 180.469L294.512 182.403C294.512 182.403 293.038 182.433 291.809 182.403C290.581 182.372 289.599 181.787 289.599 181.787L285.914 179.731L284.685 181.787L281 182.403L280.264 185.627L275.35 185.381L272.403 182.403H270.438L268.964 183.908L266.507 183.662L265.033 179.24L259.383 178.75L253.241 189.865L254.224 191.615L257.171 192.997C257.171 192.997 259.628 193.979 260.364 194.716C261.101 195.452 261.101 195.452 261.101 195.452V197.326C261.101 197.326 262.329 201.164 263.066 201.011C263.802 200.857 266.997 201.016 266.997 201.016V206.538C266.997 206.538 270.927 208.596 271.91 209.394C272.892 210.192 276.823 211.175 276.823 211.175L280.017 209.394L282.227 208.474L284.192 211.176L285.666 213.387C285.666 213.387 285.912 215.536 287.387 215.935C288.861 216.334 288.861 216.334 288.861 216.334L290.581 215.935L293.774 214.86L295.249 215.935H299.18L302.066 214.615L305.075 214.123L308.514 212.665V210.684L310.909 209.394H318.28H320.169L318.464 203.498H315.149Z" fill="#FE6240"/>
<path d="M250.665 51.251C250.665 51.251 250.542 99.1542 251.771 99.1542H300.656L302.069 101.119H303.604L305.814 99.6448V97.1881H308.517L310.237 95.7138V93.7489H311.957L314.046 91.4158L313.309 86.3801L314.538 86.626L315.152 85.7659C315.152 85.7659 312.449 84.6599 311.835 84.4152C311.221 84.1693 303.974 71.1493 303.974 71.1493L303.238 67.4642L300.535 62.3049L300.413 60.2164L299.307 60.0941L294.271 53.0935V51.4969L293.165 50.7604L293.041 48.5496L294.147 47.1989C294.147 47.1989 295.744 50.638 295.866 51.1299C295.99 51.6217 297.463 52.4806 297.831 53.0947C298.2 53.7089 297.954 55.5514 297.954 55.5514C297.954 55.5514 300.042 58.1305 300.41 58.6223C300.779 59.1141 302.867 60.8331 302.867 60.8331L304.832 60.7107L305.938 52.7265L306.674 49.165L302.621 38.724L300.779 39.9524L295.865 40.3206L290.215 39.4605L288.619 37.7416L280.512 37.3733L279.406 38.4793L276.213 42.0408L272.282 41.0584C272.282 41.0584 265.772 39.5841 264.912 39.4618C264.052 39.3394 258.524 36.2686 258.524 36.2686L250.665 37.0026L249.559 38.9675L250.665 41.4242L249.559 45.5998L250.665 51.251Z" fill="#FE6240"/>
<path d="M251.772 99.1543C250.543 99.1543 250.666 51.2511 250.666 51.2511L249.56 45.6011L250.666 41.4243L249.56 38.9676L250.666 37.0027L248.577 34.4237H245.506C245.506 34.4237 241.453 33.1953 241.085 33.1953C240.717 33.1953 238.752 32.2129 238.752 32.2129L237.769 29.8785C237.769 29.8785 234.576 28.6502 234.207 28.6502C233.838 28.6502 228.557 28.2819 228.557 28.2819L220.45 33.073C220.45 33.073 220.45 34.9155 220.45 35.4061C220.45 35.8967 222.293 39.0911 222.293 39.0911C222.293 39.0911 221.801 41.6702 221.68 42.162C221.559 42.6538 218.484 44.987 218.484 44.987L215.905 46.4612C215.905 46.4612 210.377 41.3019 210.009 41.0572C209.641 40.8113 202.271 39.2147 202.271 39.2147C202.271 39.2147 196.867 38.6005 196.129 38.4782C195.392 38.3559 194.041 35.0391 193.796 34.6708C193.55 34.3026 193.428 32.9506 193.428 32.9506L192.322 31.4764L188.514 30.9845C188.514 30.9845 185.689 29.8785 185.197 29.6338C184.706 29.3879 181.144 29.0197 180.284 29.0197C179.424 29.0197 178.196 29.8797 177.705 29.8797C177.213 29.8797 172.546 27.423 172.546 27.423L170.683 26.2256V32.0905L167.51 33.3189L165.053 36.2662H163.579L165.79 40.9337L163.579 43.1444C163.579 43.1444 159.894 42.8985 159.894 44.1269C159.894 45.3552 159.894 49.7768 159.894 49.7768L162.596 54.8138L163.088 61.0766C163.088 61.0766 161.369 62.0615 161.369 64.0252C161.369 65.9888 163.088 69.7369 163.088 69.7369C163.088 69.7369 158.911 69.8605 159.895 71.4867C160.878 73.113 162.598 75.0779 162.842 76.5521C163.088 78.0264 163.088 80.8835 163.088 80.8835C163.088 80.8835 163.901 83.1857 165.214 83.1857C166.526 83.1857 168.984 83.1857 168.984 83.1857H172.915L174.143 88.345L185.197 91.4146L186.426 93.1361L198.463 90.3099L245.875 114.384H247.103V111.927H251.771L251.772 99.1543Z" fill="#FE6240"/>
<path d="M298.691 169.045L302.068 167.939L303.112 169.045L303.604 170.887C303.604 170.887 302.867 172.362 304.096 174.081C305.324 175.8 305.324 178.256 305.324 178.256L307.681 178.618L307.228 177.518L308.519 170.148L310.914 169.964L312.572 171.991V160.937L316.073 159.831L319.574 156.33L318.653 153.935L321.294 152.461V147.302L319.574 141.037L323.505 136.248L322.399 133.177L323.873 129.738H325.715L327.926 127.159L330.505 126.298L333.364 123.236L334.559 128.017L333.33 123.104C333.33 123.104 331.12 122.612 330.383 122.244C329.646 121.876 328.172 119.419 328.172 119.419L326.576 119.297L323.136 105.785L323.751 103.574L322.154 100.257L321.662 97.1863L318.101 94.3614L316.012 94.239L314.047 91.4141L311.959 93.7472H310.239V95.712L308.519 97.1863H305.816V99.643L303.605 101.117H302.07L300.658 99.1524H251.772V111.927H247.105V114.383H245.876V138.212H240.227V142.388C240.227 142.388 235.559 143.506 235.559 144.543C235.559 145.581 235.559 148.038 235.559 148.038V150.003V153.933L233.839 155.407L237.278 158.6V163.275L240.225 167.444L241.208 169.041V171.374L244.156 173.831C244.156 173.831 245.876 176.042 245.139 177.516C244.401 178.99 242.436 181.877 243.174 182.398C243.91 182.921 245.385 183.904 245.385 183.904H247.349L248.578 185.132C248.578 185.132 246.858 186.36 248.578 186.36C250.298 186.36 253.245 189.861 253.245 189.861L259.387 178.746L265.037 179.236L266.511 183.658L268.968 183.904L270.442 182.398H272.407L275.354 185.377L280.268 185.623L281.004 182.398L284.689 181.783L285.918 179.727L289.603 181.783C289.603 181.783 290.585 182.368 291.814 182.398C293.042 182.429 294.516 182.398 294.516 182.398L296.235 180.465L299.184 176.779V174.815V171.621L297.463 170.639L298.691 169.045Z" fill="#FE6240"/>
<path d="M178.179 29.75C178.192 29.744 178.206 29.7392 178.221 29.7332C178.206 29.738 178.193 29.744 178.179 29.75Z" fill="#FE6240"/>
<path d="M163.578 43.1451L165.789 40.9343L163.578 36.2668H165.052L167.509 33.3195L170.683 32.0912V26.2262L172.545 27.4237L169.106 25.2129C169.106 25.2129 167.877 23.248 167.755 22.6339C167.633 22.0197 162.596 22.142 162.596 22.142L161.981 20.0536L167.263 16.3685L168.86 14.0342V10.841L166.035 9.36669L165.421 8.38426L168.614 2.73434L167.877 1.99783L165.175 3.84035L164.561 2.612L163.21 0.032959H161.981L158.174 1.13897L155.698 2.76153C155.643 3.37323 155.595 3.7798 155.595 3.7798L154.121 5.25406L154.981 15.3873L152.831 17.414L148.777 21.2832C148.777 21.2832 149.514 26.0124 150.252 26.2275C150.988 26.4425 153.568 27.179 153.568 27.179C153.568 27.179 150.682 29.5739 152.309 30.1275C153.937 30.6799 158.174 33.4443 158.174 33.4443L160.484 43.4528C161.524 43.0079 163.578 43.1451 163.578 43.1451Z" fill="#FE6240"/>
<path d="M164.95 41.7776L163.579 43.1481L164.95 41.7776Z" fill="#FE6240"/>
<path d="M168.984 83.1907C168.984 83.1907 166.528 83.1907 165.214 83.1907C163.9 83.1907 163.088 80.8885 163.088 80.8885C163.088 80.8885 163.088 78.0314 162.842 76.5571C162.597 75.0829 160.878 73.118 159.895 71.4917C158.913 69.8655 163.088 69.7419 163.088 69.7419C163.088 69.7419 161.369 65.9938 161.369 64.0302C161.369 62.0665 163.088 61.0816 163.088 61.0816L162.597 54.8188L159.894 49.7818C159.894 49.7818 159.894 45.3602 159.894 44.1319C159.894 43.8205 160.131 43.6042 160.485 43.4547L158.175 33.4462C158.175 33.4462 153.938 30.6831 152.31 30.1294C150.683 29.5771 153.569 27.1809 153.569 27.1809C153.569 27.1809 150.99 26.4444 150.252 26.2294C149.516 26.0143 148.778 21.2851 148.778 21.2851L152.832 17.4159L154.982 15.3892L154.122 5.25596L155.596 3.7817C155.596 3.7817 155.644 3.37637 155.698 2.76343L158.175 1.14087L154.614 3.47523L150.683 3.72114L148.962 1.87862C148.962 1.87862 145.769 3.22931 145.155 2.86105C144.541 2.49279 143.067 1.87862 143.067 1.87862L141.592 3.10697L139.381 4.58123C139.381 4.58123 136.065 4.4589 135.45 4.33532C134.836 4.21298 133.608 3.10697 133.608 3.10697C133.608 3.10697 130.661 3.10697 129.677 3.10697C128.695 3.10697 126.36 3.72114 126.36 3.72114H124.641L122.062 5.44133H119.974L117.885 6.17784H115.675H111.253L108.182 8.02037C108.182 8.02037 106.217 10.3547 105.725 10.4771C105.234 10.5994 104.129 9.98524 104.129 9.98524L99.7072 11.2136L97.1282 14.1609L93.1972 14.8974L92.2148 14.6589L94.978 16.494V22.9422V27.1797L99.2154 29.8464L97.7411 33.0755H88.898L87.792 36.2687H82.8168V39.3396L84.8435 40.2615L83.7387 41.1821C83.7387 41.1821 80.7901 40.0761 80.606 41.1821C80.4219 42.2881 78.027 44.3148 78.027 44.3148H75.2638V46.1573L71.2105 47.2633H67.1572L66.2365 49.4741H62.7356C62.7356 49.4741 62.3673 51.3166 61.815 51.3166C61.2626 51.3166 54.2607 55.3699 54.2607 55.3699V64.9508L110.086 103.641C110.086 103.641 109.534 105.852 110.086 106.22C110.639 106.589 112.85 107.695 112.85 107.695C112.85 107.695 111.929 108.985 112.85 108.985C113.77 108.985 115.982 108.432 116.351 108.985C116.719 109.537 113.034 110.643 116.351 110.827C119.667 111.011 122.43 110.827 122.43 110.827V114.389L121.14 116.722L122.43 118.012L138.275 114.389L148.777 105.116L174.141 88.3513L172.913 83.1919L168.984 83.1907Z" fill="#FE6240"/>
<path d="M160.676 43.3829C160.684 43.3805 160.694 43.3769 160.702 43.3745C160.694 43.3769 160.685 43.3793 160.676 43.3829Z" fill="#FE6240"/>
<path d="M161.143 43.2619C161.151 43.2595 161.16 43.2583 161.169 43.2571C161.16 43.2583 161.152 43.2595 161.143 43.2619Z" fill="#FE6240"/>
<path d="M162.162 43.145C162.17 43.145 162.179 43.1438 162.187 43.1438C162.179 43.1438 162.17 43.1438 162.162 43.145Z" fill="#FE6240"/>
<path d="M54.2622 55.3674C54.2622 55.3674 61.2641 51.3141 61.8165 51.3141C62.3689 51.3141 62.7371 49.4715 62.7371 49.4715H66.2381L67.1587 47.2608H71.212L75.2653 46.1548V44.3122H78.0285C78.0285 44.3122 80.4234 42.2856 80.6075 41.1796C80.7916 40.0736 83.7402 41.1796 83.7402 41.1796L84.845 40.2589L82.8183 39.337V36.2662H87.7935L88.8995 33.0729H97.7426L99.2169 29.8439L94.9795 27.1771V22.9397V16.4915L92.2163 14.6563L93.1987 14.8948L88.6536 13.7888L86.8111 14.1571L85.3368 13.7888L81.7753 14.403L78.3362 13.7888L76.7396 9.98145H73.0545L66.2986 22.6332L64.0878 23.9839L59.4203 25.5805L51.9279 30.9845L52.0502 33.1953L49.4712 37.8628L47.8746 42.4079L49.1029 44.1269L49.3489 46.0917L44.8037 52.7241L40.7504 54.3207L37.0654 58.6199L28.2222 61.0766L27.8379 61.828H54.261L54.2622 55.3674Z" fill="#FE6240"/>
<path d="M25.3972 66.6044L23.4323 69.307L19.7473 71.2718L17.6588 74.711L16.7987 78.396L16.6764 80.7304C16.6764 80.7304 13.3596 83.8013 13.1149 84.1695C12.869 84.5378 11.15 86.258 11.15 86.258L7.58857 93.7504L5.37779 95.347L2.18457 101.365L2.59361 102.348H25.7061V92.3985L29.3912 90.31L34.181 88.3452V73.2367H54.2634V64.946V61.8281H27.8403L25.3972 66.6044Z" fill="#FE6240"/>
<path d="M65.6838 79.5021H75.2622L54.2616 64.9473V73.238H34.1792V88.3465L29.3894 90.3113L25.7043 92.3998V102.349H2.5918L4.02529 105.788L5.25364 106.525L7.2185 108.121V112.174L5.74424 113.771V114.877L6.85025 116.72L7.46442 123.23C7.46442 123.23 5.6219 130.354 5.49956 130.844C5.37722 131.336 3.77937 134.529 3.77937 134.898C3.77937 134.99 3.77195 135.261 3.75959 135.613L5.06828 134.958L6.17428 132.563H10.78L14.6492 131.641H16.8599L20.545 135.511H24.9666C24.9666 135.511 30.6783 145.46 31.783 145.46C32.889 145.46 34.5462 144.539 34.5462 143.801C34.5462 143.065 34.5462 138.551 34.5462 138.551H36.3887L37.4947 142.327L43.3906 140.105H70.2895L72.5003 134.221L69.7371 133.115L65.6838 79.5021Z" fill="#FE6240"/>
<path d="M31.785 145.464C30.679 145.464 24.9686 135.515 24.9686 135.515H20.547L16.862 131.646H14.6512L10.782 132.567H6.17629L5.07029 134.962L3.76161 135.617C3.72701 136.671 3.6578 138.463 3.6578 138.463L-0.395508 143.868L4.39432 151.483L3.28831 154.308L2.79647 159.713H3.65656L3.8234 160.082L4.70079 159.468H10.2284L12.0709 156.704L22.3883 157.81C22.3883 157.81 24.0467 159.1 24.9673 159.376C25.888 159.653 31.4156 160.205 31.4156 160.205L35.653 159.376V156.704V153.203L32.8898 151.545L31.785 145.464Z" fill="#FE6240"/>
<path d="M5.72754 129.959C5.86594 129.423 6.05255 128.698 6.25151 127.925C6.05131 128.7 5.86594 129.421 5.72754 129.959Z" fill="#FE6240"/>
<path d="M3.77148 135.276C3.77396 135.2 3.77519 135.134 3.77642 135.078C3.77519 135.135 3.77272 135.2 3.77148 135.276Z" fill="#FE6240"/>
<path d="M5.61914 130.375C5.62155 130.363 5.62515 130.35 5.62876 130.338C5.62635 130.35 5.62275 130.365 5.61914 130.375Z" fill="#FE6240"/>
<path d="M5.67578 130.155C5.69185 130.094 5.70791 130.033 5.72398 129.966C5.70791 130.031 5.69185 130.094 5.67578 130.155Z" fill="#FE6240"/>
<path d="M6.26562 127.874C6.46088 127.117 6.66849 126.316 6.85386 125.596C6.66726 126.317 6.46088 127.117 6.26562 127.874Z" fill="#FE6240"/>
<path d="M5.55664 130.618C5.56145 130.601 5.56506 130.586 5.56987 130.568C5.56506 130.586 5.56145 130.602 5.55664 130.618Z" fill="#FE6240"/>
<path d="M5.52148 130.758C5.52394 130.75 5.52639 130.739 5.52885 130.729C5.52639 130.739 5.52394 130.748 5.52148 130.758Z" fill="#FE6240"/>
<path d="M342.98 260.642C343.01 260.605 343.039 260.568 343.071 260.531C343.039 260.567 343.01 260.605 342.98 260.642Z" fill="#FE6240"/>
<path d="M343.135 260.456C343.172 260.414 343.208 260.373 343.246 260.331C343.208 260.372 343.172 260.413 343.135 260.456Z" fill="#FE6240"/>
<path d="M341.312 300.225C341.312 300.225 340.82 296.908 340.82 296.417C340.82 295.926 338.609 291.136 338.609 291.136C338.609 291.136 338.977 290.522 339.715 289.661C340.452 288.801 338.979 286.591 338.979 286.591L340.453 283.52C340.453 283.52 339.47 281.677 337.628 279.958C335.785 278.238 336.768 276.765 337.136 274.677C337.504 272.588 339.224 268.658 339.224 268.658L341.559 264.359L339.651 267.875C336.569 265.626 330.217 260.984 329.522 260.428C328.602 259.692 329.338 257.297 329.338 257.297L308.519 245.321L297.28 245.468L290.832 244.605L286.711 245.037V246.211L289.175 248.145L288.991 253.429L286.712 254.165V256.376H288.622L288.807 258.955L282.727 267.875L284.201 272.404V277.563L282.727 278.853L286.712 281.433H287.886C287.886 281.433 293.413 295.067 293.966 295.435C294.518 295.803 300.046 300.225 300.046 300.225H305.02L308.521 300.961C308.521 300.961 311.468 309.252 312.206 309.99C312.942 310.726 314.601 312.201 314.601 312.201C314.601 312.201 317.364 312.016 317.917 312.201C318.47 312.385 320.681 313.307 321.602 313.307C322.524 313.307 327.867 313.307 327.867 313.307L330.999 312.016L334.562 311.095L339.659 311.279L345.863 305.875C345.863 305.875 341.932 303.418 341.441 303.172C340.943 302.927 341.312 300.225 341.312 300.225Z" fill="#FE6240"/>
<path d="M342.563 261.371C342.568 261.352 342.577 261.332 342.583 261.312C342.576 261.332 342.568 261.353 342.563 261.371Z" fill="#FE6240"/>
<path d="M315.149 228.187L314.597 224.318L314.413 221.555L310.175 218.422L310.728 214.369L308.517 212.665L305.078 214.123L302.069 214.615L299.182 215.935H295.251L293.777 214.86L290.584 215.935L288.863 216.334C288.863 216.334 288.863 216.334 287.389 215.935L288.618 219.028L287.389 222.476L288.618 224.134L286.707 228.924L281.617 234.083L279.959 243.804L278.853 246.62L282.722 248.145H284.196L286.707 245.038L290.828 244.607L297.277 245.469L308.516 245.322V242.006C308.516 242.006 312.017 242.006 312.753 242.006C313.49 242.006 313.306 240.683 313.306 240.683L308.516 238.322V234.821L315.149 228.187Z" fill="#FE6240"/>
<path d="M341.235 302.77C341.24 302.797 341.246 302.821 341.253 302.847C341.246 302.822 341.24 302.797 341.235 302.77Z" fill="#FE6240"/>
<path d="M341.277 302.938C341.283 302.957 341.291 302.977 341.298 302.995C341.291 302.977 341.285 302.957 341.277 302.938Z" fill="#FE6240"/>
<path d="M341.181 301.945C341.179 302.141 341.185 302.327 341.2 302.496C341.185 302.327 341.18 302.139 341.181 301.945Z" fill="#FE6240"/>
<path d="M345.981 330.81C345.735 330.442 345.859 327.739 345.859 327.003C345.859 326.266 345.49 313.615 345.49 313.615L345.736 309.684L345.859 305.876L339.655 311.28L334.558 311.096L330.995 312.018L327.862 313.308C327.862 313.308 322.519 313.308 321.598 313.308C320.677 313.308 318.465 312.387 317.913 312.202C317.361 312.018 314.596 312.202 314.596 312.202L313.306 314.965L311.095 316.44L312.016 319.756L312.845 321.415V324.732L317.543 329.891V333.023V336.156V338.551C317.543 338.551 317.728 339.841 317.543 340.394C317.359 340.946 312.754 342.789 312.754 342.789V344.999L314.288 347.394L313.306 348.868L311.095 348.132C311.095 348.132 308.148 345.369 308.516 344.815C308.884 344.263 308.484 339.288 308.484 339.288C308.484 339.288 309.621 336.155 309.621 335.603C309.621 335.05 308.515 331.549 308.515 331.549L307.409 330.536L304.276 331.549L301.332 328.23L299.857 328.046L283.828 333.758V336.705L285.118 337.625L283.828 340.02L288.803 341.311L291.751 342.601L294.699 343.707L295.989 343.891L298.752 344.627L299.121 347.575L299.305 354.391L297.094 358.168L297.278 361.576L299.305 363.602L299.121 366.366L295.436 369.313V374.841L289.172 382.026L290.646 384.974L289.356 389.948L291.198 391.054V403.214C291.198 403.214 291.935 403.582 292.119 404.32C292.303 405.056 291.935 410.216 292.671 410.4C292.97 410.475 294.579 410.824 296.382 411.212L296.97 408.189L296.11 403.275L297.585 400.819L301.146 399.345L310.481 395.291L311.832 392.958V391.607L313.306 385.466C313.306 385.466 312.2 383.991 312.2 383.623C312.2 383.255 312.078 380.306 312.078 379.57C312.078 378.833 311.586 374.78 311.464 374.412C311.341 374.043 310.113 371.833 310.113 371.833L309.13 369.254L309.867 366.183V364.832L313.798 360.779C313.798 360.779 318.343 358.568 318.711 358.2C319.08 357.831 321.168 355.621 321.168 355.621L321.905 354.024L323.747 351.936C323.747 351.936 326.08 349.479 326.94 348.496C327.8 347.514 331.854 347.514 331.854 347.514L338.61 344.689L343.645 340.39L345.364 335.232C345.364 335.232 346.593 332.529 346.593 331.915C346.595 331.301 346.226 331.179 345.981 330.81Z" fill="#FE6240"/>
<path d="M304.28 331.548L307.413 330.534L308.519 331.548C308.519 331.548 309.625 335.048 309.625 335.601C309.625 336.153 308.488 339.286 308.488 339.286C308.488 339.286 308.888 344.261 308.52 344.813C308.152 345.366 311.099 348.13 311.099 348.13L313.31 348.867L314.292 347.393L312.757 344.998V342.787C312.757 342.787 317.363 340.944 317.547 340.392C317.731 339.84 317.547 338.549 317.547 338.549V336.154V333.022V329.889L312.849 324.73V321.413L312.02 319.755L311.099 316.438L313.31 314.964L314.6 312.2C314.6 312.2 312.941 310.726 312.205 309.99C311.468 309.253 308.52 300.961 308.52 300.961L305.019 300.225H300.045L302.808 301.945V304.279L304.651 305.876V306.858H301.331L301.516 308.701L303.174 310.175C303.174 310.175 301.884 311.096 302.345 311.833C302.806 312.57 302.345 314.966 302.345 314.966L304.648 316.44L303.728 317.915H300.043L299.858 328.048L301.333 328.232L304.28 331.548Z" fill="#FE6240"/>
<path d="M292.672 410.404C291.935 410.22 292.304 405.06 292.12 404.324C291.935 403.587 291.199 403.218 291.199 403.218V391.058L289.356 389.952L290.647 384.978L289.172 382.031L283.829 380.188L278.301 378.714L276.09 380.372V382.031H272.897L270.44 383.137L267.984 387.068L264.545 388.788H262.58V392.963L258.158 396.649H256.684L254.473 401.378L252.754 405.001H247.595L245.138 403.527L241.207 399.596H239.733L237.768 401.377V405C237.768 405 234.575 407.211 233.837 407.702C233.101 408.194 231.626 411.216 231.626 411.216C231.626 411.216 227.451 411.536 226.713 411.216C225.976 410.896 224.993 410.159 224.993 410.159V407.212V404.755C224.993 404.755 226.467 400.334 224.993 399.597C223.519 398.861 221.678 397.14 221.678 397.14V420.232L217.132 421.46C217.132 421.46 213.939 423.18 213.201 423.18C212.465 423.18 208.78 423.18 208.78 423.18L206.569 421.952C206.569 421.952 205.832 419.249 205.094 418.759C204.358 418.267 203.13 417.776 203.13 417.776L200.626 420.941C201.523 422.036 202.729 423.5 203.498 424.41C204.849 426.007 203.99 426.498 205.218 431.657C206.446 436.816 207.921 436.57 210.131 440.869C212.342 445.168 209.271 446.643 209.271 446.643L208.043 448.117L213.817 459.663L218.852 461.137C218.852 461.137 220.203 460.645 220.572 460.4C220.941 460.155 225.118 457.698 225.118 457.698H230.277L233.348 456.224L239.366 456.838L240.348 455.363L246.858 455.978H248.823H250.543C250.543 455.978 251.28 454.995 251.28 454.627C251.28 454.259 253 454.013 253.613 454.013C254.227 454.013 254.964 454.013 258.281 452.907C261.597 451.801 270.563 445.537 270.563 445.537C270.563 445.537 275.599 440.377 275.845 440.009C276.09 439.641 279.53 437.676 280.02 437.184C280.512 436.692 281.617 434.359 281.863 433.745C282.109 433.131 289.233 423.796 289.233 423.796L292.795 421.707L294.024 419.865C294.024 419.865 294.024 417.04 294.024 416.548C294.024 416.056 296.112 412.617 296.112 412.617L296.384 411.217C294.58 410.826 292.972 410.478 292.672 410.404Z" fill="#FE6240"/>
<path d="M203.498 424.405C203.407 424.296 203.308 424.18 203.205 424.058C203.309 424.179 203.407 424.296 203.498 424.405Z" fill="#FE6240"/>
<path d="M200.629 420.939C200.848 421.206 201.084 421.493 201.327 421.791C201.084 421.494 200.848 421.206 200.629 420.939Z" fill="#FE6240"/>
<path d="M203.13 417.772C203.13 417.772 204.358 418.264 205.095 418.755C205.831 419.247 206.569 421.948 206.569 421.948L208.78 423.176C208.78 423.176 212.465 423.176 213.201 423.176C213.938 423.176 217.132 421.456 217.132 421.456L221.679 420.228V397.136V378.712H227.942V355.621L243.172 353.901L244.647 355.621L250.542 353.164L252.507 352.182H254.964L253.244 349.971L245.874 348.865L229.169 353.164L225.729 351.69H220.08H214.676L211.727 348.865H183.968V346.776H181.021L177.582 348.865L173.528 348.128L174.511 354.146L175.247 356.971L179.177 360.533V363.972L182.738 370.236L189.863 382.52L188.757 391.24L190.231 396.03L191.337 400.698C191.337 400.698 192.811 406.962 192.811 407.33C192.811 407.698 194.9 413.348 194.9 413.348L199.445 419.49C199.445 419.49 199.948 420.107 200.626 420.935L203.13 417.772Z" fill="#FE6240"/>
<path d="M205.219 431.653C205.255 431.804 205.29 431.95 205.327 432.091C205.29 431.949 205.255 431.804 205.219 431.653Z" fill="#FE6240"/>
<path d="M202.884 423.671C202.963 423.765 203.037 423.855 203.111 423.944C203.037 423.855 202.962 423.766 202.884 423.671Z" fill="#FE6240"/>
<path d="M202.535 423.254C202.614 423.349 202.692 423.442 202.769 423.534C202.692 423.443 202.614 423.35 202.535 423.254Z" fill="#FE6240"/>
<path d="M205.48 432.657C205.503 432.735 205.525 432.812 205.547 432.887C205.525 432.813 205.503 432.736 205.48 432.657Z" fill="#FE6240"/>
<path d="M205.709 433.402C205.731 433.47 205.755 433.536 205.777 433.601C205.753 433.536 205.731 433.47 205.709 433.402Z" fill="#FE6240"/>
<path d="M205.363 432.225C205.388 432.317 205.413 432.41 205.436 432.499C205.411 432.41 205.387 432.319 205.363 432.225Z" fill="#FE6240"/>
<path d="M205.988 434.172C206.009 434.224 206.029 434.277 206.05 434.328C206.029 434.277 206.008 434.224 205.988 434.172Z" fill="#FE6240"/>
<path d="M206.238 434.759C206.254 434.793 206.27 434.827 206.286 434.861C206.27 434.826 206.254 434.792 206.238 434.759Z" fill="#FE6240"/>
<path d="M206.359 435.016C206.373 435.044 206.388 435.071 206.401 435.099C206.388 435.071 206.374 435.044 206.359 435.016Z" fill="#FE6240"/>
<path d="M206.484 435.261C206.492 435.275 206.5 435.29 206.507 435.304C206.5 435.29 206.493 435.275 206.484 435.261Z" fill="#FE6240"/>
<path d="M273.634 376.257L268.475 374.046V371.589L267.247 367.904H265.282V365.693L260.122 363.482V358.546L256.191 356.358L254.963 352.183H252.506L250.541 353.165L244.646 355.622L243.171 353.902L227.941 355.622V378.713H221.678V397.137C221.678 397.137 223.519 398.857 224.992 399.594C226.466 400.33 224.992 404.752 224.992 404.752V407.209V410.156C224.992 410.156 225.974 410.893 226.712 411.213C227.449 411.533 231.626 411.213 231.626 411.213C231.626 411.213 233.1 408.19 233.836 407.699C234.573 407.209 237.767 404.997 237.767 404.997V401.373L239.732 399.593H241.207L245.138 403.524L247.594 404.998H252.754L254.472 401.375L256.683 396.645H258.158L262.579 392.96V388.785H264.544L267.983 387.065L270.44 383.134L272.896 382.028H276.09V380.369L278.3 378.711L273.634 376.257Z" fill="#FE6240"/>
<path d="M297.094 358.171L299.304 354.395L299.12 347.578L298.752 344.631L295.989 343.894L294.699 343.71L291.75 342.604L288.803 341.314L283.828 340.024L285.118 337.629L278.301 338.568L275.146 339.766V342.558L270.956 343.756L265.369 348.868C265.369 348.868 264.571 351.338 263.573 351.338C262.576 351.338 254.964 352.185 254.964 352.185L256.192 356.361L260.123 358.548V363.485L265.283 365.696V367.906H267.247L268.476 371.591V374.048L273.635 376.259L278.303 378.716L283.83 380.19L289.174 382.032L295.438 374.846V369.319L299.123 366.372L299.307 363.608L297.28 361.582L297.094 358.171Z" fill="#FE6240"/>
<path d="M3.24448 154.773L2.7959 159.709L3.24448 154.773Z" fill="#FE6240"/>
<path d="M12.0707 156.7L10.2282 159.464H4.70063L3.82324 160.079L4.27059 161.061L7.70973 163.149L8.81573 162.167H10.6583L11.2724 165.851L12.1313 168.307L12.7096 169.013L13.7291 165.728L17.628 163.886H19.0714V162.596V160.201H20.5456V157.608L12.0707 156.7Z" fill="#FE6240"/>
<path d="M56.1041 180.098L54.2616 178.992V176.781V174.939V173.28L52.7873 172.544V170.517V169.012H51.1289H49.6546L52.7873 165.543V164.437C52.7873 164.437 49.84 164.437 48.734 164.437C47.628 164.437 48.734 161.113 48.734 161.113V159.371H46.5232L45.6026 161.113H43.76H39.8909V162.856L38.0483 162.042L35.6534 162.856L33.8109 161.121L35.6534 159.371L31.416 160.2C31.416 160.2 25.8884 159.647 24.9678 159.371C24.0471 159.094 22.3887 157.805 22.3887 157.805L20.1124 157.562L20.5462 157.608V160.201H19.0719V162.596V163.886H17.6286L13.7285 165.729L12.709 169.013L15.4474 172.361C15.4474 172.361 17.7818 174.449 18.2724 174.818C18.7642 175.186 21.7115 177.765 21.7115 177.765C21.7115 177.765 22.3591 179.202 22.883 180.153L25.8884 175.722L28.2228 174.386H31.7842C31.7842 174.386 35.101 174.939 35.6534 175.722C36.2058 176.506 38.0483 175.722 38.0483 175.722C38.0483 175.722 38.4166 180.282 38.927 181.019C39.4373 181.755 39.1531 183.782 38.927 184.52C38.7008 185.256 40.6274 184.52 40.6274 184.52C40.6274 184.52 43.0223 184.52 43.76 184.52C44.4966 184.52 44.9575 185.994 44.9575 185.994V189.863V192.074H47.8134H49.4718L50.5778 189.863H52.6044L54.2628 187.284L52.2362 184.705L54.2628 183.784L56.1053 184.705V183.231L54.2628 181.204L56.1041 180.098Z" fill="#FE6240"/>
<path d="M122.431 118.008L121.141 116.718L122.431 114.385V110.824C122.431 110.824 119.668 111.008 116.352 110.824C113.035 110.64 116.72 109.534 116.352 108.981C115.983 108.429 113.772 108.981 112.851 108.981C111.93 108.981 112.851 107.691 112.851 107.691C112.851 107.691 110.64 106.585 110.087 106.217C109.535 105.848 110.087 103.638 110.087 103.638L75.2624 79.502H65.6839L69.7373 133.117L72.5004 134.223L70.2896 140.108H43.3907L37.4949 142.329L36.3889 138.553H34.5464C34.5464 138.553 34.5464 143.067 34.5464 143.804C34.5464 144.54 32.888 145.462 31.7832 145.462L32.8892 151.542L35.6524 153.2V156.701V159.373L33.8099 161.123L35.6524 162.858L38.0473 162.045L39.8898 162.858V161.116H43.759H45.6015L46.5222 159.373H48.733V161.116C48.733 161.116 47.6269 164.44 48.733 164.44C49.839 164.44 52.7863 164.44 52.7863 164.44V165.546L49.6536 169.015H51.1279H52.7863V170.52V172.546L54.2605 173.283L56.1031 171.44L60.1564 172.915L62.3671 171.993V170.887C62.3671 170.887 63.2878 170.519 63.5263 170.519C63.7648 170.519 65.4998 170.703 65.4998 170.703V172.913H66.4205C66.4205 172.913 68.8154 171.255 68.9995 170.703C69.1836 170.15 68.9995 167.939 68.9995 167.939L70.2896 166.281L68.9995 164.07L70.4738 162.044C70.4738 162.044 72.6846 162.044 73.4211 162.044C74.1576 162.044 76.0001 160.201 76.0001 160.201L75.2599 157.562L76.7366 155.146V153.568L78.2109 151.909C78.2109 151.909 79.501 153.936 79.8693 154.774C80.2375 155.61 81.8959 154.774 81.8959 154.774L83.9226 151.541V149.882L85.3969 147.569H87.2394L88.3454 147.488C88.3454 147.488 90.0038 147.672 91.1086 147.488C92.2146 147.303 91.1086 145.922 91.1086 145.922V143.988H96.6361L97.9263 141.593C97.9263 141.593 102.901 142.514 103.638 142.699C104.375 142.883 107.691 142.699 108.612 142.699C109.533 142.699 110.454 140.641 110.454 140.641H117.825C117.825 140.641 120.219 139.936 120.772 140.108C121.324 140.281 121.693 139.935 122.246 140.108C122.799 140.281 124.089 140.108 124.089 140.108L125.931 136.618L127.958 131.643V122.062L128.839 116.543L122.431 118.008Z" fill="#FE6240"/>
<path d="M31.4147 160.2C31.4147 160.2 31.4013 160.199 31.3818 160.196C31.4025 160.199 31.4147 160.2 31.4147 160.2Z" fill="#FE6240"/>
<path d="M21.9453 178.273C22.1554 178.724 22.4755 179.393 22.7757 179.955C22.4767 179.394 22.1554 178.723 21.9453 178.273Z" fill="#FE6240"/>
<path d="M19.9644 176.247C19.9088 176.199 19.8544 176.152 19.7988 176.104C19.8544 176.15 19.9101 176.199 19.9644 176.247Z" fill="#FE6240"/>
<path d="M21.7109 177.768C21.7109 177.768 21.7208 177.791 21.7355 177.823C21.7208 177.788 21.7109 177.768 21.7109 177.768Z" fill="#FE6240"/>
<path d="M38.9277 184.521C39.1539 183.784 39.4381 181.758 38.9277 181.02C38.4173 180.284 38.0491 175.724 38.0491 175.724C38.0491 175.724 36.2066 176.507 35.6542 175.724C35.1018 174.94 31.785 174.388 31.785 174.388H28.2235L25.8892 175.724L22.8838 180.154C23.0444 180.445 23.194 180.693 23.3089 180.837C23.8007 181.451 23.3089 184.768 23.3089 185.259C23.3089 185.749 25.7656 187.715 25.7656 187.715L28.9588 192.137L31.1696 193.119L33.5151 194.684L34.4061 193.181L37.8637 189.904L38.9265 188.944L39.8904 186.917H41.7329V184.522C41.1237 184.522 40.6269 184.522 40.6269 184.522C40.6269 184.522 38.7016 185.259 38.9277 184.521Z" fill="#FE6240"/>
<path d="M22.8834 180.153C22.8538 180.099 22.8229 180.042 22.792 179.985C22.8229 180.042 22.8526 180.098 22.8834 180.153Z" fill="#FE6240"/>
<path d="M21.7871 177.928C21.8267 178.013 21.8786 178.127 21.9428 178.263C21.8786 178.128 21.8254 178.014 21.7871 177.928Z" fill="#FE6240"/>
<path d="M21.7441 177.834C21.7515 177.851 21.7601 177.868 21.7699 177.892C21.7601 177.87 21.7515 177.851 21.7441 177.834Z" fill="#FE6240"/>
<path d="M195.392 103.456L193.733 101.982L192.509 91.7112L186.425 93.1397L185.197 91.4183L174.143 88.3486L148.779 105.113L138.277 114.386L128.841 116.544L127.96 122.063V131.644L125.933 136.619L124.091 140.109C124.091 140.109 122.8 140.282 122.248 140.109C121.696 139.936 121.326 140.282 120.774 140.109C120.221 139.936 117.826 140.642 117.826 140.642H110.456C110.456 140.642 109.534 142.7 108.614 142.7C107.916 142.7 105.845 142.805 104.561 142.777V146.937L105.667 148.412C105.667 148.412 104.561 149.702 105.667 150.254C106.771 150.807 108.799 151.913 108.799 151.913V153.387V154.777L110.273 157.245H114.204L116.539 158.546C116.539 158.546 113.346 158.915 114.204 160.205C115.065 161.495 117.828 162.86 117.828 162.86L119.486 160.205L122.987 163.706V165.18H125.382L123.908 157.566L126.671 156.705V151.915L134.962 150.441L139.015 151.177H141.41L144.727 154.778H146.385L150.254 152.912H152.097L155.966 156.705H159.746L165.361 152.912H171.81L174.942 154.778H178.811L181.022 152.912L183.868 152.516C183.4 151.35 183.049 150.441 183.049 150.441V146.203H185.444V141.541L188.761 136.624L195.058 131.096L196.131 113.101L197.605 108.068L195.394 106.04V103.456H195.392Z" fill="#FE6240"/>
<path d="M198.463 90.3135L213.671 98.0358L198.463 90.3135Z" fill="#FE6240"/>
<path d="M193.55 209.394C193.55 209.394 190.418 208.473 190.418 207.735C190.418 206.998 190.97 203.314 190.97 202.761C190.97 202.209 188.943 200.182 189.496 199.445C190.048 198.708 195.76 189.864 195.76 189.864L193.365 183.047L190.325 180.468L186.733 176.599L187.653 174.941H194.47L192.075 161.122L190.785 160.646V165.176L188.022 166.834L185.811 167.94L183.048 177.767C183.048 177.767 180.653 179.471 180.653 180.154C180.653 180.838 181.759 183.048 180.653 183.417C179.547 183.785 178.81 184.366 178.626 184.536C178.442 184.707 178.626 186.18 178.626 186.18L178.544 187.101L174.942 189.864V192.074L174.144 193.733L170.705 197.97H169.784L167.757 196.128L166.651 194.682H163.888L158.177 197.97C158.177 197.97 155.229 200.733 155.598 202.024C155.966 203.314 156.704 204.05 156.334 204.787C156.14 205.174 155.033 207.326 154.024 209.284L155.966 209.823L156.948 211.911L157.685 212.771H159.65V213.999L162.966 218.545L161.247 223.09L161.839 224.695C161.839 224.695 189.226 224.239 189.682 224.695C190.138 225.151 193.552 226.161 193.552 226.161H195.946L198.894 227.451V220.45L194.656 214.002L193.55 209.394Z" fill="#FE6240"/>
<path d="M39.0215 184.153C39.0264 184.132 39.0301 184.11 39.035 184.089C39.0301 184.111 39.0264 184.133 39.0215 184.153Z" fill="#FE6240"/>
<path d="M39.1123 183.647C39.1147 183.634 39.1159 183.621 39.1183 183.607C39.1171 183.621 39.1147 183.634 39.1123 183.647Z" fill="#FE6240"/>
<path d="M56.1042 201.105C56.1042 201.105 55.3677 200.491 54.5076 199.755C53.6475 199.018 53.8934 198.649 53.8934 198.649H52.1732C52.1732 198.649 50.9449 198.157 50.5766 197.666C50.2084 197.174 51.3749 195.456 51.3749 195.456L52.1732 194.05V191.401L50.5766 189.866L49.4706 192.077H47.8122H44.9564V189.866V185.997C44.9564 185.997 44.4954 184.523 43.7589 184.523C43.3573 184.523 42.4626 184.523 41.7323 184.523V186.918H39.8897L38.9258 188.944L37.8631 189.904L34.4054 193.182L33.5144 194.684L31.1689 193.12L33.748 194.84C33.748 194.84 40.8722 199.753 41.4864 199.999C42.1005 200.245 47.9964 205.895 47.9964 205.895L53.8922 210.44L55.4974 210.922L56.103 207.493L57.209 205.036L57.8232 202.58L56.1042 201.105Z" fill="#FE6240"/>
<path d="M47.1355 205.073C46.8229 204.776 46.4447 204.419 46.0332 204.031C46.4447 204.418 46.8229 204.776 47.1355 205.073Z" fill="#FE6240"/>
<path d="M83.9859 195.33L84.1083 194.048C84.1083 194.048 84.3542 193.242 84.6001 192.075C84.846 190.908 85.9508 188.82 85.9508 188.82L88.0392 186.609V185.259L87.4251 183.648V181.943V179.116C87.4251 179.116 86.6885 178.626 86.319 178.275C85.9508 177.923 86.1967 177.275 85.8272 176.417C85.4589 175.557 85.8272 176.417 84.3529 174.82C82.8787 173.225 82.634 174.82 82.634 174.82C82.634 174.82 80.9151 174.819 80.3108 174.82C79.7065 174.821 79.6855 174.82 79.6855 174.82L76.4923 176.267L73.7896 174.82L72.4389 171.994L68.9998 170.704C68.8157 171.256 66.4208 172.914 66.4208 172.914H65.5001V170.704C65.5001 170.704 63.7651 170.52 63.5266 170.52C63.2881 170.52 62.3675 170.888 62.3675 170.888V171.994L60.1567 172.916L56.1034 171.441L54.2608 173.284V174.942V176.785V178.996L56.1034 180.102L54.2608 181.208L56.1034 183.234V184.709L54.2608 183.788L52.2342 184.709L54.2608 187.288L52.6024 189.867H50.5758L52.1724 191.401V194.051L51.3741 195.456C51.3741 195.456 50.2075 197.175 50.5758 197.667C50.944 198.159 52.1724 198.649 52.1724 198.649H53.8926C53.8926 198.649 53.6467 199.017 54.5068 199.755C55.3669 200.492 56.1034 201.106 56.1034 201.106L57.8235 202.58L57.2094 205.037L56.1034 207.494L55.4978 210.923L56.3493 211.179L68.3869 205.897L81.161 205.405C81.161 205.405 85.4132 206.301 86.5464 206.489L87.1791 203.686L86.0731 202.826L84.9671 201.72V200.124C84.9671 200.124 84.9671 200.124 83.9847 196.316C83.0035 192.505 83.9859 195.33 83.9859 195.33Z" fill="#FE6240"/>
<path d="M108.138 142.705C108.157 142.705 108.177 142.704 108.195 142.704C108.177 142.704 108.159 142.705 108.138 142.705Z" fill="#FE6240"/>
<path d="M106.205 142.764C106.222 142.764 106.238 142.763 106.253 142.763C106.238 142.764 106.222 142.764 106.205 142.764Z" fill="#FE6240"/>
<path d="M65.4997 170.704C65.4997 170.704 65.4915 170.702 65.4775 170.701C65.4857 170.701 65.4997 170.704 65.4997 170.704Z" fill="#FE6240"/>
<path d="M114.202 160.201C113.342 158.911 116.536 158.543 116.536 158.543L114.202 157.242H110.271L108.797 154.774V153.384V151.909C108.797 151.909 106.77 150.803 105.664 150.251C104.558 149.699 105.664 148.409 105.664 148.409L104.558 146.934V142.773C104.148 142.765 103.815 142.741 103.638 142.697C102.901 142.513 97.9258 141.591 97.9258 141.591L96.6357 143.986H91.1081V145.92C91.1081 145.92 92.2141 147.301 91.1081 147.485C90.0021 147.67 88.3449 147.485 88.3449 147.485L87.2389 147.567H85.3964L83.9221 149.88V151.539L81.8955 154.771C81.8955 154.771 80.2371 155.608 79.8688 154.771C79.5006 153.934 78.2104 151.907 78.2104 151.907L76.7361 153.565V155.143L75.2594 157.559L75.9996 160.199C75.9996 160.199 74.1571 162.041 73.4206 162.041C72.6841 162.041 70.4733 162.041 70.4733 162.041L68.999 164.068L70.2892 166.279L68.999 167.937C68.999 167.937 69.1832 170.148 68.999 170.7L72.4382 171.991L73.7889 174.817L76.4915 176.264L79.6847 174.817C79.6847 174.817 79.7057 174.818 80.31 174.817C80.9143 174.816 82.6332 174.817 82.6332 174.817C82.6332 174.817 82.8791 173.221 84.3522 174.817C85.8264 176.413 85.4582 175.553 85.8264 176.413C85.9179 176.627 85.971 176.829 86.0056 177.015V173.712V171.87V169.905L86.5629 169.014H99.2147C99.2147 169.014 100.689 166.343 101.057 166.343C101.425 166.343 101.794 167.08 102.654 167.326C103.514 167.572 107.075 168.062 107.075 168.062L110.023 167.08C110.023 167.08 109.286 165.115 110.515 165.175C111.743 165.237 114.814 165.175 114.814 165.175L117.558 162.72C116.85 162.344 114.9 161.248 114.202 160.201Z" fill="#FE6240"/>
<path d="M65.3604 170.689C65.3984 170.693 65.4278 170.697 65.4511 170.699C65.429 170.696 65.3984 170.693 65.3604 170.689Z" fill="#FE6240"/>
<path d="M104.74 142.777C104.776 142.777 104.81 142.779 104.846 142.779C104.809 142.779 104.775 142.777 104.74 142.777Z" fill="#FE6240"/>
<path d="M85.1816 175.828C85.2037 175.848 85.2221 175.87 85.2417 175.902C85.2221 175.869 85.2037 175.847 85.1816 175.828Z" fill="#FE6240"/>
<path d="M85.3105 176.04C85.339 176.102 85.3723 176.182 85.4181 176.288C85.3723 176.181 85.3377 176.101 85.3105 176.04Z" fill="#FE6240"/>
<path d="M79.3486 174.696C79.3486 174.696 79.3573 174.696 79.5093 174.696C79.3561 174.698 79.3486 174.696 79.3486 174.696Z" fill="#FE6240"/>
<path d="M105.892 196.068C104.214 193.857 105.359 192.875 105.142 192.077C104.924 191.278 105.142 186.733 105.142 186.733V184.353L104.846 182.802L105.142 181.328L104.74 178.274L103.609 177.767L104.561 175.432V172.361L102.657 171.133V167.368C102.403 167.318 102.189 167.271 102.05 167.232C101.2 166.987 100.836 166.253 100.472 166.253C100.107 166.253 98.6515 168.914 98.6515 168.914H86.1468L85.5968 169.802V171.761V173.596V176.887C85.6994 177.446 85.6315 177.877 85.9046 178.14C86.2691 178.491 86.997 178.978 86.997 178.978V181.795V183.494L87.6037 185.1V186.445L85.54 188.647C85.54 188.647 84.4476 190.728 84.2054 191.89C83.9619 193.053 83.7197 193.856 83.7197 193.856L83.5986 195.133C83.5986 195.133 82.6273 192.318 83.5986 196.111C84.5699 199.905 84.5699 199.905 84.5699 199.905V201.496L85.6624 202.597L86.7548 203.453L86.1295 206.246C85.0099 206.059 80.8058 205.167 80.8058 205.167L80.0742 205.196C80.1175 205.277 80.1595 205.355 80.204 205.438L81.1629 205.401C81.1629 205.401 85.8304 206.383 86.6905 206.507C87.5506 206.629 89.7614 208.349 89.7614 208.349C89.7614 208.349 96.6396 205.402 97.4997 205.032C98.3598 204.664 105.606 201.471 105.606 201.471L108.185 201.717L109.045 200.857L110.001 199.734C108.398 198.524 106.68 197.106 105.892 196.068Z" fill="#FE6240"/>
<path d="M73.6689 174.777L76.1924 176.139L73.6689 174.777Z" fill="#FE6240"/>
<path d="M105.604 201.473C105.604 201.473 105.585 201.481 105.556 201.493C105.583 201.481 105.604 201.473 105.604 201.473Z" fill="#FE6240"/>
<path d="M112.605 180.839L111.254 179.958V174.391L108.138 173.285V171.626L108.884 167.463L107.079 168.065C107.079 168.065 103.517 167.573 102.657 167.328C101.797 167.082 101.429 166.346 101.061 166.346C101.014 166.346 100.947 166.391 100.869 166.468C101.146 166.704 101.493 167.074 102.052 167.234C102.19 167.274 102.404 167.321 102.659 167.37V171.136L104.563 172.364V175.435L103.611 177.769L104.743 178.277L105.145 181.331L104.85 182.805L105.145 184.356V186.736C105.145 186.736 104.927 191.281 105.145 192.079C105.362 192.878 104.217 193.86 105.895 196.071C106.683 197.109 108.401 198.526 110.001 199.737L109.046 200.861L111.135 198.404L113.762 197.966L112.609 195.211V180.839H112.605Z" fill="#FE6240"/>
<path d="M115.786 161.647C115.85 161.692 115.913 161.735 115.978 161.777C115.913 161.735 115.849 161.692 115.786 161.647Z" fill="#FE6240"/>
<path d="M115.485 161.431C115.553 161.48 115.62 161.53 115.689 161.578C115.62 161.531 115.552 161.481 115.485 161.431Z" fill="#FE6240"/>
<path d="M117.399 162.633C117.457 162.665 117.512 162.693 117.56 162.719C117.512 162.693 117.457 162.664 117.399 162.633Z" fill="#FE6240"/>
<path d="M116.681 162.225C116.746 162.264 116.812 162.302 116.875 162.338C116.812 162.302 116.747 162.263 116.681 162.225Z" fill="#FE6240"/>
<path d="M114.201 160.2C114.251 160.274 114.307 160.348 114.369 160.424C114.309 160.35 114.252 160.274 114.201 160.2Z" fill="#FE6240"/>
<path d="M116.965 162.39C117.016 162.418 117.065 162.446 117.112 162.474C117.065 162.448 117.016 162.419 116.965 162.39Z" fill="#FE6240"/>
<path d="M124.075 172.145L125.168 170.703L124.652 168.407L122.983 167.232V165.175V163.701L119.482 160.2L117.824 162.856C117.824 162.856 117.725 162.806 117.559 162.72L114.815 165.175C114.815 165.175 111.744 165.237 110.515 165.175C109.287 165.114 110.023 167.08 110.023 167.08L107.076 168.062L108.882 167.46L108.135 171.624V173.282L111.252 174.388V179.955L112.603 180.836V195.207L113.755 197.963L114.813 197.786L118.376 197.908L119.164 197.861L118.979 192.073L118.351 189.901V189.162L119.237 180.15H121.171L121.816 179.112V176.595H124.075L125.168 174.817L124.075 174.105V172.145Z" fill="#FE6240"/>
<path d="M106.439 167.97C106.395 167.964 106.348 167.956 106.3 167.95C106.349 167.958 106.395 167.964 106.439 167.97Z" fill="#FE6240"/>
<path d="M114.886 160.951C114.954 161.012 115.023 161.071 115.096 161.13C115.024 161.071 114.954 161.012 114.886 160.951Z" fill="#FE6240"/>
<path d="M106.91 168.039C106.875 168.034 106.831 168.028 106.785 168.021C106.832 168.028 106.873 168.034 106.91 168.039Z" fill="#FE6240"/>
<path d="M114.805 160.878C114.752 160.829 114.699 160.779 114.649 160.729C114.7 160.779 114.752 160.829 114.805 160.878Z" fill="#FE6240"/>
<path d="M105.887 167.891L105.892 167.892L105.887 167.891Z" fill="#FE6240"/>
<path d="M183.147 150.692C183.143 150.685 183.141 150.677 183.139 150.67C183.141 150.678 183.143 150.684 183.147 150.692Z" fill="#FE6240"/>
<path d="M186.18 157.515C185.943 157.564 184.71 154.609 183.865 152.502C183.866 152.506 183.867 152.509 183.868 152.512L181.022 152.909L178.812 154.775H174.942L171.81 152.909H165.361L159.746 156.702H155.966L152.097 152.909H150.254L146.385 154.775H144.727L141.41 151.174H139.015L134.962 150.438L126.671 151.912V156.702L123.908 157.563L125.382 165.176H122.987V167.233L124.657 168.408L125.172 170.704L124.08 172.146V174.107L125.172 174.819L124.08 176.597H121.821V179.115L121.175 180.153H119.242L118.355 189.164V189.903L118.983 192.075L119.169 197.864L124.646 197.541L130.664 198.647L134.963 204.665L135.699 208.596L139.139 211.299H141.349L143.314 209.825L145.033 209.456C145.033 209.456 150.929 209.825 151.297 209.825C151.666 209.825 153.754 209.21 153.754 209.21L154.023 209.286C155.032 207.328 156.14 205.176 156.333 204.789C156.701 204.052 155.965 203.315 155.596 202.026C155.228 200.736 158.176 197.972 158.176 197.972L163.887 194.684H166.65L167.756 196.13L169.783 197.972H170.704L174.143 193.735L174.941 192.077V189.866L178.543 187.103L178.625 186.182C178.625 186.182 178.441 184.708 178.625 184.538C178.809 184.368 179.546 183.787 180.652 183.419C181.758 183.051 180.652 180.84 180.652 180.156C180.652 179.473 183.047 177.769 183.047 177.769L185.81 167.942L188.02 166.836L190.784 165.178V160.649L188.573 159.834C188.575 159.834 186.549 157.439 186.18 157.515Z" fill="#FE6240"/>
<path d="M183.782 152.299L183.78 152.294C183.78 152.296 183.782 152.299 183.782 152.299Z" fill="#FE6240"/>
<path d="M263.071 201.011C262.335 201.165 261.107 197.326 261.107 197.326V195.453C261.107 195.453 261.107 195.453 260.37 194.716C259.634 193.98 257.177 192.997 257.177 192.997L254.23 191.616L253.247 189.866C253.247 189.866 250.3 186.365 248.58 186.365C246.859 186.365 248.58 185.137 248.58 185.137L247.351 183.908H245.386C245.386 183.908 243.912 182.926 243.176 182.403C242.439 181.882 244.404 178.995 245.141 177.521C245.877 176.046 244.158 173.836 244.158 173.836L241.21 171.379V169.046L240.227 167.449L239.331 166.183L240.172 167.37L239.613 169.046H235.56L233.839 171.257V174.758L226.715 179.732L221.681 180.838H216.582L215.845 181.788L218.056 183.048L216.766 185.443L214.924 187.838C214.924 187.838 208.107 188.206 207.001 188.206C205.895 188.206 203.868 189.497 203.316 189.865C202.764 190.233 201.842 187.838 201.842 187.838L198.709 189.865H195.762C195.762 189.865 190.05 198.708 189.498 199.446C188.945 200.182 190.972 202.209 190.972 202.763C190.972 203.315 190.42 207 190.42 207.736C190.42 208.473 193.552 209.395 193.552 209.395L194.658 214.001L198.896 220.449V224.564L201.291 223.704L202.273 216.334L205.098 215.843L208.783 214.615L213.697 216.334L214.464 215.474V211.298L215.293 210.438L217.504 207.613C217.504 207.613 218.61 205.156 219.346 205.156C220.083 205.156 221.682 205.156 221.682 205.156L224.506 206.63L226.84 210.438H229.174L230.403 211.298H234.824L237.281 212.158L239.492 211.298L240.72 207.981L243.177 208.349L245.388 208.841L248.827 206.876C248.827 206.876 249.073 205.034 249.563 205.156C250.055 205.279 250.792 205.15 250.792 205.15L252.02 206.385H254.353L255.704 203.56C255.704 203.56 258.406 204.542 258.897 204.666C259.389 204.788 261.6 206.14 262.09 206.262C262.377 206.334 264.931 206.322 267.004 206.299V201.016C267.004 201.016 263.808 200.858 263.071 201.011Z" fill="#FE6240"/>
<path d="M214.461 214.685V215.472L213.693 216.332L208.78 214.613L205.095 215.842L202.27 216.332L201.287 223.702L198.893 224.562V227.449L195.945 226.159H193.55C193.55 226.159 190.137 225.149 189.681 224.693C189.529 224.541 186.364 224.491 182.221 224.491L181.636 225.913V229.598L182.343 230.581H183.848L186.551 229.475L188.762 230.403C188.762 230.403 189.184 230.581 189.403 231.317C189.622 232.054 190.236 233.406 190.236 233.406V234.512L185.937 235.74V237.951V239.057L186.919 241.636L189.403 242.25C189.403 242.25 189.184 245.2 189.403 245.935C189.622 246.67 190.236 250.234 190.236 250.234L188.516 251.953L188.393 254.532H186.675C186.675 254.532 186.429 253.918 186.429 253.058C186.429 252.198 185.937 251.584 185.937 251.584H185.077L184.831 252.69L182.374 254.532L180.654 253.181L180.04 252.813L179.057 250.848H178.075L177.461 251.585V253.059L176.458 253.551C176.458 253.551 175.618 253.551 174.266 253.551C172.916 253.551 173.284 252.445 172.916 253.551L172.752 256.008V257.728C172.752 257.728 173.653 258.342 173.531 258.71C173.407 259.079 173.531 260.185 173.531 260.185L172.057 260.675H170.828L169.109 262.886L172.303 266.447V268.29L174.513 269.396C174.513 269.396 175.373 270.378 175.496 270.747C175.574 270.981 176.051 273.658 176.387 275.571L177.461 275.168L177.583 273.08C177.583 273.08 177.829 270.255 178.565 270.255C179.302 270.255 181.513 267.922 181.513 267.922L183.601 269.396L184.584 269.028C184.584 269.028 185.69 268.045 185.69 267.553C185.69 267.063 185.69 267.063 185.69 267.063L187.655 266.326H189.402L190.235 269.029C190.235 269.029 189.867 269.765 190.787 269.397C191.708 269.029 190.235 270.134 192.568 268.169C194.902 266.204 195.639 265.958 195.639 265.958L196.745 263.379L198.095 263.257L200.06 262.274C200.06 262.274 199.814 259.327 200.06 258.712C200.306 258.097 200.06 252.202 200.06 252.202L203.008 249.284V248.146L206.569 246.671C206.569 246.671 209.148 245.568 209.272 243.971C209.394 242.375 209.272 239.794 209.272 239.794L210.868 237.584V234.636L211.483 230.405V228.863V226.406L212.465 224.564C212.465 224.564 214 220.019 214.461 219.528C214.922 219.036 215.782 217.685 215.782 217.195C215.782 216.985 215.216 215.887 214.461 214.685Z" fill="#FE6240"/>
<path d="M194.604 213.789L194.655 213.999L194.604 213.789Z" fill="#FE6240"/>
<path d="M175.545 270.966C175.541 270.951 175.539 270.937 175.536 270.924C175.539 270.937 175.542 270.95 175.545 270.966Z" fill="#FE6240"/>
<path d="M175.578 271.126C175.575 271.113 175.573 271.101 175.569 271.088C175.573 271.101 175.575 271.112 175.578 271.126Z" fill="#FE6240"/>
<path d="M175.624 271.362C175.622 271.35 175.62 271.335 175.617 271.323C175.62 271.336 175.622 271.35 175.624 271.362Z" fill="#FE6240"/>
<path d="M293.04 296.417H295.244C294.599 295.911 294.106 295.531 293.96 295.434C293.408 295.066 287.88 281.432 287.88 281.432H286.706L282.721 278.853L284.195 277.563V272.403L282.721 267.874L280.51 262.394L279.65 259.2C279.65 259.2 278.176 258.34 278.176 257.972C278.176 257.604 278.176 255.515 278.176 255.515L277.07 254.779C277.07 254.779 276.456 253.06 276.824 252.814C277.192 252.568 278.851 251.708 278.851 251.708C278.851 251.708 278.544 249.62 278.851 249.251C279.158 248.883 278.851 246.619 278.851 246.619L279.957 243.803L281.615 234.082L286.705 228.923L288.616 224.133L287.387 222.475L288.616 219.027L287.387 215.934C285.913 215.535 285.667 213.386 285.667 213.386L284.193 211.175L282.228 208.472L280.017 209.393L276.824 211.174C276.824 211.174 272.893 210.191 271.911 209.393C270.928 208.595 266.997 206.537 266.997 206.537V206.297C264.925 206.32 262.372 206.332 262.084 206.26C261.592 206.138 259.381 204.786 258.891 204.664C258.399 204.54 255.697 203.558 255.697 203.558L254.347 206.383H252.014L250.785 205.148C250.785 205.148 250.049 205.277 249.557 205.154C249.065 205.032 248.82 206.874 248.82 206.874L245.381 208.839L243.17 208.347L240.714 207.979L239.485 211.296L237.275 212.156L234.818 211.296H230.398L229.169 210.436H226.835L224.501 206.628L221.677 205.154C221.677 205.154 220.078 205.154 219.341 205.154C218.605 205.154 217.499 207.611 217.499 207.611L215.288 210.436L214.459 211.296V214.686C215.214 215.888 215.78 216.985 215.78 217.192C215.78 217.682 214.92 219.034 214.459 219.525C213.998 220.017 212.463 224.561 212.463 224.561L211.48 226.403V228.86V230.402L210.866 234.633V237.581L209.27 239.791C209.27 239.791 209.392 242.371 209.27 243.968C209.147 245.565 206.567 246.669 206.567 246.669L203.006 248.143V249.281L200.058 252.199C200.058 252.199 200.304 258.094 200.058 258.709C199.812 259.323 200.058 262.271 200.058 262.271L198.093 263.254L196.743 263.376L195.637 265.955C195.637 265.955 194.9 266.201 192.566 268.166C190.233 270.131 191.706 269.026 190.785 269.394C189.864 269.763 190.233 269.026 190.233 269.026L189.4 266.323H187.652L185.688 267.06C185.688 267.06 185.688 267.06 185.688 267.55C185.688 268.042 184.582 269.025 184.582 269.025L183.599 269.393L181.511 267.919C181.511 267.919 179.3 270.252 178.563 270.252C177.827 270.252 177.581 273.077 177.581 273.077L177.459 275.165L176.385 275.568C176.576 276.657 176.722 277.5 176.722 277.5V278.304L180.285 276.087H202.946C202.946 276.087 202.946 280.877 202.946 281.615C202.946 282.351 206.631 288.801 206.631 288.801L208.842 290.275L211.421 289.907L214.246 288.801L215.474 289.537L219.344 289.353V288.063V285.116L220.266 283.089H226.346V285.116H232.532L234.636 286.036C234.636 286.036 233.162 288.063 232.61 288.984C232.057 289.904 234.636 292.3 234.636 292.3V297.644L235.742 300.223L236.663 305.873L235.373 307.838L236.109 309.434C236.109 309.434 239.978 309.434 240.715 308.328C241.451 307.222 242.373 308.328 242.373 308.328H246.795V309.365C246.875 309.48 247.01 309.557 247.225 309.557C248.085 309.557 249.313 309.557 249.313 309.557V312.382H249.989L251.769 311.767L253.98 310.171L254.962 312.75C254.962 312.75 255.576 314.531 257.173 314.623C258.77 314.716 261.84 314.47 262.455 314.961C263.069 315.452 265.034 315.575 265.034 315.575L265.894 311.89L266.63 313.302L268.227 314.961V316.68C268.227 316.68 269.823 316.925 270.315 317.294C270.807 317.662 272.772 318.768 272.772 318.768C272.772 318.768 274 319.136 274.369 319.874C274.737 320.611 275.105 321.839 275.475 322.331C275.843 322.823 277.133 324.541 277.133 324.541H278.852C278.852 324.541 278.914 323.067 279.404 323.067C279.895 323.067 281.247 323.804 281.247 323.804V324.54H282.721L282.107 316.556L279.65 316.31V317.907H278.3L275.966 316.064L273.756 313.301L273.51 311.028C273.51 311.028 274.37 309.678 274.37 309.186C274.37 308.694 274.37 307.589 274.37 307.589L274.984 305.255C274.984 305.255 274.616 302.062 274.984 301.938C275.352 301.816 275.476 300.832 275.476 300.832L273.879 298.99L275.968 297.393L278.301 293.094L283.828 291.619L285.671 292.356C285.671 292.356 284.688 293.83 285.671 294.075C286.653 294.321 288.988 295.303 289.478 295.549C289.969 295.803 293.04 296.417 293.04 296.417Z" fill="#FE6240"/>
<path d="M175.043 270.042C175.101 270.117 175.158 270.193 175.211 270.268C175.158 270.194 175.101 270.117 175.043 270.042Z" fill="#FE6240"/>
<path d="M175.676 271.629C175.671 271.605 175.666 271.579 175.662 271.556C175.667 271.58 175.671 271.605 175.676 271.629Z" fill="#FE6240"/>
<path d="M176.118 274.06C176.117 274.052 176.114 274.044 176.113 274.035C176.114 274.044 176.116 274.052 176.118 274.06Z" fill="#FE6240"/>
<path d="M176.185 274.437L176.184 274.434C176.184 274.436 176.185 274.437 176.185 274.437Z" fill="#FE6240"/>
<path d="M175.728 271.903C175.723 271.878 175.72 271.854 175.715 271.829C175.719 271.854 175.723 271.878 175.728 271.903Z" fill="#FE6240"/>
<path d="M175.779 272.19L175.777 272.185C175.779 272.187 175.779 272.19 175.779 272.19Z" fill="#FE6240"/>
<path d="M175.854 272.59C175.849 272.563 175.844 272.536 175.839 272.509C175.844 272.535 175.849 272.563 175.854 272.59Z" fill="#FE6240"/>
<path d="M262.831 200.938C262.87 200.967 262.91 200.988 262.948 200.999C262.91 200.986 262.87 200.967 262.831 200.938Z" fill="#FE6240"/>
<path d="M188.759 230.405L186.548 229.477L183.845 230.583H182.34L181.633 229.6V225.915L182.218 224.493C182.984 224.493 183.716 224.494 184.402 224.498C176.326 224.453 161.835 224.695 161.835 224.695L162.103 225.424L159.033 231.32L160.629 232.303L160.383 234.268C160.383 234.268 159.523 234.39 158.418 234.759C157.312 235.128 158.296 241.638 158.172 242.13C158.05 242.621 156.084 243.112 156.084 243.112L155.102 243.848L157.558 246.672L160.261 253.429L166.649 259.325L169.105 262.887L170.824 260.676H172.053L173.527 260.185C173.527 260.185 173.403 259.079 173.527 258.711C173.649 258.343 172.748 257.729 172.748 257.729V256.008L172.911 253.552C173.28 252.446 172.911 253.552 174.262 253.552C175.613 253.552 176.454 253.552 176.454 253.552L177.457 253.06V251.586L178.071 250.849H179.053L180.036 252.814L180.65 253.182L182.37 254.533L184.827 252.69L185.073 251.584H185.933C185.933 251.584 186.424 252.199 186.424 253.059C186.424 253.919 186.67 254.533 186.67 254.533H188.389L188.512 251.954L190.232 250.235C190.232 250.235 189.618 246.671 189.399 245.936C189.18 245.2 189.399 242.251 189.399 242.251L186.915 241.636L185.933 239.057V237.951V235.741L190.232 234.512V233.406C190.232 233.406 189.618 232.056 189.399 231.318C189.181 230.583 188.759 230.405 188.759 230.405Z" fill="#FE6240"/>
<path d="M189.29 224.616C189.358 224.622 189.416 224.63 189.467 224.637C189.416 224.63 189.359 224.624 189.29 224.616Z" fill="#FE6240"/>
<path d="M189.623 224.667C189.65 224.674 189.671 224.683 189.679 224.692C189.672 224.683 189.65 224.676 189.623 224.667Z" fill="#FE6240"/>
<path d="M189.808 224.79C189.826 224.801 189.851 224.815 189.87 224.826C189.851 224.813 189.825 224.801 189.808 224.79Z" fill="#FE6240"/>
<path d="M190.877 225.273C190.914 225.288 190.952 225.302 190.99 225.316C190.952 225.302 190.915 225.287 190.877 225.273Z" fill="#FE6240"/>
<path d="M161.522 222.357L161.246 223.089L161.522 222.357Z" fill="#FE6240"/>
<path d="M190.545 225.143C190.584 225.159 190.623 225.175 190.664 225.191C190.623 225.175 190.583 225.159 190.545 225.143Z" fill="#FE6240"/>
<path d="M190.249 225.016C190.285 225.032 190.324 225.049 190.362 225.065C190.324 225.048 190.285 225.032 190.249 225.016Z" fill="#FE6240"/>
<path d="M191.335 225.44C191.303 225.429 191.27 225.416 191.238 225.405C191.271 225.416 191.303 225.427 191.335 225.44Z" fill="#FE6240"/>
<path d="M192.027 225.679L192.032 225.681L192.027 225.679Z" fill="#FE6240"/>
<path d="M191.685 225.562C191.665 225.556 191.646 225.548 191.626 225.541C191.646 225.548 191.665 225.555 191.685 225.562Z" fill="#FE6240"/>
<path d="M185.798 224.509C185.976 224.511 186.15 224.513 186.318 224.515C186.15 224.513 185.976 224.51 185.798 224.509Z" fill="#FE6240"/>
<path d="M286.708 245.038L284.197 248.145H282.722L278.853 246.62C278.853 246.62 279.161 248.884 278.853 249.252C278.547 249.62 278.853 251.709 278.853 251.709C278.853 251.709 277.195 252.569 276.827 252.815C276.458 253.061 277.073 254.78 277.073 254.78L278.179 255.516C278.179 255.516 278.179 257.605 278.179 257.973C278.179 258.341 279.653 259.201 279.653 259.201L280.513 262.394L282.724 267.875L288.804 258.955L288.619 256.376H286.709V254.165L288.988 253.429L289.172 248.145L286.708 246.211V245.038Z" fill="#FE6240"/>
<path d="M304.647 305.875L302.805 304.279V301.944L300.041 300.224C300.041 300.224 297.045 297.827 295.244 296.417H293.039C293.039 296.417 289.969 295.803 289.478 295.557C288.986 295.311 286.653 294.328 285.671 294.082C284.688 293.837 285.671 292.363 285.671 292.363L283.828 291.627L278.301 293.101L275.967 297.4L273.879 298.997L275.476 300.84C275.476 300.84 275.353 301.822 274.984 301.946C274.615 302.068 274.984 305.262 274.984 305.262L274.37 307.597C274.37 307.597 274.37 308.702 274.37 309.193C274.37 309.685 273.509 311.036 273.509 311.036L273.755 313.308L275.966 316.072L278.299 317.914H279.65V316.318L282.107 316.563L282.721 324.548H281.247V323.811C281.247 323.811 279.896 323.075 279.404 323.075C278.912 323.075 278.852 324.549 278.852 324.549H277.133C277.133 324.549 275.843 322.829 275.474 322.338C275.106 321.846 274.738 320.618 274.368 319.881C274 319.145 272.772 318.775 272.772 318.775C272.772 318.775 270.807 317.669 270.315 317.301C269.823 316.933 268.227 316.687 268.227 316.687V314.968L266.63 313.31L265.893 311.897L265.033 315.582C265.033 315.582 263.068 315.46 262.454 314.968C261.84 314.476 258.769 314.722 257.173 314.631C255.576 314.539 254.962 312.757 254.962 312.757L253.979 310.178L251.769 311.775L249.989 312.389H249.313V309.564C249.313 309.564 248.085 309.564 247.225 309.564C247.01 309.564 246.875 309.487 246.795 309.373V318.101L245.32 321.418H234.635V342.236L242.886 349.637L245.873 348.869L253.243 349.975L254.963 352.186C254.963 352.186 262.575 351.339 263.573 351.339C264.57 351.339 265.368 348.869 265.368 348.869L270.955 343.756L275.146 342.559V339.766L278.301 338.569L285.117 337.63L283.827 336.709V333.762L299.856 328.05L300.04 317.917H303.725L304.646 316.442L302.342 314.968C302.342 314.968 302.803 312.573 302.342 311.835C301.881 311.099 303.172 310.177 303.172 310.177L301.513 308.703L301.33 306.858H304.647V305.875Z" fill="#FE6240"/>
<path d="M239.98 350.382L240.617 350.218L239.98 350.382Z" fill="#FE6240"/>
<path d="M295.018 296.239C295.089 296.296 295.168 296.356 295.245 296.417C295.166 296.356 295.09 296.297 295.018 296.239Z" fill="#FE6240"/>
<path d="M237.277 163.279V158.604L233.838 155.411L235.558 153.937V150.007V148.042C235.558 148.042 235.558 145.586 235.558 144.548C235.558 143.509 240.225 142.392 240.225 142.392V138.217H245.875V114.387L198.464 90.3135L192.51 91.7111L193.735 101.982L195.393 103.456V106.035L197.604 108.063L196.13 113.096L195.057 131.091L188.76 136.619L185.443 141.536V146.198H183.048V150.436C183.048 150.436 185.811 157.589 186.181 157.513C186.549 157.437 188.575 159.833 188.575 159.833L192.076 161.123L194.471 174.941H187.655L186.734 176.6L190.327 180.469L193.366 183.048L195.761 189.864H198.709L201.841 187.838C201.841 187.838 202.762 190.232 203.316 189.864C203.868 189.496 205.895 188.206 207.001 188.206C208.107 188.206 214.923 187.838 214.923 187.838L216.766 185.443L218.056 183.048L215.845 181.787L216.582 180.837H221.68L226.715 179.731L233.839 174.757V171.256L235.559 169.045H239.613L240.171 167.37L237.277 163.279Z" fill="#FE6240"/>
</svg>
