<svg width="24" height="24" viewBox="0 0 24 24" fill="none" xmlns="http://www.w3.org/2000/svg">
<path fill-rule="evenodd" clip-rule="evenodd" d="M15.4875 4.42944C15.5623 4.49357 15.6238 4.57181 15.6683 4.6597C15.7129 4.74759 15.7397 4.8434 15.7472 4.94166C15.7547 5.03991 15.7428 5.13869 15.7122 5.23234C15.6815 5.32599 15.6327 5.41267 15.5685 5.48744L9.98748 11.9994L15.5685 18.5114C15.6364 18.5856 15.6887 18.6726 15.7223 18.7674C15.7559 18.8622 15.77 18.9627 15.764 19.0631C15.7579 19.1635 15.7318 19.2616 15.687 19.3516C15.6423 19.4417 15.5799 19.5218 15.5036 19.5873C15.4273 19.6527 15.3386 19.7022 15.2428 19.7326C15.147 19.7631 15.046 19.774 14.9459 19.7647C14.8458 19.7554 14.7486 19.7261 14.66 19.6784C14.5715 19.6308 14.4934 19.5659 14.4305 19.4874L8.43048 12.4874C8.31401 12.3515 8.25 12.1784 8.25 11.9994C8.25 11.8205 8.31401 11.6474 8.43048 11.5114L14.4305 4.51144C14.56 4.36063 14.744 4.26738 14.9422 4.25219C15.1404 4.23701 15.3365 4.30112 15.4875 4.43044" fill="black"/>
</svg>
