<svg width="20" height="20" viewBox="0 0 20 20" fill="none" xmlns="http://www.w3.org/2000/svg">
<g clip-path="url(#clip0_838_14748)">
<path d="M18.3332 10.0005C18.3332 8.25925 17.7878 6.56175 16.7736 5.14639C15.7594 3.73103 14.3273 2.66892 12.6785 2.10923C11.0296 1.54954 9.24692 1.52038 7.58067 2.02586C5.91443 2.53134 4.44838 3.54606 3.38842 4.92749C2.32847 6.30893 1.72786 7.98769 1.67096 9.72799C1.61405 11.4683 2.10371 13.1827 3.07116 14.6304C4.0386 16.0782 5.43523 17.1865 7.0649 17.7997C8.69456 18.413 10.4754 18.5003 12.1572 18.0496" stroke="#9B9EA6" stroke-width="1.5" stroke-linecap="round"/>
<path d="M10.0001 13.7043C12.0456 13.7043 13.7038 12.0461 13.7038 10.0006C13.7038 7.95508 12.0456 6.29688 10.0001 6.29688C7.95459 6.29688 6.29639 7.95508 6.29639 10.0006C6.29639 12.0461 7.95459 13.7043 10.0001 13.7043Z" stroke="#9B9EA6" stroke-width="1.5"/>
<path d="M13.7031 7.22266V11.3893C13.7031 12.0032 13.947 12.592 14.3811 13.0261C14.8152 13.4603 15.404 13.7041 16.0179 13.7041C16.6319 13.7041 17.2206 13.4603 17.6548 13.0261C18.0889 12.592 18.3328 12.0032 18.3328 11.3893V10.0004" stroke="#9B9EA6" stroke-width="1.5" stroke-linecap="round"/>
</g>
<defs>
<clipPath id="clip0_838_14748">
<rect width="20" height="20" fill="white"/>
</clipPath>
</defs>
</svg>
