<svg width="350" height="262" viewBox="0 0 350 262" fill="none" xmlns="http://www.w3.org/2000/svg">
<g clip-path="url(#clip0_650_31741)">
<path fill-rule="evenodd" clip-rule="evenodd" d="M49.3087 244.101L0.779763 244.021C0.87244 243.889 0.940314 243.733 0.940654 243.531L1.01022 202.11C1.01217 200.948 -0.794377 200.945 -0.796327 202.107L-0.823294 218.164C-0.844552 218.118 -0.872929 218.071 -0.915528 218.029C-2.77225 216.197 -4.57553 214.315 -6.32895 212.381C-6.71939 211.95 -7.35697 212.589 -6.97008 213.019C-5.22021 214.953 -3.41338 216.835 -1.55666 218.667C-1.2975 218.923 -0.945215 218.767 -0.823879 218.512L-0.865892 243.528C-0.866232 243.73 -0.798883 243.887 -0.706647 244.018L-33.0806 243.964C-34.2434 243.962 -34.2464 245.766 -33.0836 245.768L49.3057 245.905C50.4649 245.907 50.4715 244.103 49.3087 244.101Z" fill="white" fill-opacity="0.12"/>
<path fill-rule="evenodd" clip-rule="evenodd" d="M32.4216 197.119C32.9239 196.573 32.7479 195.508 31.8481 195.62C21.5335 196.913 11.2224 198.21 0.907824 199.503C-0.23034 199.646 -0.247593 201.45 0.904795 201.307C11.1518 200.02 21.3989 198.734 31.6459 197.448C31.5354 197.587 31.4569 197.753 31.4565 197.977L31.4186 220.507C22.2486 219.97 13.0671 219.855 3.885 220.167C3.30534 220.187 3.30027 221.089 3.88349 221.069C13.0656 220.761 22.2471 220.872 31.4171 221.409L31.3822 242.185C31.3803 243.347 33.1867 243.35 33.1887 242.188L33.2629 197.98C33.2638 197.43 32.8518 197.148 32.4216 197.119Z" fill="white" fill-opacity="0.12"/>
<path fill-rule="evenodd" clip-rule="evenodd" d="M75.1497 248.321L-26.1152 248.153C-27.278 248.151 -27.281 249.955 -26.1182 249.957L75.1467 250.126C76.3095 250.128 76.3161 248.323 75.1497 248.321Z" fill="white" fill-opacity="0.12"/>
<path fill-rule="evenodd" clip-rule="evenodd" d="M29.2797 209.099C21.41 209.196 13.5506 209.562 5.70491 210.199C5.12876 210.244 5.12369 211.147 5.7034 211.101C13.5491 210.465 21.4085 210.098 29.2782 210.001C29.8614 209.991 29.8629 209.089 29.2797 209.099Z" fill="white" fill-opacity="0.12"/>
<path fill-rule="evenodd" clip-rule="evenodd" d="M29.6491 223.35C29.1271 229.258 28.822 235.173 28.7303 241.103C28.7187 241.682 29.6218 241.687 29.6335 241.105C29.7252 235.175 30.0303 229.256 30.5522 223.352C30.603 222.773 29.6998 222.775 29.6491 223.35Z" fill="white" fill-opacity="0.12"/>
<path fill-rule="evenodd" clip-rule="evenodd" d="M27.6153 222.605C27.6092 222.026 26.706 222.021 26.7121 222.603C26.7817 227.752 26.5846 232.886 26.1209 238.017C26.0701 238.595 26.9733 238.59 27.024 238.018C27.4878 232.888 27.6884 227.754 27.6153 222.605Z" fill="white" fill-opacity="0.12"/>
<path fill-rule="evenodd" clip-rule="evenodd" d="M24.4949 224.704C24.4674 224.125 23.5643 224.12 23.5917 224.702C23.8078 229.414 23.8496 234.123 23.7244 238.838C23.7092 239.421 24.6123 239.422 24.6275 238.84C24.7528 234.124 24.7074 229.416 24.4949 224.704Z" fill="white" fill-opacity="0.12"/>
<path fill-rule="evenodd" clip-rule="evenodd" d="M21.9022 224.097C21.8711 223.522 20.9644 223.513 20.999 224.095C21.2821 229.159 21.2594 234.223 20.9308 239.286C20.8943 239.865 21.7975 239.866 21.834 239.287C22.1625 234.224 22.1852 229.161 21.9022 224.097Z" fill="white" fill-opacity="0.12"/>
<path fill-rule="evenodd" clip-rule="evenodd" d="M19.6065 223.869C19.5897 223.29 18.6866 223.285 18.7034 223.867C18.8583 229.006 18.8035 234.144 18.5424 239.281C18.513 239.86 19.4161 239.862 19.4456 239.283C19.7066 234.145 19.7615 229.011 19.6065 223.869Z" fill="white" fill-opacity="0.12"/>
<path fill-rule="evenodd" clip-rule="evenodd" d="M17.7086 224.394C17.6989 223.816 16.7958 223.811 16.8055 224.393C16.8901 229.034 16.8005 233.668 16.5402 238.305C16.5072 238.884 17.4104 238.885 17.4434 238.306C17.7036 233.669 17.7933 229.032 17.7086 224.394Z" fill="white" fill-opacity="0.12"/>
<path fill-rule="evenodd" clip-rule="evenodd" d="M14.4331 222.885C14.4061 228.381 14.1729 233.871 13.737 239.353C13.6898 239.931 14.593 239.929 14.6402 239.354C15.0761 233.872 15.3093 228.387 15.3363 222.886C15.3408 222.308 14.4341 222.302 14.4331 222.885Z" fill="white" fill-opacity="0.12"/>
<path fill-rule="evenodd" clip-rule="evenodd" d="M12.4429 224.685C12.4485 229.851 12.3403 235.014 12.1183 240.173C12.0924 240.755 12.9956 240.753 13.0215 240.174C13.2435 235.015 13.3518 229.853 13.3462 224.686C13.3472 224.107 12.4439 224.106 12.4429 224.685Z" fill="white" fill-opacity="0.12"/>
<path fill-rule="evenodd" clip-rule="evenodd" d="M10.6517 225.132C10.6171 224.553 9.71398 224.548 9.74856 225.131C10.0111 229.694 9.9999 234.253 9.70778 238.816C9.67125 239.395 10.5744 239.396 10.6109 238.817C10.8995 234.258 10.9143 229.699 10.6517 225.132Z" fill="white" fill-opacity="0.12"/>
<path fill-rule="evenodd" clip-rule="evenodd" d="M8.96289 227.463C8.94608 226.884 8.04292 226.879 8.05972 227.461C8.18718 232.024 8.14034 236.583 7.91933 241.146C7.88991 241.725 8.79307 241.726 8.82249 241.147C9.0435 236.585 9.09034 232.026 8.96289 227.463Z" fill="white" fill-opacity="0.12"/>
<path fill-rule="evenodd" clip-rule="evenodd" d="M6.22808 224.22C6.21839 223.641 5.31523 223.636 5.32492 224.218C5.41944 229.335 5.33977 234.448 5.0894 239.557C5.05998 240.136 5.96314 240.138 5.99256 239.559C6.24294 234.45 6.32261 229.336 6.22808 224.22Z" fill="white" fill-opacity="0.12"/>
<path fill-rule="evenodd" clip-rule="evenodd" d="M3.32435 226.854C3.27554 226.279 2.37237 226.274 2.42118 226.853C2.77664 231.16 2.86537 235.468 2.68388 239.785C2.65802 240.364 3.56119 240.366 3.58706 239.787C3.76855 235.466 3.67982 231.162 3.32435 226.854Z" fill="white" fill-opacity="0.12"/>
<path fill-rule="evenodd" clip-rule="evenodd" d="M103.604 221.882C92.8139 220.643 81.9795 220.202 71.1224 220.479C70.5428 220.495 70.5377 221.394 71.1209 221.381C81.9779 221.104 92.8124 221.544 103.603 222.784C104.179 222.849 104.177 221.947 103.604 221.882Z" fill="white" fill-opacity="0.12"/>
<path fill-rule="evenodd" clip-rule="evenodd" d="M106.24 211.379C93.3758 208.332 80.483 205.413 67.558 202.654C67.4409 202.547 67.2631 202.515 67.1065 202.557C65.9477 202.31 64.7888 202.078 63.63 201.831C64.4014 191.36 64.7924 180.868 64.7994 170.372C64.8004 169.789 63.8971 169.788 63.8962 170.37C63.8893 180.806 63.502 191.235 62.7413 201.644C53.9433 199.79 45.1381 197.986 36.3114 196.27C35.1738 196.048 34.6872 197.788 35.8283 198.01C46.1587 200.019 56.4677 202.131 66.7587 204.325C66.6535 209.747 66.552 215.169 66.4504 220.591C64.1256 220.115 61.7863 219.735 59.4399 219.404C59.447 219.376 59.4614 219.354 59.465 219.326C59.6493 217.54 59.8372 215.751 60.0216 213.961C60.0324 213.844 59.997 213.756 59.9474 213.688C61.0957 213.86 62.2404 214.026 63.3887 214.205C63.9575 214.295 64.2044 213.425 63.632 213.335C54.204 211.846 44.7364 210.623 35.2363 209.67C34.6603 209.612 34.6624 210.514 35.2348 210.572C43.3056 211.384 51.3511 212.402 59.3715 213.602C59.2469 213.669 59.1436 213.786 59.1255 213.964C58.9412 215.735 58.7604 217.507 58.576 219.278C50.8008 218.221 42.9464 217.711 35.2036 216.402C34.6348 216.305 34.388 217.175 34.9604 217.272C45.4085 219.036 56.0546 219.345 66.4417 221.507L66.3753 225.019C66.3128 228.357 66.2469 231.694 66.1843 235.036C66.1631 234.989 66.1383 234.947 66.0957 234.904C63.9941 232.788 61.953 230.618 59.9725 228.392C59.5856 227.958 58.9479 228.593 59.3313 229.027C61.3118 231.253 63.3529 233.426 65.458 235.539C65.7101 235.791 66.0517 235.646 66.1766 235.401C66.1765 235.469 66.1728 235.533 66.1727 235.597C66.1065 238.991 65.6417 242.634 66.2797 245.983C66.389 246.551 67.2606 246.311 67.1513 245.743C66.4816 242.23 67.0252 238.279 67.0917 234.714C67.1581 231.188 67.2243 227.659 67.2943 224.133C67.419 217.592 67.5438 211.055 67.6686 204.515C80.6043 207.281 93.5078 210.204 106.375 213.261C106.288 212.636 106.235 212.011 106.24 211.379Z" fill="white" fill-opacity="0.12"/>
<path fill-rule="evenodd" clip-rule="evenodd" d="M45.6428 212.766C45.4385 213.742 45.3265 214.729 45.3071 215.727C45.2954 216.309 46.1986 216.311 46.2103 215.728C46.2296 214.812 46.3308 213.907 46.5172 213.009C46.6319 212.441 45.7611 212.198 45.6428 212.766Z" fill="white" fill-opacity="0.12"/>
<path fill-rule="evenodd" clip-rule="evenodd" d="M65.1108 227.453C54.8971 225.82 44.5896 224.948 34.2453 224.852C33.6656 224.848 33.6641 225.75 34.2438 225.754C44.5063 225.849 54.7356 226.704 64.8711 228.323C65.4364 228.412 65.6832 227.543 65.1108 227.453Z" fill="white" fill-opacity="0.12"/>
<path fill-rule="evenodd" clip-rule="evenodd" d="M65.5816 236.65C62.1546 233.903 58.7883 231.081 55.4861 228.186C55.0529 227.805 54.4082 228.439 54.8449 228.82C58.1472 231.716 61.5135 234.538 64.9404 237.285C65.3914 237.648 66.0326 237.013 65.5816 236.65Z" fill="white" fill-opacity="0.12"/>
<path fill-rule="evenodd" clip-rule="evenodd" d="M65.0065 239.21C60.7488 235.656 56.6016 231.973 52.5648 228.167C52.1423 227.769 51.5012 228.403 51.9237 228.805C55.9605 232.612 60.1077 236.294 64.3654 239.848C64.8093 240.218 65.454 239.584 65.0065 239.21Z" fill="white" fill-opacity="0.12"/>
<path fill-rule="evenodd" clip-rule="evenodd" d="M64.9403 243.176C59.1525 238.124 53.4324 232.991 47.7835 227.779C47.3574 227.385 46.7163 228.022 47.1424 228.414C52.7913 233.625 58.5114 238.755 64.3028 243.811C64.736 244.195 65.3771 243.56 64.9403 243.176Z" fill="white" fill-opacity="0.12"/>
<path fill-rule="evenodd" clip-rule="evenodd" d="M62.5997 243.603C56.3354 238.507 50.146 233.324 44.035 228.051C43.5982 227.674 42.9534 228.308 43.3937 228.689C49.5048 233.962 55.6942 239.145 61.9585 244.241C62.4059 244.604 63.0507 243.969 62.5997 243.603Z" fill="white" fill-opacity="0.12"/>
<path fill-rule="evenodd" clip-rule="evenodd" d="M59.9053 244.622C53.2082 238.905 46.4221 233.29 39.5505 227.786C39.103 227.426 38.4583 228.057 38.9093 228.42C45.781 233.928 52.5671 239.539 59.2641 245.26C59.7045 245.634 60.3491 244.999 59.9053 244.622Z" fill="white" fill-opacity="0.12"/>
<path fill-rule="evenodd" clip-rule="evenodd" d="M53.5299 242.494C47.7869 238.266 42.2577 233.772 36.9494 229.015C36.5163 228.628 35.8751 229.262 36.3083 229.653C41.6769 234.463 47.2664 239 53.0733 243.274C53.5421 243.616 53.9951 242.835 53.5299 242.494Z" fill="white" fill-opacity="0.12"/>
<path fill-rule="evenodd" clip-rule="evenodd" d="M47.8687 241.096C43.5181 237.811 39.1247 234.594 34.6779 231.44C34.2019 231.102 33.7489 231.886 34.2213 232.217C38.6646 235.37 43.0616 238.588 47.4122 241.872C47.8775 242.225 48.3268 241.441 47.8687 241.096Z" fill="white" fill-opacity="0.12"/>
<path fill-rule="evenodd" clip-rule="evenodd" d="M42.9537 239.901C40.4427 238.05 37.9353 236.2 35.4243 234.353C34.9555 234.007 34.5026 234.788 34.9678 235.129C37.4788 236.98 39.9898 238.831 42.4973 240.681C42.9661 241.023 43.4154 240.243 42.9537 239.901Z" fill="white" fill-opacity="0.12"/>
<path fill-rule="evenodd" clip-rule="evenodd" d="M39.4605 239.069C38.7179 238.705 38.0002 238.306 37.3111 237.851C36.6504 237.409 35.6343 236.864 35.3013 236.107C35.071 235.578 34.2879 236.035 34.5218 236.561C34.8477 237.303 35.7038 237.812 36.3467 238.275C37.1849 238.877 38.0766 239.393 39.0039 239.845C39.5227 240.102 39.9828 239.325 39.4605 239.069Z" fill="white" fill-opacity="0.12"/>
<path fill-rule="evenodd" clip-rule="evenodd" d="M103.272 236.983C101.644 234.402 99.6847 232.091 97.398 230.07C96.9648 229.686 96.3237 230.32 96.7605 230.708C98.9903 232.679 100.907 234.919 102.496 237.44C102.801 237.927 103.584 237.477 103.272 236.983Z" fill="white" fill-opacity="0.12"/>
<path fill-rule="evenodd" clip-rule="evenodd" d="M102.991 239.387C100.948 236.305 98.6311 233.45 96.0254 230.825C95.6172 230.413 94.976 231.047 95.3878 231.463C97.9367 234.031 100.215 236.822 102.212 239.84C102.531 240.324 103.314 239.874 102.991 239.387Z" fill="white" fill-opacity="0.12"/>
<path fill-rule="evenodd" clip-rule="evenodd" d="M102.057 242.952C98.7327 238.249 95.0206 233.864 90.913 229.82C90.5012 229.411 89.86 230.049 90.2754 230.458C94.3261 234.449 97.9958 238.762 101.277 243.405C101.611 243.874 102.394 243.425 102.057 242.952Z" fill="white" fill-opacity="0.12"/>
<path fill-rule="evenodd" clip-rule="evenodd" d="M105.337 214.464C105.101 219.467 104.815 224.466 104.519 229.465C104.462 229.433 104.398 229.412 104.32 229.405C97.8415 228.943 91.3595 228.595 84.8738 228.339C84.7779 228.236 84.6856 228.136 84.5897 228.037C84.3022 227.727 83.8929 227.979 83.8355 228.302C79.4299 228.135 75.0205 228.003 70.6112 227.932C70.028 227.924 70.0265 228.826 70.6097 228.834C75.2288 228.909 79.8514 229.048 84.4668 229.226C88.7122 233.75 92.9576 238.277 97.1995 242.801C97.5971 243.224 98.2382 242.59 97.8406 242.166C93.8082 237.87 89.7794 233.571 85.747 229.274C90.5473 229.471 95.3403 229.727 100.133 230.037C100.058 230.157 100.04 230.307 100.136 230.466C101.299 232.336 102.527 234.16 103.822 235.937C103.9 236.044 104.003 236.097 104.109 236.119C103.887 239.598 103.674 243.081 103.427 246.557C103.387 247.136 104.29 247.134 104.33 246.559C105.095 235.868 105.732 225.171 106.24 214.462C106.266 213.883 105.363 213.885 105.337 214.464ZM104.193 234.894C103.069 233.326 101.99 231.727 100.969 230.088C102.085 230.161 103.202 230.223 104.318 230.307C104.375 230.31 104.425 230.299 104.471 230.285C104.376 231.823 104.288 233.357 104.193 234.894Z" fill="white" fill-opacity="0.12"/>
<path fill-rule="evenodd" clip-rule="evenodd" d="M93.261 241.558C89.5304 237.529 85.7998 233.503 82.0727 229.474C81.6752 229.047 81.0376 229.685 81.4316 230.112L92.6199 242.196C93.0174 242.623 93.655 241.985 93.261 241.558Z" fill="white" fill-opacity="0.12"/>
<path fill-rule="evenodd" clip-rule="evenodd" d="M89.628 242.643C85.82 238.077 81.6665 233.841 77.1783 229.938C76.7415 229.558 76.1004 230.192 76.5407 230.573C81.029 234.476 85.1824 238.712 88.9903 243.277C89.3629 243.725 90.0006 243.088 89.628 242.643Z" fill="white" fill-opacity="0.12"/>
<path fill-rule="evenodd" clip-rule="evenodd" d="M83.2443 241.981C79.3538 237.848 75.2139 233.985 70.8247 230.384C70.3773 230.018 69.7362 230.653 70.1872 231.019C74.5764 234.616 78.7162 238.483 82.6066 242.616C83.0042 243.042 83.6418 242.404 83.2443 241.981Z" fill="white" fill-opacity="0.12"/>
<path fill-rule="evenodd" clip-rule="evenodd" d="M79.1825 241.493C76.304 238.272 73.3044 235.156 70.1908 232.157C69.7719 231.755 69.1308 232.39 69.5497 232.795C72.6633 235.794 75.6593 238.906 78.5414 242.132C78.9318 242.565 79.5694 241.924 79.1825 241.493Z" fill="white" fill-opacity="0.12"/>
<path fill-rule="evenodd" clip-rule="evenodd" d="M76.8083 242.391C75.2214 240.855 73.6344 239.318 72.0439 237.785C71.6249 237.379 70.9874 238.018 71.4028 238.419C72.9897 239.956 74.5803 241.493 76.1672 243.026C76.5862 243.431 77.2273 242.797 76.8083 242.391Z" fill="white" fill-opacity="0.12"/>
<path fill-rule="evenodd" clip-rule="evenodd" d="M74.0539 242.253C72.8429 241.331 71.7708 240.236 70.8768 239.006C70.5397 238.54 69.7531 238.989 70.0973 239.459C71.0907 240.824 72.255 242.008 73.5975 243.03C74.0592 243.382 74.5085 242.601 74.0539 242.253Z" fill="white" fill-opacity="0.12"/>
<path fill-rule="evenodd" clip-rule="evenodd" d="M102.88 216.026C92.9823 214.809 83.0338 214.093 73.0595 213.881C72.4763 213.869 72.4748 214.768 73.0579 214.783C83.0287 214.998 92.9772 215.714 102.879 216.931C103.455 217 103.449 216.094 102.88 216.026Z" fill="white" fill-opacity="0.12"/>
<path fill-rule="evenodd" clip-rule="evenodd" d="M199.867 172.718L199.838 190.089C185.81 189.693 171.779 189.3 157.751 188.904C143.385 188.5 128.953 187.73 114.599 188.743C114.023 188.785 114.018 189.687 114.598 189.645C128.951 188.629 143.384 189.402 157.75 189.806C171.781 190.202 185.809 190.595 199.837 190.991L199.775 227.505C199.773 228.666 201.58 228.669 201.582 227.508L201.674 172.721C201.676 171.56 199.869 171.553 199.867 172.718Z" fill="white" fill-opacity="0.12"/>
<path fill-rule="evenodd" clip-rule="evenodd" d="M208.435 174.944C208.471 174.88 208.5 174.809 208.5 174.713C208.48 173.698 208.532 172.682 208.651 171.67C208.719 171.095 207.816 171.101 207.748 171.669C207.629 172.681 207.577 173.692 207.597 174.712C207.6 174.847 207.653 174.95 207.731 175.021C207.475 175.155 207.279 175.393 207.279 175.769L207.112 274.753C207.11 275.914 208.916 275.917 208.918 274.756L209.085 175.772C209.085 175.304 208.787 175.037 208.435 174.944Z" fill="white" fill-opacity="0.12"/>
<path fill-rule="evenodd" clip-rule="evenodd" d="M213.977 171.814C213.89 175.119 213.678 178.414 213.36 181.705C213.328 181.695 213.292 181.695 213.26 181.688C213.475 178.62 213.573 175.549 213.557 172.474C213.554 171.895 212.651 171.89 212.654 172.472C212.67 175.565 212.572 178.65 212.353 181.732C212.346 181.817 212.367 181.885 212.396 181.945C212.268 182.087 212.182 182.279 212.181 182.527L212.039 267.485C212.037 268.646 213.843 268.649 213.845 267.488L213.987 182.623C214.108 182.552 214.201 182.438 214.219 182.271C214.57 178.792 214.793 175.309 214.884 171.815C214.895 171.233 213.992 171.231 213.977 171.814Z" fill="white" fill-opacity="0.12"/>
<path fill-rule="evenodd" clip-rule="evenodd" d="M216.796 170.741C215.321 170.323 213.888 170.011 212.352 170.009C210.56 170.006 208.439 170.72 206.723 170.007L206.727 167.699C206.729 166.537 204.922 166.534 204.921 167.696L204.876 194.16C204.876 194.451 204.989 194.668 205.156 194.814C204.85 194.931 204.608 195.193 204.607 195.616L204.473 275.545C204.471 276.707 206.277 276.71 206.279 275.548L206.413 195.619C206.414 195.327 206.3 195.111 206.134 194.965C206.44 194.852 206.682 194.586 206.682 194.163L206.721 170.962C207.855 171.312 208.936 171.15 210.195 171.032C212.404 170.826 214.42 170.999 216.552 171.607C217.114 171.767 217.354 170.901 216.796 170.741Z" fill="white" fill-opacity="0.12"/>
<path fill-rule="evenodd" clip-rule="evenodd" d="M218.531 258.897L218.519 265.647C218.517 266.808 220.324 266.811 220.326 265.65L220.337 258.9C220.339 257.738 218.533 257.732 218.531 258.897Z" fill="white" fill-opacity="0.12"/>
<path fill-rule="evenodd" clip-rule="evenodd" d="M221.977 257.844L221.963 265.915C221.962 267.076 223.768 267.079 223.77 265.918L223.783 257.847C223.785 256.686 221.979 256.679 221.977 257.844Z" fill="white" fill-opacity="0.12"/>
<path fill-rule="evenodd" clip-rule="evenodd" d="M225.706 257.715L225.696 263.14C225.695 264.302 227.501 264.305 227.503 263.143L227.512 257.718C227.514 256.556 225.708 256.553 225.706 257.715Z" fill="white" fill-opacity="0.12"/>
<path fill-rule="evenodd" clip-rule="evenodd" d="M210.068 161.034C209.986 161.009 209.904 160.98 209.808 160.98L169.124 160.913C167.961 160.911 167.958 162.715 169.121 162.716L209.3 162.783L209.295 165.983C209.293 167.144 211.1 167.147 211.102 165.986L211.108 161.884C211.106 161.245 210.559 160.967 210.068 161.034Z" fill="white" fill-opacity="0.12"/>
<path fill-rule="evenodd" clip-rule="evenodd" d="M262.855 182.655L235.147 182.609C234.859 182.608 234.645 182.718 234.499 182.884L234.524 167.878C234.526 166.998 233.491 166.787 232.989 167.237L218.061 167.212C218.072 167.159 218.093 167.116 218.093 167.056L218.097 164.673C218.098 164.463 218.027 164.307 217.931 164.172C217.946 163.714 217.662 163.241 217.065 163.24L212.293 163.232C211.13 163.23 211.127 165.034 212.29 165.036L216.29 165.043L216.287 167.053C216.287 167.113 216.308 167.156 216.319 167.209L207.912 167.195C206.75 167.193 206.746 168.997 207.909 168.999L232.716 169.04L232.659 203.207C232.657 204.368 234.463 204.371 234.465 203.21L234.497 184.134C234.643 184.298 234.856 184.412 235.144 184.412L262.852 184.458C264.015 184.46 264.022 182.657 262.855 182.655Z" fill="white" fill-opacity="0.12"/>
<path fill-rule="evenodd" clip-rule="evenodd" d="M230.021 205.056L230.004 215.51C226.58 212.869 222.907 210.64 218.977 208.83C218.455 208.591 217.991 209.364 218.521 209.607C222.468 211.424 226.159 213.66 229.597 216.322C229.746 216.436 229.888 216.425 230.006 216.355L230.003 218.279C228.824 217.351 227.04 216.563 226.393 216.178C223.509 214.462 220.478 213.037 217.347 211.835C216.803 211.624 216.567 212.497 217.104 212.704C219.542 213.642 221.919 214.715 224.21 215.972C224.867 216.332 229.014 218.455 229.997 219.462L229.988 224.532C229.964 224.497 229.942 224.461 229.907 224.429C226.231 221.426 222.185 219.062 217.757 217.339C217.214 217.129 216.977 217.998 217.518 218.209C221.793 219.871 225.718 222.16 229.266 225.064C229.525 225.277 229.849 225.146 229.988 224.93L229.975 232.635C229.868 232.507 229.726 232.397 229.506 232.358C226.118 231.723 222.905 230.653 219.828 229.096C218.795 228.572 217.875 230.126 218.916 230.653C222.124 232.278 225.486 233.434 229.023 234.097C229.446 234.176 229.781 233.984 229.973 233.701L229.948 248.721C229.946 249.882 231.752 249.885 231.754 248.724L231.828 205.059C231.83 203.898 230.023 203.895 230.021 205.056Z" fill="white" fill-opacity="0.12"/>
<path fill-rule="evenodd" clip-rule="evenodd" d="M197.44 255.047L49.2823 254.8C48.1195 254.798 48.1164 256.603 49.2792 256.605L197.437 256.852C198.604 256.853 198.607 255.049 197.44 255.047Z" fill="white" fill-opacity="0.12"/>
<path fill-rule="evenodd" clip-rule="evenodd" d="M230.717 201.984C226.158 198.369 221.598 194.75 217.038 191.134C216.139 190.419 214.85 191.685 215.759 192.407C220.319 196.026 224.879 199.641 229.439 203.257C230.341 203.972 231.627 202.703 230.717 201.984Z" fill="white" fill-opacity="0.12"/>
<path fill-rule="evenodd" clip-rule="evenodd" d="M227.666 238.677C225.387 238.308 223.137 237.824 220.908 237.228C219.785 236.927 219.302 238.663 220.425 238.967C222.654 239.563 224.904 240.047 227.179 240.416C228.32 240.599 228.814 238.864 227.666 238.677Z" fill="white" fill-opacity="0.12"/>
<path fill-rule="evenodd" clip-rule="evenodd" d="M228.182 243.34C228.169 242.36 226.602 242.062 226.408 243.095C226.308 243.628 226.182 244.125 226.018 244.643C225.875 245.087 226.073 245.421 226.379 245.602C226.376 247.569 226.347 249.537 226.266 251.5C226.218 252.661 228.024 252.661 228.072 251.503C228.183 248.783 228.22 246.06 228.182 243.34Z" fill="white" fill-opacity="0.12"/>
<path fill-rule="evenodd" clip-rule="evenodd" d="M193.318 175.849C179.51 177.535 165.6 176.94 151.724 177.091C137.777 177.241 123.85 178.149 109.997 179.763C109.428 179.829 109.419 180.731 109.995 180.665C123.849 179.051 137.776 178.147 151.723 177.993C165.599 177.838 179.505 178.437 193.316 176.751C193.885 176.681 193.894 175.779 193.318 175.849Z" fill="white" fill-opacity="0.12"/>
<path fill-rule="evenodd" clip-rule="evenodd" d="M196.375 182.385C182.226 182.5 168.076 182.619 153.926 182.734C140.122 182.846 126.225 182.474 112.528 184.444C111.955 184.525 112.195 185.395 112.765 185.314C126.668 183.313 140.806 183.742 154.817 183.626C168.668 183.511 182.523 183.399 196.374 183.284C196.953 183.285 196.958 182.383 196.375 182.385Z" fill="white" fill-opacity="0.12"/>
<path fill-rule="evenodd" clip-rule="evenodd" d="M195.718 195.681C169.106 196.67 142.439 194.669 115.865 196.88C115.289 196.929 115.284 197.83 115.863 197.782C142.434 195.571 169.105 197.572 195.716 196.583C196.292 196.563 196.297 195.661 195.718 195.681Z" fill="white" fill-opacity="0.12"/>
<path fill-rule="evenodd" clip-rule="evenodd" d="M191.957 203.923C165.895 203.592 139.833 203.4 113.771 203.345C113.191 203.344 113.186 204.247 113.77 204.247C139.835 204.302 165.897 204.494 191.955 204.825C192.538 204.833 192.54 203.931 191.957 203.923Z" fill="white" fill-opacity="0.12"/>
<path fill-rule="evenodd" clip-rule="evenodd" d="M194.194 213.835C167.231 212.401 140.213 212.072 113.221 212.855C112.642 212.872 112.637 213.773 113.22 213.757C140.211 212.974 167.23 213.3 194.193 214.737C194.776 214.766 194.777 213.868 194.194 213.835Z" fill="white" fill-opacity="0.12"/>
<path fill-rule="evenodd" clip-rule="evenodd" d="M191.69 222.935C178.21 222.071 164.702 221.736 151.199 221.973C144.627 222.09 138.058 222.502 131.487 222.462C124.834 222.423 118.174 222.131 111.521 221.939C110.938 221.924 110.94 222.822 111.519 222.841C118.172 223.033 124.829 223.321 131.486 223.364C138.057 223.404 144.626 222.988 151.197 222.875C164.704 222.638 178.212 222.973 191.688 223.837C192.268 223.874 192.266 222.972 191.69 222.935Z" fill="white" fill-opacity="0.12"/>
<path fill-rule="evenodd" clip-rule="evenodd" d="M192.588 230.94C179.548 230.581 166.509 230.225 153.469 229.866C140.722 229.515 127.939 228.908 115.19 229.437C114.61 229.461 114.605 230.363 115.188 230.339C127.937 229.806 140.72 230.417 153.468 230.768C166.507 231.128 179.547 231.483 192.586 231.842C193.169 231.857 193.171 230.955 192.588 230.94Z" fill="white" fill-opacity="0.12"/>
<path fill-rule="evenodd" clip-rule="evenodd" d="M191.376 243.323C179.927 242.434 168.463 241.836 156.989 241.494C157.242 238.93 157.378 236.36 157.386 233.782C157.387 233.203 156.483 233.198 156.482 233.78C156.475 236.351 156.339 238.911 156.089 241.467C149.905 241.29 143.722 241.205 137.538 241.184C137.609 241.114 137.659 241.021 137.666 240.897L138.079 232.429C138.108 231.85 137.205 231.848 137.175 232.427L136.763 240.896C136.756 241.02 136.798 241.109 136.859 241.18C135.881 241.178 134.906 241.184 133.928 241.182C134.003 241.111 134.064 241.015 134.075 240.891C134.27 238.953 134.43 237.01 134.55 235.065C134.587 234.486 133.684 234.488 133.647 235.063C133.526 237.009 133.367 238.951 133.171 240.89C133.16 241.017 133.199 241.113 133.26 241.184C126.528 241.198 119.796 241.293 113.065 241.502C112.485 241.519 112.48 242.421 113.063 242.404C127.377 241.963 141.693 241.962 156.002 242.369C155.999 242.419 155.991 242.472 155.988 242.522C155.923 243.097 156.826 243.095 156.891 242.524C156.895 242.481 156.898 242.438 156.902 242.396C168.405 242.738 179.897 243.336 191.374 244.225C191.954 244.268 191.952 243.367 191.376 243.323Z" fill="white" fill-opacity="0.12"/>
<path fill-rule="evenodd" clip-rule="evenodd" d="M184.347 233.434C184.289 235.728 184.229 238.022 184.171 240.315C184.156 240.898 185.059 240.899 185.075 240.317C185.132 238.023 185.193 235.729 185.25 233.436C185.262 232.853 184.362 232.852 184.347 233.434Z" fill="white" fill-opacity="0.12"/>
<path fill-rule="evenodd" clip-rule="evenodd" d="M172.125 233.148C172.097 235.204 171.876 237.228 171.464 239.244C171.349 239.808 172.217 240.055 172.335 239.487C172.769 237.392 173 235.291 173.032 233.153C173.033 232.571 172.133 232.566 172.125 233.148Z" fill="white" fill-opacity="0.12"/>
<path fill-rule="evenodd" clip-rule="evenodd" d="M167.209 233.8C167.081 235.841 166.872 237.876 166.562 239.899C166.476 240.467 167.343 240.714 167.433 240.139C167.753 238.037 167.981 235.925 168.112 233.798C168.149 233.223 167.246 233.221 167.209 233.8Z" fill="white" fill-opacity="0.12"/>
<path fill-rule="evenodd" clip-rule="evenodd" d="M163.47 234.06C163.45 233.481 162.546 233.476 162.567 234.058C162.648 236.377 162.506 238.671 162.122 240.964C162.028 241.532 162.895 241.778 162.992 241.207C163.391 238.832 163.555 236.46 163.47 234.06Z" fill="white" fill-opacity="0.12"/>
<path fill-rule="evenodd" clip-rule="evenodd" d="M150.771 233.375C150.718 235.139 150.662 236.904 150.609 238.669C150.59 239.248 151.493 239.249 151.512 238.67C151.565 236.906 151.617 235.141 151.674 233.376C151.693 232.798 150.789 232.796 150.771 233.375Z" fill="white" fill-opacity="0.12"/>
<path fill-rule="evenodd" clip-rule="evenodd" d="M146.37 233.767C146.307 233.195 145.404 233.187 145.467 233.766C145.677 235.715 145.656 237.657 145.368 239.599C145.285 240.167 146.152 240.414 146.239 239.842C146.537 237.815 146.59 235.806 146.37 233.767Z" fill="white" fill-opacity="0.12"/>
<path fill-rule="evenodd" clip-rule="evenodd" d="M142.272 233.104C142.177 232.532 141.305 232.772 141.4 233.344C141.749 235.461 141.621 237.549 141.038 239.614C140.88 240.175 141.751 240.414 141.908 239.854C142.538 237.625 142.648 235.388 142.272 233.104Z" fill="white" fill-opacity="0.12"/>
<path fill-rule="evenodd" clip-rule="evenodd" d="M128.954 233.486C128.645 235.292 128.34 237.103 128.031 238.91C127.934 239.478 128.805 239.724 128.902 239.153C129.211 237.342 129.516 235.535 129.825 233.725C129.922 233.157 129.051 232.914 128.954 233.486Z" fill="white" fill-opacity="0.12"/>
<path fill-rule="evenodd" clip-rule="evenodd" d="M124.663 233.856C124.461 235.667 124.262 237.477 124.064 239.288C123.999 239.863 124.902 239.861 124.967 239.289C125.166 237.479 125.368 235.668 125.566 233.857C125.631 233.282 124.724 233.284 124.663 233.856Z" fill="white" fill-opacity="0.12"/>
<path fill-rule="evenodd" clip-rule="evenodd" d="M122.394 232.797C122.349 232.226 121.446 232.217 121.491 232.796C121.693 235.321 121.657 237.828 121.386 240.345C121.325 240.92 122.228 240.918 122.289 240.346C122.56 237.829 122.596 235.322 122.394 232.797Z" fill="white" fill-opacity="0.12"/>
<path fill-rule="evenodd" clip-rule="evenodd" d="M118.379 233.313C118.151 235.521 117.924 237.733 117.696 239.941C117.638 240.517 118.541 240.515 118.599 239.943C118.827 237.735 119.054 235.523 119.282 233.315C119.34 232.739 118.437 232.741 118.379 233.313Z" fill="white" fill-opacity="0.12"/>
<path fill-rule="evenodd" clip-rule="evenodd" d="M115.145 232.132C114.804 234.102 114.619 236.08 114.602 238.075C114.597 238.657 115.5 238.659 115.505 238.077C115.519 236.159 115.686 234.263 116.016 232.371C116.113 231.807 115.246 231.564 115.145 232.132Z" fill="white" fill-opacity="0.12"/>
<path fill-rule="evenodd" clip-rule="evenodd" d="M178.329 233.686C178.191 235.628 178.056 237.566 177.917 239.509C177.877 240.087 178.781 240.085 178.821 239.51C178.956 237.568 179.094 235.629 179.229 233.687C179.272 233.109 178.369 233.107 178.329 233.686Z" fill="white" fill-opacity="0.12"/>
<path fill-rule="evenodd" clip-rule="evenodd" d="M190.291 233.969C190.313 235.915 190.221 237.853 190.015 239.792C189.953 240.367 190.857 240.365 190.918 239.793C191.12 237.858 191.213 235.92 191.194 233.97C191.188 233.391 190.285 233.39 190.291 233.969Z" fill="white" fill-opacity="0.12"/>
<path fill-rule="evenodd" clip-rule="evenodd" d="M217.327 172.475C217 177.008 216.981 181.571 216.846 186.113C216.827 186.695 217.73 186.693 217.749 186.114C217.888 181.573 217.903 177.01 218.231 172.476C218.274 171.897 217.371 171.899 217.327 172.475Z" fill="white" fill-opacity="0.12"/>
<path fill-rule="evenodd" clip-rule="evenodd" d="M215.056 172.609C215.111 176.227 215.041 179.845 214.85 183.46C214.82 184.042 215.724 184.04 215.753 183.461C215.94 179.847 216.01 176.232 215.96 172.61C215.95 172.031 215.047 172.026 215.056 172.609Z" fill="white" fill-opacity="0.12"/>
<path fill-rule="evenodd" clip-rule="evenodd" d="M211.387 172.204L211.248 178.954C211.236 179.533 212.139 179.534 212.151 178.955L212.29 172.205C212.302 171.627 211.399 171.625 211.387 172.204Z" fill="white" fill-opacity="0.12"/>
<path fill-rule="evenodd" clip-rule="evenodd" d="M210.3 174.27C209.717 174.269 209.715 175.171 210.298 175.172C210.881 175.173 210.883 174.271 210.3 174.27Z" fill="white" fill-opacity="0.12"/>
<path fill-rule="evenodd" clip-rule="evenodd" d="M209.056 172.996C209.009 173.393 208.966 173.791 208.922 174.185C208.857 174.764 209.761 174.758 209.826 174.187C209.869 173.789 209.916 173.395 209.959 172.997C210.024 172.422 209.121 172.424 209.056 172.996Z" fill="white" fill-opacity="0.12"/>
<path fill-rule="evenodd" clip-rule="evenodd" d="M224.924 200.686C223.823 199.847 222.719 199.007 221.614 198.167C221.152 197.815 220.7 198.599 221.158 198.944C222.262 199.784 223.363 200.623 224.468 201.463C224.929 201.816 225.382 201.035 224.924 200.686Z" fill="white" fill-opacity="0.12"/>
<path fill-rule="evenodd" clip-rule="evenodd" d="M228.751 206.434C226.318 204.499 223.885 202.559 221.453 200.627C221.002 200.268 220.357 200.902 220.812 201.262C223.244 203.197 225.677 205.133 228.113 207.072C228.557 207.428 229.205 206.794 228.751 206.434Z" fill="white" fill-opacity="0.12"/>
<path fill-rule="evenodd" clip-rule="evenodd" d="M228.32 208.852C225.817 206.65 223.153 204.664 220.325 202.891C219.832 202.582 219.375 203.362 219.869 203.668C222.629 205.399 225.232 207.338 227.682 209.487C228.116 209.871 228.76 209.237 228.32 208.852Z" fill="white" fill-opacity="0.12"/>
<path fill-rule="evenodd" clip-rule="evenodd" d="M229.661 212.655C226.33 209.972 222.767 207.665 218.944 205.745C218.425 205.485 217.969 206.262 218.487 206.522C222.239 208.406 225.753 210.656 229.023 213.289C229.471 213.652 230.115 213.021 229.661 212.655Z" fill="white" fill-opacity="0.12"/>
<path fill-rule="evenodd" clip-rule="evenodd" d="M229.334 219.961C225.995 217.488 222.368 215.546 218.466 214.123C217.919 213.923 217.682 214.793 218.223 214.993C222.064 216.394 225.596 218.311 228.878 220.738C229.346 221.087 229.799 220.303 229.334 219.961Z" fill="white" fill-opacity="0.12"/>
<path fill-rule="evenodd" clip-rule="evenodd" d="M228.746 224.791C225.453 222.552 221.929 220.774 218.179 219.443C217.632 219.247 217.392 220.117 217.936 220.313C221.621 221.622 225.057 223.372 228.289 225.568C228.769 225.899 229.222 225.118 228.746 224.791Z" fill="white" fill-opacity="0.12"/>
<path fill-rule="evenodd" clip-rule="evenodd" d="M227.816 227.698C225.038 225.669 222.129 223.854 219.084 222.251C218.569 221.98 218.113 222.757 218.628 223.027C221.673 224.63 224.582 226.446 227.359 228.475C227.828 228.816 228.281 228.036 227.816 227.698Z" fill="white" fill-opacity="0.12"/>
<path fill-rule="evenodd" clip-rule="evenodd" d="M228.241 230.278C225.496 228.377 222.611 226.729 219.58 225.324C219.058 225.082 218.594 225.859 219.124 226.101C222.155 227.509 225.036 229.158 227.785 231.055C228.265 231.386 228.717 230.606 228.241 230.278Z" fill="white" fill-opacity="0.12"/>
<path fill-rule="evenodd" clip-rule="evenodd" d="M171.626 33.3515C171.371 33.0173 171.116 32.6867 170.86 32.3525C170.512 31.8974 169.726 32.3471 170.08 32.8057C170.336 33.14 170.591 33.4705 170.847 33.8047C171.195 34.2598 171.981 33.8138 171.626 33.3515Z" fill="white" fill-opacity="0.12"/>
<path fill-rule="evenodd" clip-rule="evenodd" d="M171.683 45.8725C171.452 45.5134 171.222 45.1544 170.991 44.7954C170.679 44.3084 169.896 44.7581 170.212 45.2487C170.442 45.6077 170.673 45.9666 170.903 46.3256C171.215 46.8126 171.998 46.363 171.683 45.8725Z" fill="white" fill-opacity="0.12"/>
<path fill-rule="evenodd" clip-rule="evenodd" d="M196.265 170.762C186.61 170.572 176.956 170.559 167.305 170.682C167.556 166.875 167.958 163.087 168.497 159.31C168.533 159.236 168.544 159.15 168.533 159.062C168.584 158.721 168.627 158.376 168.677 158.036C168.756 157.517 168.142 157.289 167.878 157.676C167.775 157.466 167.672 157.26 167.566 157.05C168.081 157.257 168.839 156.995 168.904 156.261C169.017 155.007 169.122 153.754 169.231 152.501C169.426 152.352 169.473 152.018 169.292 151.812C169.735 146.735 170.145 141.651 170.52 136.57C170.936 136.61 171.225 135.985 170.788 135.729C170.724 135.693 170.653 135.665 170.589 135.626C171.804 119.034 172.686 102.418 173.19 85.7863C173.45 77.3108 173.61 68.8316 173.685 60.3522C173.77 60.395 173.852 60.4306 173.937 60.4733C174.456 60.7299 174.916 59.953 174.393 59.6929C174.155 59.5753 173.924 59.4756 173.69 59.3687C173.703 57.6323 173.706 55.8995 173.713 54.1631C174.076 54.1353 174.379 53.7026 174.023 53.4286C173.924 53.3503 173.817 53.2827 173.714 53.2079C173.716 52.448 173.724 51.6882 173.725 50.9283C173.729 46.6388 173.697 42.3529 173.651 38.0634C173.733 38.1168 173.818 38.1666 173.899 38.2271C174.372 38.5688 174.825 37.7883 174.356 37.4502C174.122 37.2794 173.88 37.1262 173.638 36.9803C173.626 35.9363 173.617 34.8888 173.605 33.8448C173.632 32.1759 173.66 30.5106 173.681 28.8417C173.848 28.8882 174.018 28.9347 174.185 28.9846C174.743 29.1489 174.983 28.2794 174.429 28.1151C174.183 28.0437 173.942 27.9758 173.696 27.9079C173.729 25.5359 173.768 23.164 173.794 20.7921C174.284 20.9811 174.767 21.2092 175.247 21.487C175.751 21.7754 176.208 20.9986 175.703 20.7101C175.078 20.3504 174.446 20.0688 173.802 19.844C173.811 19.212 173.819 18.58 173.827 17.9479C174.556 17.9988 175.233 17.0767 174.558 16.4399C174.349 16.2407 174.132 16.0735 173.916 15.924C173.916 15.9134 173.912 15.9063 173.912 15.8992C173.82 15.4872 173.43 15.2699 173.042 15.2337C172.896 15.2228 172.754 15.2083 172.608 15.1974C172.558 15.1938 172.512 15.2151 172.462 15.2221C172.018 15.09 171.567 15.0076 171.104 14.9749C170.483 14.6862 169.832 14.4791 169.125 14.4566C168.129 14.423 167.19 14.7517 166.307 15.1905C165.742 15.1967 165.18 15.1709 164.622 15.0706C163.484 14.8698 162.994 16.6054 164.139 16.8097C166.311 17.1932 169.207 16.2429 171.468 16.7793C171.41 17.2834 171.452 17.8019 171.476 18.3453C171.178 17.9506 170.858 17.5737 170.507 17.2215C170.099 16.809 169.457 17.447 169.869 17.8596C170.302 18.2971 170.671 18.7771 171.015 19.2784C170.884 19.2675 170.752 19.2673 170.621 19.26C170.401 18.9684 170.17 18.6875 169.961 18.3889C169.627 17.9196 168.844 18.3693 169.181 18.8421C169.281 18.9807 169.387 19.1122 169.49 19.2473C167.562 19.3152 165.617 19.7877 163.716 20.5409C163.183 20.7531 163.412 21.627 163.953 21.4113C166.003 20.6015 168.091 20.0973 170.161 20.1327C170.611 20.7087 171.076 21.2705 171.566 21.8146C171.569 21.9744 171.573 22.1342 171.576 22.294C171.05 21.7179 170.536 21.1311 170.05 20.5195C169.691 20.0644 169.054 20.7061 169.408 21.1577C170.097 22.0252 170.835 22.8467 171.602 23.6398C171.609 23.8351 171.612 24.0304 171.615 24.2257C171.108 23.6141 170.586 23.0203 170.036 22.4441C169.635 22.0245 168.994 22.6625 169.395 23.0786C170.197 23.918 170.942 24.8034 171.648 25.7207C171.655 25.987 171.662 26.2569 171.668 26.5268C171.104 25.805 170.515 25.101 169.872 24.4465C169.464 24.0304 168.823 24.6684 169.231 25.081C169.938 25.7995 170.576 26.5676 171.18 27.3711C170.909 27.3245 170.639 27.2884 170.369 27.2525C170.224 27.1102 170.049 27.1099 169.91 27.1949C167.557 26.9318 165.203 27.0629 162.947 27.8368C162.988 24.5736 163.015 21.3139 163.027 18.0506C163.081 17.614 163.128 17.1738 163.186 16.7407C163.207 16.5703 163.14 16.46 163.041 16.3888C163.041 16.3391 163.041 16.2894 163.041 16.2397C163.043 15.0821 161.236 15.0755 161.234 16.2367C161.228 20.3592 161.185 24.4783 161.132 28.5972C161.1 28.6113 161.071 28.6255 161.039 28.6396C160.662 28.8378 160.807 29.3068 161.116 29.4351C161.08 32.0201 161.036 34.6016 160.982 37.183C160.797 37.3318 160.822 37.5661 160.971 37.7368C160.867 42.5125 160.727 47.2918 160.559 52.0675C160.253 52.1912 159.947 52.3186 159.645 52.4637C159.121 52.7149 159.579 53.4933 160.098 53.242C160.237 53.1748 160.379 53.1147 160.522 53.0546C160.455 54.8868 160.384 56.7153 160.306 58.5475C159.865 58.6781 159.431 58.8264 159.008 59.0246C158.481 59.2687 158.938 60.0472 159.462 59.8031C159.721 59.6828 159.992 59.5838 160.266 59.4919C159.962 66.6784 159.587 73.8647 159.141 81.0439C158.956 81.1501 158.771 81.2527 158.597 81.3767C158.127 81.7097 158.577 82.4952 159.054 82.1551C159.061 82.1516 159.068 82.1445 159.076 82.141C158.886 85.1518 158.681 88.159 158.463 91.1662C158.189 91.3362 158.231 91.6559 158.416 91.8408C158.012 97.4079 157.561 102.968 157.072 108.531C156.912 108.662 156.911 108.904 157.025 109.085C156.804 111.585 156.575 114.084 156.333 116.58C156.258 116.594 156.183 116.605 156.109 116.622C155.582 116.749 155.759 117.506 156.242 117.496C155.682 123.318 155.074 129.137 154.414 134.949C154.311 134.974 154.204 134.998 154.104 135.027C153.556 135.168 153.772 135.995 154.306 135.897C153.753 140.739 153.173 145.578 152.553 150.41C152.29 150.537 152.033 150.675 151.788 150.835C151.304 151.15 151.754 151.932 152.242 151.613C152.295 151.578 152.355 151.549 152.412 151.518C151.569 158.046 150.669 164.571 149.705 171.086C146.548 171.187 143.39 171.313 140.235 171.45C140.239 171.325 140.246 171.201 140.25 171.077C140.325 171.006 140.375 170.903 140.368 170.761C140.347 170.221 140.341 169.678 140.324 169.135C140.376 167.796 140.432 166.457 140.484 165.122C140.669 165.194 140.85 165.265 141.031 165.351C141.554 165.597 142.014 164.82 141.488 164.574C141.168 164.424 140.845 164.299 140.521 164.178C140.685 160.049 140.855 155.919 141.026 151.786C141.399 152.007 141.768 152.246 142.12 152.527C142.571 152.886 143.215 152.251 142.761 151.889C142.221 151.458 141.649 151.109 141.066 150.792C141.307 144.983 141.552 139.171 141.786 133.358C141.906 133.462 142.034 133.561 142.144 133.679C142.545 134.102 143.183 133.464 142.785 133.041C142.505 132.742 142.178 132.493 141.83 132.261C142.049 126.715 142.251 121.169 142.441 115.619C142.683 115.794 142.914 115.975 143.119 116.185C143.528 116.598 144.165 115.963 143.757 115.551C143.377 115.163 142.937 114.85 142.471 114.561C142.614 110.244 142.742 105.922 142.856 101.605C142.937 100.011 143.025 98.4163 143.092 96.8185C143.283 96.9395 143.479 97.0535 143.671 97.1888C144.143 97.5304 144.596 96.75 144.127 96.4119C143.797 96.1734 143.466 95.9634 143.132 95.7747C143.251 92.9093 143.352 90.0439 143.417 87.1784C144.007 87.4386 144.59 87.7237 145.158 88.0406C145.666 88.322 146.126 87.5452 145.615 87.2638C144.904 86.872 144.172 86.5228 143.429 86.2091C143.503 82.5625 143.534 78.9157 143.494 75.2689C143.8 75.4114 144.091 75.5576 144.372 75.7107C144.883 75.9886 145.34 75.2116 144.828 74.9338C144.398 74.6987 143.94 74.4849 143.471 74.2782C143.449 72.7016 143.426 71.1249 143.376 69.5518C143.372 69.4346 143.326 69.3458 143.266 69.2782C143.266 69.1291 143.266 68.9764 143.267 68.8308C143.526 68.9768 143.778 69.1405 144.02 69.3327C144.922 70.0444 146.211 68.7789 145.298 68.0601C143.104 66.3272 140.583 66.0353 138.004 66.2334C136.479 66.1386 134.946 66.3278 133.626 66.8618C133.196 66.9357 132.769 67.0094 132.342 67.0762C131.78 67.1676 131.612 67.6325 131.722 68.0623C131.568 68.3497 131.849 68.684 132.169 68.6774C132.346 68.7913 132.563 68.8556 132.819 68.817C135.547 68.3777 138.81 67.474 141.596 68.1675C141.518 68.2917 141.457 68.4337 141.457 68.6183C141.46 69.1225 141.455 69.6267 141.454 70.131C141.075 69.6368 140.695 69.1426 140.319 68.6484C139.971 68.1933 139.185 68.6394 139.539 69.1016C140.178 69.9335 140.813 70.7655 141.452 71.5975C141.448 71.9632 141.451 72.3325 141.447 72.7018C140.836 71.8166 140.208 70.9456 139.545 70.0958C139.186 69.6407 138.549 70.2823 138.907 70.7339C139.574 71.5837 140.199 72.4618 140.805 73.3576C137.582 72.4539 133.972 72.2881 130.955 73.43C131.047 71.6867 131.135 69.9398 131.227 68.1964C131.286 67.0354 129.479 67.0359 129.421 68.1934C129.314 70.2421 129.207 72.2943 129.101 74.343C128.837 74.5059 128.581 74.6866 128.335 74.8815C127.88 75.2429 128.522 75.8796 128.971 75.5217C128.992 75.504 129.017 75.4898 129.039 75.4756C128.862 78.8558 128.686 82.2324 128.513 85.6125C127.929 85.956 127.452 86.3955 127.167 86.9845C126.917 87.506 127.695 87.9654 127.945 87.4402C128.066 87.1883 128.24 86.9685 128.451 86.7736C128.3 89.6815 128.149 92.593 127.995 95.5009C127.54 95.699 127.091 95.9219 126.657 96.1982C126.166 96.5063 126.616 97.2882 127.111 96.9765C127.385 96.803 127.662 96.6508 127.943 96.5128C127.65 102.169 127.356 107.825 127.062 113.481C126.727 113.637 126.403 113.81 126.093 114.016C125.613 114.334 126.063 115.12 126.547 114.794C126.697 114.695 126.853 114.613 127.006 114.532C126.907 116.463 126.804 118.395 126.705 120.326C126.518 123.881 126.37 127.445 126.228 131.021C125.2 131.389 124.339 131.984 123.871 132.966C123.625 133.488 124.399 133.947 124.649 133.422C124.956 132.773 125.508 132.326 126.188 132.008C125.976 137.369 125.775 142.745 125.503 148.11C125.452 148.724 125.412 149.346 125.361 149.96C124.365 150.331 123.471 150.866 122.794 151.649C122.417 152.086 123.052 152.729 123.43 152.29C123.932 151.708 124.566 151.279 125.278 150.961C124.911 155.385 124.516 159.805 124.114 164.222C123.676 164.462 123.238 164.724 122.804 165.043C122.341 165.38 122.788 166.165 123.261 165.822C123.51 165.637 123.763 165.485 124.016 165.329C123.889 166.686 123.77 168.038 123.643 169.394C123.628 169.54 123.674 169.647 123.753 169.718C123.648 170.588 123.533 171.461 123.417 172.331C118.268 172.649 113.118 173.01 107.976 173.42C107.737 173.441 107.563 173.544 107.42 173.675C106.92 173.209 105.877 173.413 105.876 174.301L105.818 208.84C105.816 210.001 107.622 210.004 107.624 208.843L107.681 175.191C107.77 175.213 107.862 175.238 107.972 175.227C113.09 174.82 118.211 174.474 123.336 174.156C123.669 174.877 124.853 175.053 124.99 174.109C124.993 174.091 124.993 174.07 124.997 174.052C133.365 173.551 141.733 173.149 150.111 172.883C150.111 172.894 150.108 172.901 150.108 172.911C150.029 173.479 150.896 173.726 150.979 173.154C150.993 173.055 151.007 172.952 151.022 172.852C166.086 172.384 181.163 172.292 196.237 172.59C197.424 172.585 197.427 170.781 196.265 170.762ZM130.936 74.378C134.074 73.041 138.11 73.3602 141.472 74.4595C141.471 75.262 141.459 76.0645 141.454 76.8634C140.886 76.099 140.318 75.3382 139.754 74.5738C139.41 74.1151 138.627 74.5613 138.975 75.0271C139.709 76.0119 140.444 77.0002 141.174 77.9885C141.249 78.0881 141.345 78.1416 141.448 78.163C141.447 78.4719 141.443 78.7809 141.439 79.0863C140.719 78.1015 139.999 77.1131 139.254 76.1495C138.899 75.6909 138.261 76.3326 138.613 76.7841C139.578 78.0286 140.514 79.2943 141.43 80.5741C141.425 81.1067 141.421 81.6357 141.416 82.1683C140.813 81.3364 140.153 80.5471 139.418 79.8179C139.006 79.4089 138.365 80.0434 138.781 80.456C139.789 81.4555 140.658 82.5612 141.407 83.7627C141.402 84.242 141.401 84.7214 141.394 85.2008C140.844 84.4542 140.297 83.7076 139.747 82.9575C139.407 82.4953 138.62 82.9414 138.968 83.4107C139.39 83.9866 139.816 84.5625 140.238 85.1385C138.585 84.7132 136.882 84.4689 135.147 84.4661C133.888 84.464 132.028 84.4714 130.392 84.8629C130.572 81.3727 130.756 77.8753 130.936 74.378ZM130.355 85.7861C132.425 85.193 135.209 85.3219 136.625 85.4308C138.161 85.5505 139.646 85.8547 141.086 86.301C141.182 86.4325 141.277 86.5606 141.373 86.6921C141.361 87.6047 141.342 88.5173 141.33 89.4334C140.734 88.5944 140.138 87.7518 139.542 86.9127C139.208 86.4435 138.425 86.8931 138.762 87.3659C139.61 88.5604 140.458 89.7585 141.306 90.953C141.302 91.2619 141.294 91.5673 141.29 91.8763C140.864 91.2435 140.435 90.6108 140.009 89.9815C139.687 89.5016 138.903 89.9513 139.23 90.4347C139.765 91.2275 140.305 92.0238 140.84 92.8165C140.95 92.9801 141.117 93.03 141.274 93.0125C141.262 93.6481 141.257 94.2837 141.242 94.9193C141.231 94.9157 141.217 94.9121 141.207 94.9086C140.476 93.7888 139.749 92.6691 139.018 91.5529C138.702 91.0695 137.919 91.5191 138.239 92.0061C138.792 92.8557 139.345 93.7053 139.898 94.5513C138.409 94.2292 136.845 94.1627 135.18 94.2167C133.395 94.2777 131.624 94.3884 129.934 94.8153C130.082 91.8079 130.225 88.797 130.355 85.7861ZM129.89 95.7633C131.587 95.2903 133.372 95.1831 135.179 95.1222C137.131 95.058 138.93 95.1605 140.64 95.6888C140.828 95.9768 141.012 96.2612 141.2 96.5491C141.189 97.0888 141.17 97.6249 141.158 98.1646C140.605 97.3292 140.066 96.4833 139.559 95.6161C139.268 95.1149 138.485 95.5681 138.779 96.0692C139.503 97.3168 140.287 98.5253 141.117 99.7092C141.113 99.9293 141.102 100.15 141.098 100.373C140.52 99.5271 139.927 98.6917 139.299 97.8775C138.944 97.4188 138.31 98.0605 138.662 98.5156C139.513 99.6178 140.304 100.759 141.052 101.928C141.037 102.422 141.022 102.912 141.011 103.406C140.362 102.318 139.695 101.244 138.986 100.196C138.663 99.7193 137.88 100.169 138.206 100.649C139.185 102.096 140.104 103.578 140.965 105.096C140.958 105.337 140.95 105.582 140.943 105.824C140.279 104.867 139.634 103.897 139.024 102.905C138.719 102.411 137.939 102.861 138.244 103.358C139.078 104.713 139.972 106.024 140.901 107.311C140.89 107.798 140.871 108.284 140.86 108.774C140.735 108.611 140.618 108.454 140.519 108.308C139.845 107.306 139.15 106.318 138.44 105.344C138.103 104.878 137.317 105.327 137.661 105.797C138.26 106.618 138.849 107.45 139.42 108.289C139.708 108.708 139.988 109.131 140.268 109.558C140.378 109.729 140.63 110.017 140.818 110.29C140.803 110.866 140.784 111.441 140.769 112.016C140.265 111.245 139.719 110.505 139.126 109.794C138.754 109.346 138.116 109.988 138.485 110.429C139.33 111.445 140.071 112.526 140.723 113.667C140.723 113.685 140.723 113.703 140.72 113.717C139.042 113.103 137.187 112.82 135.53 112.639C133.45 112.416 131.092 112.319 128.958 112.824C129.295 107.139 129.607 101.451 129.89 95.7633ZM138.599 167.598C138.106 166.862 137.616 166.123 137.123 165.387C136.804 164.907 136.021 165.356 136.344 165.84C137.074 166.938 137.805 168.033 138.539 169.132C138.528 169.419 138.517 169.703 138.506 169.987C138.013 169.095 137.52 168.207 137.028 167.318C136.747 166.81 135.964 167.263 136.248 167.771C136.915 168.976 137.581 170.178 138.248 171.382C138.279 171.443 138.322 171.486 138.365 171.521C138.201 171.528 138.034 171.538 137.87 171.545C137.36 170.696 136.853 169.85 136.345 169C136.048 168.503 135.265 168.952 135.566 169.453C135.995 170.168 136.421 170.879 136.85 171.593C132.991 171.775 129.132 171.978 125.27 172.21C125.616 169.59 125.916 166.959 126.173 164.321C128.019 163.681 129.961 163.553 132.105 163.646C133.485 163.705 134.85 163.803 136.194 163.997C136.205 164.018 136.205 164.036 136.222 164.057C137.031 165.174 137.808 166.311 138.556 167.47C138.571 167.495 138.592 167.505 138.61 167.523C138.602 167.545 138.599 167.573 138.599 167.598ZM138.662 166.036C138.25 165.421 137.835 164.806 137.406 164.201C137.847 164.291 138.288 164.38 138.721 164.502C138.703 165.013 138.68 165.524 138.662 166.036ZM139.137 154.336C138.58 153.416 137.998 152.513 137.385 151.631C137.055 151.158 136.272 151.608 136.605 152.084C137.254 153.019 137.871 153.975 138.456 154.949C137.782 154.1 137.126 153.239 136.437 152.404C136.068 151.956 135.431 152.594 135.8 153.038C136.896 154.375 137.964 155.737 139.025 157.106C138.985 158.107 138.944 159.112 138.903 160.113C138.364 159.288 137.821 158.46 137.282 157.632C136.966 157.148 136.183 157.598 136.503 158.085C137.283 159.276 138.063 160.47 138.84 161.661C138.825 162.045 138.81 162.424 138.795 162.808C138.245 162.005 137.731 161.18 137.281 160.316C137.012 159.801 136.232 160.254 136.502 160.773C136.987 161.708 137.551 162.593 138.151 163.453C136.188 162.999 134.172 162.822 132.107 162.736C129.998 162.648 128.085 162.751 126.263 163.309C126.662 159.006 126.957 154.689 127.195 150.364C129.006 149.994 130.994 150.012 132.573 149.968C134.88 149.905 137.184 150.111 139.285 150.91C139.229 152.057 139.185 153.196 139.137 154.336ZM139.952 134.517C139.463 133.912 138.976 133.308 138.487 132.703C138.53 132.529 138.491 132.33 138.303 132.202C138.079 132.049 137.805 132.02 137.581 132.19C137.332 132.378 137.288 132.651 137.487 132.9C138.254 133.846 139.017 134.795 139.783 135.741C139.819 135.784 139.858 135.809 139.893 135.834C139.878 136.16 139.867 136.484 139.852 136.81C139.164 135.843 138.447 134.894 137.695 133.977C137.326 133.525 136.692 134.167 137.054 134.611C137.796 135.518 138.502 136.453 139.179 137.409C139.346 137.647 139.627 137.648 139.823 137.535C139.763 138.994 139.701 140.45 139.645 141.913C138.666 140.544 137.69 139.175 136.711 137.806C136.377 137.337 135.591 137.787 135.931 138.26C136.996 139.753 138.063 141.246 139.131 142.739C139.252 142.91 139.437 142.956 139.604 142.924C139.578 143.574 139.552 144.22 139.522 144.867L138.004 142.879C137.656 142.424 136.869 142.87 137.224 143.332C137.813 144.1 138.399 144.872 138.988 145.64C139.119 145.81 139.311 145.853 139.482 145.818C139.43 147.047 139.382 148.272 139.33 149.5C138.702 148.675 138.074 147.85 137.421 147.043C137.055 146.592 136.421 147.23 136.78 147.681C137.315 148.343 137.826 149.025 138.344 149.697C136.5 149.187 134.548 149.016 132.556 149.07C130.974 149.11 129.039 149.139 127.229 149.473C127.548 143.472 127.772 137.465 128.02 131.475C129.834 131.183 131.91 131.339 133.201 131.391C135.125 131.465 137.891 131.53 140.034 132.347C140.012 133.071 139.978 133.792 139.952 134.517ZM137.815 126.136C137.528 125.632 136.748 126.085 137.032 126.59C137.94 128.189 138.886 129.76 139.858 131.321C137.459 130.535 134.543 130.499 132.378 130.47C131.19 130.454 129.586 130.391 128.064 130.591C128.183 127.74 128.308 124.892 128.455 122.052L128.834 114.734C128.852 114.414 128.874 114.091 128.896 113.772C130.771 113.274 132.844 113.324 134.725 113.469C136.545 113.61 138.792 113.877 140.686 114.64C140.66 115.464 140.623 116.291 140.597 117.115C140.136 116.361 139.675 115.604 139.214 114.851C138.912 114.356 138.129 114.806 138.434 115.304C139.044 116.306 139.658 117.305 140.268 118.307C140.338 118.428 140.438 118.489 140.548 118.51C140.533 118.901 140.518 119.295 140.503 119.685C139.908 118.722 139.312 117.755 138.72 116.788C138.415 116.294 137.632 116.748 137.94 117.242C138.724 118.511 139.508 119.783 140.291 121.056C140.334 121.127 140.391 121.173 140.451 121.209C140.429 121.819 140.406 122.43 140.384 123.041C139.661 121.829 138.905 120.638 138.111 119.472C137.784 118.996 137.001 119.445 137.331 119.925C138.218 121.23 139.062 122.563 139.867 123.921C139.984 124.12 140.176 124.163 140.347 124.12C140.279 126.094 140.205 128.065 140.13 130.039C139.336 128.745 138.56 127.451 137.815 126.136ZM171.851 61.6772C171.355 60.8064 170.844 59.9427 170.312 59.0931C170.646 59.1754 170.973 59.2753 171.3 59.3824C171.492 59.7023 171.683 60.0222 171.867 60.3492C171.863 60.793 171.855 61.2369 171.851 61.6772ZM162.942 28.7777C165.201 27.9328 167.566 27.8018 169.927 28.0827C170.534 28.8081 171.137 29.5334 171.744 30.2553C171.75 30.5784 171.753 30.898 171.76 31.2211C171.391 30.8015 171.011 30.389 170.62 29.9836C170.216 29.5674 169.578 30.202 169.983 30.6182C170.611 31.269 171.207 31.9482 171.782 32.6451C171.802 33.7707 171.821 34.9 171.834 36.0292C171.411 35.5669 170.985 35.1046 170.563 34.6387C170.169 34.2084 169.531 34.8464 169.925 35.2768C170.064 35.4297 170.206 35.5826 170.344 35.7355C167.881 35.2414 165.298 35.6135 162.818 36.4474C162.869 33.8944 162.905 31.3378 162.942 28.7777ZM162.792 37.4025C165.656 36.381 168.676 35.9848 171.473 36.9766L171.537 37.0478C171.633 37.151 171.743 37.1902 171.849 37.1868C171.852 37.6165 171.855 38.0461 171.858 38.4757C171.585 38.138 171.315 37.8002 171.02 37.4837C170.626 37.0569 169.985 37.695 170.383 38.1218C170.926 38.7086 171.412 39.3415 171.87 39.9956C171.873 40.3578 171.876 40.72 171.878 41.0857C171.36 40.4315 170.917 39.7241 170.559 38.9566C170.315 38.4306 169.535 38.8874 169.78 39.4097C170.311 40.5469 171.024 41.5672 171.89 42.4741C171.893 42.9428 171.896 43.4115 171.902 43.8803C171.526 43.2227 171.136 42.5758 170.707 41.9537C170.381 41.4774 169.594 41.927 169.928 42.4069C170.555 43.317 171.123 44.2625 171.63 45.2434C171.701 45.3784 171.804 45.4425 171.914 45.464C171.917 45.7978 171.92 46.1315 171.923 46.4653C171.925 47.1649 171.92 47.8644 171.923 48.5639C171.465 47.8281 170.99 47.103 170.476 46.4061C170.135 45.944 169.352 46.39 169.696 46.8593C170.477 47.9188 171.189 49.0243 171.838 50.1688C171.863 50.2079 171.892 50.2328 171.92 50.2612C171.92 50.4885 171.919 50.7122 171.919 50.9359C171.536 50.3494 171.149 49.7628 170.766 49.1763C170.447 48.6929 169.664 49.1425 169.987 49.6295C170.501 50.4115 171.012 51.1936 171.526 51.9756C168.669 50.721 165.433 50.6232 162.402 51.4527C162.556 46.7693 162.692 42.0859 162.792 37.4025ZM162.361 52.3865C165.528 51.4543 169.005 51.5702 171.915 53.141C171.914 53.9115 171.909 54.6785 171.904 55.449C171.365 54.5639 170.826 53.6754 170.287 52.7903C169.986 52.2962 169.203 52.7459 169.508 53.2435C170.302 54.5515 171.1 55.8596 171.894 57.1712C171.89 57.647 171.889 58.1229 171.888 58.5987C171.289 57.6141 170.661 56.6401 169.991 55.6944C169.657 55.2251 168.874 55.6748 169.211 56.1476C169.697 56.8302 170.155 57.527 170.601 58.2308C169.468 57.9378 168.294 57.7831 166.993 57.8342C165.389 57.899 163.739 57.914 162.138 58.1492C162.22 56.2283 162.291 54.3074 162.361 52.3865ZM162.101 59.0475C163.716 58.7945 165.405 58.8009 166.991 58.7361C167.888 58.7021 168.716 58.778 169.516 58.9249C169.395 59.0526 169.345 59.2371 169.465 59.4326C170.299 60.7656 171.079 62.1305 171.827 63.5095C171.822 63.9462 171.814 64.3829 171.81 64.8232C171.254 63.8139 170.679 62.8115 170.076 61.8269C169.775 61.3328 168.992 61.7825 169.297 62.2802C170.18 63.7233 171.002 65.1983 171.786 66.6945C171.778 67.2946 171.769 67.8947 171.761 68.4983C171.191 67.3646 170.545 66.2734 169.797 65.2353C169.463 64.7661 168.677 65.2157 169.017 65.6885C170.11 67.2101 171.021 68.8344 171.733 70.5685C171.725 71.1472 171.72 71.7296 171.709 72.3119C170.961 70.9649 170.195 69.6284 169.408 68.3062C169.11 67.8086 168.33 68.2582 168.628 68.7594C169.674 70.5117 170.685 72.2888 171.66 74.0801C171.645 74.5204 171.63 74.9571 171.615 75.3974C171.09 74.4875 170.572 73.5741 170.026 72.6784C169.725 72.1843 168.942 72.634 169.247 73.1316C170.044 74.4361 170.807 75.7547 171.558 77.0876C171.544 77.5066 171.529 77.922 171.514 78.341C171.489 78.3019 171.464 78.2627 171.439 78.2236C171.482 78.007 171.383 77.769 171.138 77.7011C170.84 77.1822 170.546 76.6597 170.269 76.1266C170.003 75.6113 169.224 76.0646 169.49 76.5799C170.089 77.7385 170.752 78.8652 171.454 79.9636C171.447 80.166 171.439 80.3647 171.435 80.5636C171.134 80.0518 170.832 79.5365 170.495 79.0423C170.169 78.566 169.386 79.0156 169.716 79.4955C170.33 80.3914 170.861 81.3333 171.361 82.2893C171.077 82.1219 170.775 81.9651 170.469 81.8084C170.455 81.78 170.441 81.755 170.427 81.7266C170.31 81.4956 170.097 81.4634 169.912 81.5376C167.186 80.2654 163.824 79.5532 161.006 80.28C161.437 73.2073 161.805 66.131 162.101 59.0475ZM160.255 91.4569C161.365 91.1925 162.531 91.1944 163.683 91.1395C165.248 91.064 167.183 90.6873 168.633 91.4709C169.144 91.7487 169.601 90.9717 169.089 90.6939C167.43 89.7928 165.502 90.1518 163.685 90.2376C162.543 90.2925 161.412 90.3083 160.32 90.5266C160.542 87.4342 160.747 84.3418 160.94 81.2457C163.705 80.4017 167.107 81.1601 169.789 82.4713C170.278 83.4344 170.764 84.401 171.253 85.3641C171.246 85.5062 171.242 85.6482 171.234 85.7902C170.93 85.2287 170.625 84.6706 170.32 84.1126C170.043 83.6008 169.26 84.0541 169.54 84.5659C170.083 85.5575 170.621 86.5526 171.164 87.5478C171.149 87.949 171.131 88.3467 171.116 88.7479C170.949 88.4316 170.786 88.1153 170.619 87.799C170.35 87.2837 169.571 87.7404 169.84 88.2522C170.12 88.7888 170.403 89.3291 170.683 89.8657C170.772 90.0363 170.918 90.0933 171.06 90.0829C171.045 90.477 171.027 90.8747 171.012 91.2688C170.37 90.1208 169.711 88.9835 169.005 87.8709C168.693 87.3839 167.91 87.8335 168.225 88.3241C169.194 89.849 170.098 91.4094 170.941 93.0051C170.912 93.7792 170.871 94.5532 170.842 95.3272C170.374 94.4387 169.945 93.5289 169.573 92.5909C169.361 92.0579 168.489 92.2873 168.701 92.831C169.279 94.2913 169.97 95.6915 170.767 97.0386C170.76 97.1948 170.753 97.3546 170.745 97.5108C170.199 96.6222 169.632 95.7406 169.1 94.8413C168.806 94.3402 168.022 94.7935 168.32 95.2946C169.083 96.5849 169.881 97.8503 170.675 99.1193C170.664 99.35 170.653 99.5809 170.645 99.8117C170.284 99.2323 169.918 98.6529 169.518 98.0947C169.184 97.6254 168.397 98.075 168.738 98.5479C169.408 99.4864 170.004 100.467 170.572 101.47C170.553 101.953 170.527 102.436 170.509 102.915L168.605 99.4673C168.325 98.9591 167.542 99.4123 167.825 99.9205C168.69 101.488 169.555 103.052 170.42 104.619C170.424 104.626 170.431 104.63 170.435 104.637C170.423 104.939 170.409 105.244 170.394 105.546C169.664 104.305 168.826 103.129 167.868 102.037C167.485 101.6 166.847 102.241 167.227 102.675C168.466 104.083 169.484 105.63 170.316 107.293C170.316 107.35 170.313 107.403 170.309 107.46C169.93 106.827 169.561 106.187 169.21 105.537C168.933 105.025 168.154 105.478 168.43 105.99C168.991 107.031 169.604 108.041 170.242 109.033C170.235 109.214 170.228 109.391 170.217 109.572C170.195 109.565 170.174 109.558 170.156 109.551C169.617 108.684 169.092 107.809 168.596 106.917C168.312 106.409 167.533 106.862 167.816 107.37C168.139 107.946 168.479 108.515 168.82 109.08C165.699 108.12 162.101 107.893 158.914 108.222C159.404 102.641 159.851 97.0489 160.255 91.4569ZM158.831 109.138C162.27 108.757 166.334 109.079 169.568 110.31C169.753 110.605 169.944 110.896 170.136 111.188C170.102 111.898 170.062 112.604 170.025 113.315C169.444 112.504 168.88 111.686 168.34 110.848C168.028 110.361 167.245 110.81 167.561 111.301C168.316 112.477 169.114 113.622 169.952 114.738C169.933 115.097 169.915 115.456 169.897 115.814C169.241 114.769 168.56 113.742 167.814 112.753C167.47 112.295 166.684 112.744 167.035 113.207C168.046 114.551 168.965 115.955 169.816 117.408C169.805 117.629 169.794 117.849 169.783 118.065C169.648 117.998 169.509 117.944 169.371 117.883C168.775 116.949 168.158 116.031 167.494 115.143C167.153 114.68 166.367 115.13 166.715 115.596C167.123 116.143 167.509 116.709 167.892 117.274C164.793 116.136 161.487 115.782 158.183 116.246C158.403 113.878 158.621 111.506 158.831 109.138ZM158.089 117.176C161.745 116.621 165.396 117.113 168.758 118.61C169.027 119.037 169.304 119.46 169.559 119.897C169.595 119.954 169.637 119.997 169.68 120.032C169.643 120.771 169.603 121.509 169.566 122.244C168.949 121.093 168.307 119.952 167.63 118.836C167.329 118.338 166.549 118.791 166.85 119.289C167.712 120.711 168.524 122.161 169.293 123.636C169.343 123.732 169.41 123.782 169.485 123.817C169.474 124.034 169.463 124.254 169.452 124.471C169.448 124.534 169.445 124.602 169.441 124.666C168.654 123.276 167.785 121.936 166.813 120.656C166.465 120.201 165.678 120.647 166.033 121.109C167.296 122.77 168.392 124.529 169.342 126.374C169.305 126.974 169.269 127.57 169.236 128.17C168.633 127.058 168.009 125.959 167.335 124.886C167.027 124.395 166.244 124.845 166.556 125.339C167.485 126.821 168.34 128.339 169.137 129.896C169.108 130.396 169.078 130.897 169.049 131.398C168.833 130.968 168.62 130.538 168.404 130.108C168.145 129.589 167.366 130.042 167.625 130.561C167.88 131.072 168.135 131.584 168.39 132.1C168.525 132.37 168.799 132.374 168.998 132.243C168.972 132.686 168.947 133.134 168.917 133.578C168.102 132.177 167.222 130.819 166.328 129.461C166.009 128.978 165.226 129.428 165.549 129.915C166.585 131.493 167.606 133.068 168.524 134.713C168.286 134.635 168.041 134.577 167.799 134.51C167.562 134.069 167.321 133.628 167.087 133.184C166.817 132.669 166.034 133.122 166.307 133.637C166.41 133.833 166.52 134.025 166.623 134.22C163.281 133.55 159.586 133.85 156.292 134.519C156.931 128.746 157.531 122.963 158.089 117.176ZM156.17 135.467C159.641 134.738 163.675 134.382 167.165 135.258C167.64 136.136 168.122 137.01 168.608 137.881C168.579 138.246 168.546 138.616 168.521 138.981C168.152 138.246 167.78 137.514 167.386 136.789C167.11 136.277 166.327 136.73 166.607 137.242C167.234 138.397 167.816 139.577 168.375 140.767C168.343 141.211 168.303 141.655 168.267 142.099C167.933 141.498 167.586 140.908 167.213 140.332C166.901 139.845 166.118 140.295 166.434 140.785C167.062 141.759 167.615 142.772 168.129 143.81C168.1 144.183 168.067 144.559 168.038 144.932C167.496 143.873 166.889 142.853 166.201 141.871C165.871 141.402 165.084 141.848 165.421 142.325C166.393 143.708 167.216 145.172 167.896 146.718C167.86 147.183 167.82 147.648 167.784 148.113C167.351 147.349 166.904 146.599 166.436 145.856C166.127 145.365 165.344 145.815 165.657 146.309C166.366 147.44 167.022 148.595 167.649 149.768C167.627 150.037 167.606 150.304 167.584 150.573C167.357 150.175 167.126 149.781 166.9 149.383C166.612 148.878 165.829 149.331 166.12 149.836C166.315 150.177 166.51 150.518 166.705 150.856C162.916 149.657 158.242 148.694 154.453 149.689C155.062 144.956 155.632 140.213 156.17 135.467ZM167.046 163.732C166.469 162.424 165.841 161.145 165.122 159.905C164.831 159.403 164.048 159.853 164.342 160.358C165.158 161.762 165.888 163.212 166.511 164.711C166.585 164.892 166.742 164.981 166.902 164.999C166.703 166.892 166.526 168.788 166.401 170.691C161.448 170.757 156.494 170.855 151.541 171.007C152.537 164.233 153.469 157.453 154.338 150.665C158.301 149.454 163.48 150.709 167.379 152.029C167.404 152.072 167.428 152.118 167.453 152.16C167.381 152.995 167.308 153.833 167.236 154.667C166.821 153.903 166.431 153.125 166.08 152.329C165.85 151.799 165.071 152.256 165.301 152.782C165.46 153.148 165.641 153.5 165.815 153.859C165.477 153.624 164.922 154.021 165.166 154.461C166.031 156.004 166.843 157.575 167.612 159.17C167.526 159.784 167.446 160.399 167.364 161.016C166.8 159.851 166.233 158.689 165.67 157.523C165.418 157.001 164.635 157.457 164.89 157.976C165.5 159.234 166.109 160.492 166.719 161.747C166.836 161.985 167.056 162.014 167.241 161.932C167.169 162.532 167.115 163.132 167.046 163.732Z" fill="white" fill-opacity="0.12"/>
<path fill-rule="evenodd" clip-rule="evenodd" d="M166.329 166.05C165.815 165.001 165.301 163.953 164.787 162.905C164.532 162.382 163.753 162.839 164.008 163.358C164.522 164.406 165.036 165.458 165.549 166.506C165.805 167.025 166.584 166.569 166.329 166.05Z" fill="white" fill-opacity="0.12"/>
<path fill-rule="evenodd" clip-rule="evenodd" d="M166.056 168.728C165.468 167.551 164.876 166.375 164.284 165.195C164.025 164.676 163.242 165.129 163.504 165.648C164.093 166.825 164.685 168.004 165.276 169.181C165.535 169.703 166.315 169.246 166.056 168.728Z" fill="white" fill-opacity="0.12"/>
<path fill-rule="evenodd" clip-rule="evenodd" d="M164.761 169.464C164.538 168.899 164.311 168.334 164.085 167.769C163.872 167.236 162.997 167.466 163.213 168.006C163.44 168.571 163.666 169.136 163.889 169.701C164.102 170.237 164.977 170.004 164.761 169.464Z" fill="white" fill-opacity="0.12"/>
<path fill-rule="evenodd" clip-rule="evenodd" d="M138.459 137.669C138.076 137.132 137.693 136.592 137.31 136.055C136.976 135.585 136.19 136.035 136.53 136.508C136.913 137.045 137.297 137.585 137.683 138.122C138.013 138.591 138.8 138.145 138.459 137.669Z" fill="white" fill-opacity="0.12"/>
<path fill-rule="evenodd" clip-rule="evenodd" d="M138.057 145.348C137.649 144.758 137.238 144.168 136.83 143.577C136.5 143.105 135.717 143.554 136.05 144.031C136.458 144.621 136.869 145.207 137.277 145.797C137.607 146.277 138.39 145.828 138.057 145.348Z" fill="white" fill-opacity="0.12"/>
<path fill-rule="evenodd" clip-rule="evenodd" d="M138.591 157.099C138.183 156.562 137.772 156.022 137.364 155.485C137.016 155.03 136.233 155.476 136.584 155.938C136.992 156.475 137.4 157.015 137.812 157.552C138.156 158.011 138.943 157.561 138.591 157.099Z" fill="white" fill-opacity="0.12"/>
<path fill-rule="evenodd" clip-rule="evenodd" d="M139.935 126.072C139.655 125.585 139.375 125.098 139.091 124.611C138.8 124.11 138.017 124.56 138.311 125.064C138.591 125.551 138.875 126.038 139.155 126.525C139.446 127.03 140.229 126.577 139.935 126.072Z" fill="white" fill-opacity="0.12"/>
<path fill-rule="evenodd" clip-rule="evenodd" d="M217.236 230.771C217.247 230.189 216.344 230.188 216.332 230.77C216.182 237.761 216.391 244.75 216.959 251.721C217.004 252.296 217.907 252.301 217.862 251.722C217.294 244.751 217.085 237.763 217.236 230.771Z" fill="white" fill-opacity="0.12"/>
<path fill-rule="evenodd" clip-rule="evenodd" d="M291.893 179.948L257.564 179.891C256.401 179.889 256.398 181.693 257.56 181.695L289.782 181.749L289.778 183.712C289.777 184.291 290.681 184.293 290.682 183.714L290.685 181.75L291.89 181.752C293.053 181.754 293.056 179.95 291.893 179.948Z" fill="white" fill-opacity="0.12"/>
<path fill-rule="evenodd" clip-rule="evenodd" d="M316.652 188.871L316.662 183.093C316.664 181.932 314.857 181.929 314.855 183.09L314.854 183.687C314.762 183.651 314.663 183.623 314.545 183.622L292.58 183.586C291.417 183.584 291.414 185.388 292.577 185.39L314.542 185.426C314.659 185.427 314.759 185.398 314.852 185.363L314.847 188.374L238.037 188.246C237.457 188.245 237.456 189.147 238.035 189.148L314.845 189.276L314.844 189.926C314.843 190.593 315.44 190.864 315.945 190.766L315.932 198.514L240.779 198.388C240.2 198.387 240.194 199.29 240.778 199.29L315.93 199.416L315.883 227.904C315.881 229.066 317.687 229.069 317.689 227.907L317.753 189.707C317.754 189.043 317.161 188.769 316.652 188.871Z" fill="white" fill-opacity="0.12"/>
<path fill-rule="evenodd" clip-rule="evenodd" d="M291.635 201.242L291.597 223.84C291.595 225.001 293.402 225.004 293.404 223.843L293.442 201.245C293.444 200.084 291.637 200.078 291.635 201.242Z" fill="white" fill-opacity="0.12"/>
<path fill-rule="evenodd" clip-rule="evenodd" d="M314.474 224.959L287.104 224.913C287.36 224.782 287.559 224.541 287.56 224.161L287.597 202.117C287.599 200.956 285.793 200.953 285.791 202.114L285.754 224.158C285.753 224.535 285.952 224.78 286.211 224.912L273.53 224.891L273.567 202.974C273.568 202.392 272.665 202.39 272.664 202.973L272.627 224.889L240.847 224.836C239.684 224.834 239.681 226.638 240.844 226.64L314.471 226.763C315.631 226.765 315.637 224.961 314.474 224.959Z" fill="white" fill-opacity="0.12"/>
<path fill-rule="evenodd" clip-rule="evenodd" d="M313.614 200.838L313.574 224.096C313.573 224.675 314.477 224.68 314.478 224.098L314.517 200.84C314.518 200.257 313.615 200.256 313.614 200.838Z" fill="white" fill-opacity="0.12"/>
<path fill-rule="evenodd" clip-rule="evenodd" d="M311.059 201.165L311.02 224.203C311.019 224.786 311.922 224.787 311.923 224.205L311.962 201.167C311.963 200.584 311.06 200.583 311.059 201.165Z" fill="white" fill-opacity="0.12"/>
<path fill-rule="evenodd" clip-rule="evenodd" d="M308.085 201.38L308.047 223.867C308.046 224.446 308.95 224.451 308.951 223.869L308.988 201.381C308.989 200.802 308.086 200.797 308.085 201.38Z" fill="white" fill-opacity="0.12"/>
<path fill-rule="evenodd" clip-rule="evenodd" d="M305.558 202.256L305.521 224.41C305.52 224.993 306.423 224.994 306.424 224.412L306.461 202.258C306.462 201.679 305.559 201.678 305.558 202.256Z" fill="white" fill-opacity="0.12"/>
<path fill-rule="evenodd" clip-rule="evenodd" d="M302.807 201.593L302.769 224.08C302.768 224.659 303.671 224.664 303.672 224.082L303.71 201.594C303.711 201.015 302.808 201.01 302.807 201.593Z" fill="white" fill-opacity="0.12"/>
<path fill-rule="evenodd" clip-rule="evenodd" d="M299.915 203.131L299.88 224.184C299.879 224.766 300.782 224.768 300.783 224.185L300.818 203.133C300.819 202.55 299.916 202.549 299.915 203.131Z" fill="white" fill-opacity="0.12"/>
<path fill-rule="evenodd" clip-rule="evenodd" d="M296.948 202.461L296.913 222.964C296.912 223.543 297.815 223.548 297.816 222.966L297.851 202.463C297.852 201.884 296.948 201.883 296.948 202.461Z" fill="white" fill-opacity="0.12"/>
<path fill-rule="evenodd" clip-rule="evenodd" d="M294.719 202.792L294.683 224.286C294.682 224.864 295.585 224.869 295.586 224.287L295.622 202.794C295.623 202.211 294.72 202.21 294.719 202.792Z" fill="white" fill-opacity="0.12"/>
<path fill-rule="evenodd" clip-rule="evenodd" d="M283.912 202.994L283.882 220.962C283.881 221.544 284.784 221.546 284.785 220.963L284.815 202.996C284.816 202.414 283.913 202.412 283.912 202.994Z" fill="white" fill-opacity="0.12"/>
<path fill-rule="evenodd" clip-rule="evenodd" d="M282.026 202.437L281.99 223.49C281.989 224.072 282.892 224.074 282.893 223.492L282.929 202.439C282.93 201.86 282.027 201.858 282.026 202.437Z" fill="white" fill-opacity="0.12"/>
<path fill-rule="evenodd" clip-rule="evenodd" d="M279.613 201.554L279.577 222.606C279.576 223.185 280.479 223.19 280.48 222.608L280.516 201.555C280.517 200.976 279.614 200.971 279.613 201.554Z" fill="white" fill-opacity="0.12"/>
<path fill-rule="evenodd" clip-rule="evenodd" d="M276.971 201.988L276.934 224.255C276.933 224.834 277.836 224.839 277.837 224.257L277.874 201.989C277.875 201.411 276.972 201.409 276.971 201.988Z" fill="white" fill-opacity="0.12"/>
<path fill-rule="evenodd" clip-rule="evenodd" d="M274.971 201.655L274.934 223.372C274.934 223.951 275.837 223.952 275.838 223.374L275.874 201.657C275.875 201.078 274.972 201.073 274.971 201.655Z" fill="white" fill-opacity="0.12"/>
<path fill-rule="evenodd" clip-rule="evenodd" d="M270.1 203.081L270.068 222.039C270.067 222.622 270.97 222.623 270.971 222.041L271.003 203.083C271.004 202.5 270.101 202.499 270.1 203.081Z" fill="white" fill-opacity="0.12"/>
<path fill-rule="evenodd" clip-rule="evenodd" d="M267.241 202.193L267.205 223.686C267.204 224.269 268.108 224.27 268.108 223.688L268.145 202.194C268.146 201.616 267.242 201.614 267.241 202.193Z" fill="white" fill-opacity="0.12"/>
<path fill-rule="evenodd" clip-rule="evenodd" d="M265.045 202.854L265.013 222.142C265.012 222.724 265.915 222.726 265.916 222.144L265.948 202.855C265.949 202.273 265.046 202.271 265.045 202.854Z" fill="white" fill-opacity="0.12"/>
<path fill-rule="evenodd" clip-rule="evenodd" d="M262.49 202.404L262.457 222.576C262.456 223.155 263.359 223.16 263.36 222.578L263.394 202.405C263.395 201.827 262.491 201.825 262.49 202.404Z" fill="white" fill-opacity="0.12"/>
<path fill-rule="evenodd" clip-rule="evenodd" d="M260.403 202.511L260.367 223.436C260.366 224.019 261.27 224.02 261.271 223.438L261.306 202.513C261.307 201.934 260.404 201.932 260.403 202.511Z" fill="white" fill-opacity="0.12"/>
<path fill-rule="evenodd" clip-rule="evenodd" d="M257.957 202.841L257.926 221.689C257.925 222.268 258.828 222.273 258.829 221.69L258.86 202.843C258.861 202.26 257.958 202.259 257.957 202.841Z" fill="white" fill-opacity="0.12"/>
<path fill-rule="evenodd" clip-rule="evenodd" d="M255.321 202.503L255.286 222.786C255.286 223.368 256.189 223.37 256.19 222.787L256.224 202.505C256.225 201.926 255.322 201.925 255.321 202.503Z" fill="white" fill-opacity="0.12"/>
<path fill-rule="evenodd" clip-rule="evenodd" d="M253.104 203.383L253.069 224.258C253.068 224.837 253.971 224.842 253.972 224.26L254.007 203.384C254.008 202.805 253.105 202.8 253.104 203.383Z" fill="white" fill-opacity="0.12"/>
<path fill-rule="evenodd" clip-rule="evenodd" d="M250.57 201.173L250.538 220.131C250.537 220.71 251.44 220.715 251.441 220.133L251.473 201.175C251.474 200.592 250.571 200.591 250.57 201.173Z" fill="white" fill-opacity="0.12"/>
<path fill-rule="evenodd" clip-rule="evenodd" d="M247.716 200.838L247.682 221.231C247.681 221.81 248.584 221.811 248.585 221.232L248.619 200.84C248.62 200.257 247.717 200.256 247.716 200.838Z" fill="white" fill-opacity="0.12"/>
<path fill-rule="evenodd" clip-rule="evenodd" d="M245.934 202.822L245.902 221.781C245.901 222.363 246.804 222.364 246.805 221.782L246.837 202.824C246.838 202.242 245.935 202.24 245.934 202.822Z" fill="white" fill-opacity="0.12"/>
<path fill-rule="evenodd" clip-rule="evenodd" d="M243.742 201.272L243.712 219.57C243.711 220.152 244.614 220.154 244.615 219.571L244.646 201.274C244.647 200.695 243.743 200.69 243.742 201.272Z" fill="white" fill-opacity="0.12"/>
<path fill-rule="evenodd" clip-rule="evenodd" d="M241.737 201.711L241.701 222.785C241.7 223.364 242.603 223.369 242.604 222.787L242.64 201.712C242.641 201.134 241.738 201.128 241.737 201.711Z" fill="white" fill-opacity="0.12"/>
<path fill-rule="evenodd" clip-rule="evenodd" d="M239.214 201.485L239.178 223.199C239.177 223.781 240.08 223.783 240.081 223.2L240.117 201.487C240.118 200.908 239.215 200.903 239.214 201.485Z" fill="white" fill-opacity="0.12"/>
<path fill-rule="evenodd" clip-rule="evenodd" d="M363.924 270.275C351.861 266.771 339.977 262.622 328.042 258.699C315.997 254.741 304.046 250.556 292.251 245.892C292.251 245.878 292.258 245.871 292.258 245.853L292.274 236.55C292.276 235.389 290.469 235.385 290.467 236.547L290.452 245.85C290.45 246.592 291.186 246.856 291.72 246.647C303.607 251.354 315.655 255.572 327.799 259.565C339.73 263.488 351.618 267.641 363.681 271.141C364.243 271.309 364.482 270.439 363.924 270.275Z" fill="white" fill-opacity="0.12"/>
<path fill-rule="evenodd" clip-rule="evenodd" d="M365.366 282.034C341.122 268.444 314.627 259.597 289.845 247.113C289.326 246.853 288.902 247.57 289.388 247.89C289.815 248.171 290.244 248.456 290.671 248.737C290.834 248.844 290.991 248.823 291.112 248.742C315.4 260.777 341.224 269.534 364.909 282.811C365.414 283.096 365.87 282.319 365.366 282.034Z" fill="white" fill-opacity="0.12"/>
<path fill-rule="evenodd" clip-rule="evenodd" d="M357.556 289.237C333.584 274.94 309.634 260.604 285.704 246.229C285.203 245.93 284.751 246.707 285.248 247.006C309.174 261.377 333.124 275.713 357.1 290.013C357.597 290.313 358.054 289.536 357.556 289.237Z" fill="white" fill-opacity="0.12"/>
<path fill-rule="evenodd" clip-rule="evenodd" d="M342.061 294.849C336.811 291.264 332.318 286.378 327.46 282.279C322.503 278.098 317.46 274.024 312.456 269.897C302.673 261.817 292.893 253.726 282.551 246.358C282.139 246.063 281.608 246.736 282.002 247.067C282.179 247.213 282.357 247.363 282.535 247.508C282.598 247.562 282.67 247.59 282.737 247.605C293.243 255.136 303.183 263.408 313.147 271.631C318.037 275.666 322.977 279.647 327.813 283.753C332.397 287.649 336.632 292.23 341.605 295.626C342.084 295.957 342.537 295.176 342.061 294.849Z" fill="white" fill-opacity="0.12"/>
<path fill-rule="evenodd" clip-rule="evenodd" d="M319.884 294.192C312.56 286.915 306.354 278.468 299.526 270.726C292.473 262.728 285.229 254.897 277.984 247.07C277.59 246.643 276.952 247.281 277.343 247.708C284.588 255.535 291.829 263.366 298.885 271.364C305.713 279.106 311.915 287.549 319.242 294.83C319.658 295.236 320.299 294.601 319.884 294.192Z" fill="white" fill-opacity="0.12"/>
<path fill-rule="evenodd" clip-rule="evenodd" d="M278.006 245.9C264.669 244.696 251.224 246.605 237.935 244.705C237.366 244.622 237.119 245.492 237.692 245.574C248.962 247.184 260.328 246.098 271.654 246.44C271.586 246.49 271.529 246.557 271.497 246.653C265.607 264.362 260.087 282.185 254.929 300.119C254.768 300.68 255.639 300.92 255.799 300.362C260.954 282.428 266.478 264.602 272.364 246.896C272.429 246.704 272.361 246.555 272.244 246.459C274.164 246.526 276.084 246.632 278.001 246.802C278.584 246.853 278.582 245.951 278.006 245.9Z" fill="white" fill-opacity="0.12"/>
<path fill-rule="evenodd" clip-rule="evenodd" d="M301.339 292.148C301.8 291.289 300.426 289.714 300.025 289.021L298.235 285.9C297.189 284.08 296.143 282.26 295.1 280.437C292.934 276.666 290.771 272.895 288.605 269.124C284.467 261.919 279.81 254.803 276.356 247.241C276.115 246.715 275.335 247.168 275.576 247.694C279.275 255.796 284.29 263.421 288.722 271.137C291.034 275.168 293.349 279.202 295.665 283.233C296.86 285.312 298.054 287.394 299.249 289.474C299.838 290.497 300.4 292.441 301.562 292.904C301.74 292.976 301.985 292.859 302.071 292.696L302.121 292.603C302.392 292.092 301.611 291.633 301.339 292.148Z" fill="white" fill-opacity="0.12"/>
<path fill-rule="evenodd" clip-rule="evenodd" d="M274.518 248.056C274.452 247.488 273.549 247.479 273.615 248.055C275.617 265.29 276.572 282.631 276.476 299.98C276.471 300.559 277.374 300.564 277.379 299.982C277.476 282.629 276.52 265.292 274.518 248.056Z" fill="white" fill-opacity="0.12"/>
<path fill-rule="evenodd" clip-rule="evenodd" d="M264.501 252.35C259.327 252.1 254.157 251.85 248.983 251.6C244.005 251.361 238.903 250.774 233.924 251.085C233.348 251.12 233.343 252.021 233.923 251.987C238.905 251.676 244.004 252.263 248.982 252.502C254.152 252.752 259.326 253.002 264.499 253.252C265.079 253.282 265.08 252.38 264.501 252.35Z" fill="white" fill-opacity="0.12"/>
<path fill-rule="evenodd" clip-rule="evenodd" d="M257.917 230.947L257.897 243.179C257.895 244.341 259.701 244.347 259.703 243.182L259.724 230.95C259.726 229.792 257.919 229.786 257.917 230.947Z" fill="white" fill-opacity="0.12"/>
<path fill-rule="evenodd" clip-rule="evenodd" d="M315.303 237.107L315.287 246.587C315.285 247.748 317.092 247.751 317.094 246.59L317.11 237.11C317.112 235.948 315.305 235.942 315.303 237.107Z" fill="white" fill-opacity="0.12"/>
<path fill-rule="evenodd" clip-rule="evenodd" d="M326.468 237.347L326.452 247.048C326.45 248.209 328.256 248.212 328.258 247.051L328.275 237.35C328.277 236.189 326.47 236.182 326.468 237.347Z" fill="white" fill-opacity="0.12"/>
<path fill-rule="evenodd" clip-rule="evenodd" d="M376.277 229.471L367.056 229.455C366.896 227.182 366.715 224.91 366.502 222.637C366.362 221.166 366.565 218.99 365.65 217.717C364.724 216.43 362.424 215.88 361.077 215.27L354.095 212.098C353.661 211.902 353.284 212.388 353.454 212.704C352.093 211.892 350.757 211.034 349.45 210.127C348.971 209.796 348.518 210.576 348.994 210.904C350.262 211.786 351.559 212.616 352.876 213.406C352.301 213.1 351.732 212.783 351.143 212.502C350.62 212.252 350.16 213.029 350.686 213.279C352.64 214.212 354.516 215.281 356.321 216.48C356.804 216.804 357.26 216.024 356.777 215.703C356.315 215.394 355.836 215.123 355.367 214.834C356.099 215.233 356.838 215.615 357.587 215.989C358.106 216.245 358.566 215.468 358.044 215.212C356.726 214.556 355.44 213.855 354.171 213.121C356.065 213.98 357.959 214.839 359.853 215.701C360.887 216.172 361.925 216.639 362.955 217.113C364.511 217.825 365.043 218.718 365.392 220.462C365.967 223.35 366.126 226.432 366.249 229.461L261.037 229.286C259.874 229.284 259.871 231.088 261.034 231.09L366.32 231.265C366.354 232.043 366.389 232.821 366.43 233.581C366.437 233.716 366.444 233.847 366.451 233.982L262.903 233.809C261.74 233.807 261.737 235.611 262.9 235.613L366.537 235.786C366.971 244.11 367.142 252.448 367.238 260.782C367.244 261.361 368.147 261.366 368.141 260.783C368.045 252.449 367.874 244.111 367.436 235.787L367.877 235.788C369.04 235.79 369.043 233.986 367.88 233.984L367.333 233.983C367.281 233.078 367.236 232.172 367.177 231.266L376.273 231.282C377.436 231.276 377.443 229.473 376.277 229.471Z" fill="white" fill-opacity="0.12"/>
<path fill-rule="evenodd" clip-rule="evenodd" d="M417.533 291.84C393.67 275.992 366.257 267.083 339.407 257.746C331.667 255.056 323.941 252.305 316.3 249.338C315.76 249.127 315.52 249.997 316.057 250.207C342.703 260.56 370.502 268.095 396.229 280.722C403.421 284.253 410.398 288.189 417.073 292.621C417.559 292.941 418.012 292.161 417.533 291.84Z" fill="white" fill-opacity="0.12"/>
</g>
<defs>
<clipPath id="clip0_650_31741">
<rect width="350" height="262" fill="white"/>
</clipPath>
</defs>
</svg>
