<svg width="24" height="24" viewBox="0 0 24 24" fill="none" xmlns="http://www.w3.org/2000/svg">
<g clip-path="url(#clip0_476_17740)">
<path d="M5.63567 18.3637C5.48223 18.2103 5.39603 18.0022 5.39603 17.7852C5.39603 17.5682 5.48223 17.3601 5.63567 17.2066L17.2065 5.63578C17.3599 5.48234 17.5681 5.39614 17.7851 5.39614C18.002 5.39614 18.2102 5.48234 18.3636 5.63578C18.517 5.78922 18.6032 5.99732 18.6032 6.21432C18.6032 6.43131 18.517 6.63942 18.3636 6.79286L6.79275 18.3637C6.63932 18.5171 6.43121 18.6033 6.21421 18.6033C5.99722 18.6033 5.78911 18.5171 5.63567 18.3637Z" fill="black"/>
<path d="M18.3657 18.3624C18.2122 18.5158 18.0041 18.602 17.7871 18.602C17.5701 18.602 17.362 18.5158 17.2086 18.3624L5.63773 6.79154C5.48429 6.6381 5.39809 6.42999 5.39809 6.213C5.39809 5.996 5.48429 5.78789 5.63773 5.63445C5.79117 5.48102 5.99928 5.39481 6.21627 5.39481C6.43327 5.39481 6.64137 5.48102 6.79481 5.63445L18.3657 17.2053C18.5191 17.3587 18.6053 17.5668 18.6053 17.7838C18.6053 18.0008 18.5191 18.2089 18.3657 18.3624Z" fill="black"/>
</g>
<defs>
<clipPath id="clip0_476_17740">
<rect width="24" height="24" fill="white"/>
</clipPath>
</defs>
</svg>
