<svg width="20" height="20" viewBox="0 0 20 20" fill="none" xmlns="http://www.w3.org/2000/svg">
<g clip-path="url(#clip0_838_14723)">
<path d="M10 10C11.3807 10 12.5 8.88071 12.5 7.5C12.5 6.11929 11.3807 5 10 5C8.61929 5 7.5 6.11929 7.5 7.5C7.5 8.88071 8.61929 10 10 10Z" stroke="#9B9EA6" stroke-width="1.5"/>
<path d="M9.99984 18.3337C14.6022 18.3337 18.3332 14.6027 18.3332 10.0003C18.3332 5.39795 14.6022 1.66699 9.99984 1.66699C5.39746 1.66699 1.6665 5.39795 1.6665 10.0003C1.6665 14.6027 5.39746 18.3337 9.99984 18.3337Z" stroke="#9B9EA6" stroke-width="1.5"/>
<path d="M14.9749 16.6667C14.8416 14.2567 14.1041 12.5 9.9999 12.5C5.89574 12.5 5.15824 14.2567 5.0249 16.6667" stroke="#9B9EA6" stroke-width="1.5" stroke-linecap="round"/>
</g>
<defs>
<clipPath id="clip0_838_14723">
<rect width="20" height="20" fill="white"/>
</clipPath>
</defs>
</svg>
