<svg width="24" height="24" viewBox="0 0 24 24" fill="none" xmlns="http://www.w3.org/2000/svg">
<path d="M12 6.483L11.5479 6.91835C11.6065 6.97912 11.6767 7.02746 11.7544 7.06047C11.8321 7.09349 11.9156 7.11051 12 7.11051C12.0844 7.11051 12.1679 7.09349 12.2456 7.06047C12.3233 7.02746 12.3935 6.97912 12.4521 6.91835L12 6.483ZM9.84502 17.2177C8.57581 16.2172 7.18856 15.2402 6.08763 14.0011C5.0093 12.7855 4.25581 11.3681 4.25581 9.52793H3C3 11.7599 3.9293 13.4628 5.14912 14.835C6.34633 16.1829 7.87339 17.2629 9.06726 18.2039L9.84502 17.2177ZM4.25581 9.52793C4.25581 7.72793 5.27302 6.21761 6.66195 5.58216C8.01153 4.96514 9.82493 5.1284 11.5479 6.91835L12.4521 6.04849C10.4093 3.92449 8.03498 3.5737 6.13953 4.44021C4.28595 5.2883 3 7.25742 3 9.52793H4.25581ZM9.06726 18.2039C9.49674 18.5422 9.95721 18.9022 10.4235 19.1751C10.8899 19.448 11.4223 19.669 12 19.669V18.4132C11.7405 18.4132 11.4357 18.3128 11.0573 18.0909C10.678 17.8699 10.2854 17.5651 9.84502 17.2177L9.06726 18.2039ZM14.9327 18.2039C16.1266 17.2621 17.6537 16.1837 18.8509 14.835C20.0707 13.462 21 11.7599 21 9.52793H19.7442C19.7442 11.3681 18.9907 12.7855 17.9124 14.0011C16.8114 15.2402 15.4242 16.2172 14.155 17.2177L14.9327 18.2039ZM21 9.52793C21 7.25742 19.7149 5.2883 17.8605 4.44021C15.965 3.5737 13.5924 3.92449 11.5479 6.04765L12.4521 6.91835C14.1751 5.12923 15.9885 4.96514 17.338 5.58216C18.727 6.21761 19.7442 7.72709 19.7442 9.52793H21ZM14.155 17.2177C13.7146 17.5651 13.322 17.8699 12.9427 18.0909C12.5634 18.3119 12.2595 18.4132 12 18.4132V19.669C12.5777 19.669 13.1101 19.4472 13.5765 19.1751C14.0436 18.9022 14.5033 18.5422 14.9327 18.2039L14.155 17.2177Z" fill="black"/>
</svg>
