<svg width="466" height="486" viewBox="0 0 466 486" fill="none" xmlns="http://www.w3.org/2000/svg">
<path d="M117.632 0L121.517 1.30771C123.495 0.703534 125.277 0.258662 127.348 0.69718C140.41 3.46344 136.35 10.4753 141.032 14.2489C145.216 17.6208 148.131 15.0007 151.776 20.4771C155.8 22.0579 159.363 20.8281 163.373 22.3354C165.19 21.8789 167.199 21.7522 168.942 21.0664C171.968 19.8757 174.922 17.0808 177.842 15.4468C180.147 14.1567 183.67 12.0421 186.393 12.8024C187.152 13.5779 187.179 13.7324 187.382 14.8054C187.977 15.5174 188.123 15.5447 188.969 15.8243C189.691 14.9759 189.609 12.2827 189.977 11.0076C192.424 10.0414 194.729 13.5775 196.963 13.794C198.163 13.9103 198.998 13.504 200.283 13.869C202.094 15.8595 200.484 17.1522 200.544 19.3632C200.566 20.1869 200.727 20.2396 201.321 20.7207C202.095 20.7095 202.884 20.662 203.638 20.8656C204.291 21.0416 204.269 21.33 204.598 21.8829C204.616 22.2631 204.632 22.564 204.495 22.9279C203.61 25.2701 200.861 27.7594 199.269 29.6917C193.733 36.4059 192.517 40.4411 183.843 44.0393C184.172 45.1957 184.458 46.3221 185.029 47.3902C185.24 47.5112 185.449 47.6351 185.657 47.762C187.856 49.1072 189.285 51.2913 189.886 53.7894C188.969 54.1307 188.199 54.3262 187.605 55.1363L187.767 56.146C189.414 58.389 191.08 57.4426 193.19 58.6021C193.588 58.8203 193.818 58.991 193.944 59.4327C194.351 60.8555 193.419 62.4299 192.742 63.6287C191.243 66.281 192.855 69.6349 191.154 72.1387C189.428 74.6781 186.737 71.0418 184.475 71.2894C183.783 71.7824 183.345 72.2389 182.833 72.917L182.663 73.1467C181.134 73.7379 179.418 73.0954 177.824 72.9357C176.311 72.7842 175.515 73.1462 174.347 74.1036C174.001 74.3881 173.962 74.3271 173.531 74.3586C173.283 73.5348 173.015 72.9054 172.556 72.1749L171.967 72.2076C171.808 72.4827 171.668 72.7164 171.62 73.0357C171.432 74.2887 171.985 75.2456 172.451 76.3472C176.447 85.8056 183.277 84.2376 186.361 88.4658C187.867 90.53 188.83 94.4663 188.45 97.0042C188.003 99.9863 186.412 101.423 184.134 103.215C184.423 103.556 184.72 103.89 185.025 104.217C185.815 105.058 192.156 110.455 192.888 110.751C193.016 110.803 193.912 110.816 194.059 110.783C195.328 110.503 195.688 109.573 197.193 109.629C199.195 111.035 200.018 113.711 200.82 115.902C201.864 115.161 202.775 114.476 204.013 114.081L204.475 114.555C204.407 115.205 204.321 115.763 204.536 116.397C204.698 116.876 204.938 116.877 205.353 117.105C205.498 117.023 205.641 116.939 205.787 116.859C207.655 115.835 207.726 117.855 209.132 118.302C209.9 118.546 210.88 118.404 211.742 118.675C212.048 119.913 211.163 120.895 210.749 122.105C210.934 122.45 211.086 122.617 211.425 122.821C213.795 124.251 213.678 121.955 215.52 121.632C216.887 121.393 220.8 123.602 221.941 124.427C222.652 124.942 223.069 125.237 223.156 126.148C223.508 129.829 219.791 131.217 217.94 133.725C216 136.353 217.133 138.918 214.059 142.687C216.187 145.209 218.135 147.185 220.958 148.968C225.251 151.677 242.766 159.337 247.502 160.057C248.931 160.275 250.386 159.899 251.776 159.589C251.866 159.661 251.954 159.734 252.044 159.805C255.366 162.399 259.884 170.353 263.449 171.49C264.038 170.77 264.44 170.435 265.259 169.991C266.867 169.738 268.247 170.676 269.65 171.371C270.666 170.288 271.974 168.495 273.42 168.046C276.31 167.147 275.776 169.106 277.686 170.158C279.184 170.053 280.379 169.173 281.669 168.484C282.964 167.791 283.613 167.63 285.004 168.051C285.746 169.182 285.577 170.982 285.639 172.307C288.03 173.914 290.419 175.601 293.081 176.739C297.346 178.562 303.12 178.922 307.457 177.185C308.433 177.683 309.478 178.264 310.549 178.523C313.24 179.173 315.161 178.556 317.441 177.126L323.426 181.18C325.565 180.038 327.464 178.484 329.393 177.028C329.35 176.971 329.306 176.916 329.266 176.858C326.089 172.284 329.629 171.582 329.888 168.316C330.013 166.736 327.301 164.543 326.227 163.487C325.896 161.289 325.477 159.112 325.053 156.931C326.07 154.344 328.513 146.778 331.01 145.615C331.626 145.328 331.971 145.438 332.57 145.683C335.861 147.028 334.177 150.835 335.703 152.994C336.572 154.224 337.986 154.386 338.691 155.917C338.905 159.141 337.51 159.805 336.285 162.334C335.033 164.919 336.806 168.277 337.775 170.732L337.574 170.597C339.122 171.957 340.83 173.753 342.702 174.647C346.141 176.289 354.638 176.617 358.155 175.058C359.475 174.474 361.321 172.583 362.647 172.493C363.937 172.405 365.393 173.93 366.874 173.976C372.001 174.132 369.599 173.173 371.84 171.164C373.593 170.801 375.225 171.535 376.941 171.846C379.14 172.243 381.277 171.183 382.993 169.906C384.611 168.705 388.635 165.238 388.765 163.128C388.801 162.533 388.651 162.563 388.282 162.16C386.233 161.584 385.136 161.956 383.207 162.623C380.805 161.376 377.763 161.193 375.568 159.707C374.638 159.075 374.289 158.507 374.04 157.435C374.144 156.371 374.414 155.616 375.158 154.819C376.421 153.462 378.735 152.438 380.628 152.454C381.704 152.463 382.536 153.263 383.285 153.937C384.715 153.591 386.15 153.251 387.559 152.84C390.19 152.075 394.027 148.668 395.348 146.305C395.093 145.855 394.89 145.409 394.698 144.934C395.374 142.565 396.461 141.939 398.509 140.814C401.156 139.362 401.296 136.123 404.234 134.973C406.439 134.109 408.633 135.443 410.271 134.852L410.562 134.045C410.181 133.308 409.803 132.568 409.428 131.826L409.751 130.932C411.373 129.617 412.751 129.76 414.717 129.786L416.037 128.168C417.301 127.689 423.384 127.076 424.445 127.762C425.079 128.172 425.599 129.508 426.436 129.67C427.539 129.882 427.726 128.551 429.78 129.35C433.56 127.672 435.078 121.717 438.916 119.972C440.496 120.526 441.141 121.916 442.524 122.866C443.351 122.522 444.099 122.28 444.984 122.102L445.582 122.62C445.441 123.04 445.285 123.386 445.332 123.838C445.374 124.243 446.148 124.641 446.481 124.886C446.377 125.803 445.769 126.425 445.03 126.997C444.833 127.152 444.635 127.312 444.443 127.481L444.146 127.752L444.099 127.698C445.15 129.042 446.32 130.938 447.765 131.825C448.446 131.786 449.2 131.693 449.866 131.843C450.744 132.042 450.781 132.456 451.192 133.176C450.739 134.663 449.33 135.186 448.675 136.625L448.997 137.457C451.358 139.166 451.966 137.47 454.353 137.235C455.585 138.041 456.183 139.627 457.041 140.796C459.038 143.527 461.133 141.577 463.801 142.147C464.939 142.391 465.449 143.093 466 144.047C465.158 146.017 462.319 148.554 460.608 149.856C462.844 153.367 464.144 158.571 465.667 162.482L465.392 162.334L465.761 162.892C465.537 163.346 465.116 163.697 464.768 164.061C462.386 164.274 460.889 161.775 459.027 160.501C456.667 160.696 455.918 163.384 453.687 163.881C451.098 162.778 452.668 161.103 451.488 159.254C451.395 159.109 451.29 158.971 451.186 158.83C449.471 161.658 446.132 162.564 444.042 165.008C442.305 167.037 441.141 170.242 439.752 172.565C438.088 175.358 435.972 178.001 434.069 180.652C435.884 183.065 435.281 187.73 435.125 190.634C435.062 191.779 433.601 193.436 432.785 194.222C432.884 196.734 433.372 200.663 431.802 202.751C431.792 202.863 431.802 202.977 431.776 203.087C431.433 204.514 429.27 206.048 428.147 206.912C428.306 207.118 428.462 207.327 428.615 207.539C429.509 208.786 430.086 209.95 429.821 211.498C429.967 212.072 429.993 212.625 429.863 213.206C429.088 216.732 425.724 224.232 422.63 226.089C421.637 225.573 420.514 224.974 419.412 224.765C418.195 224.535 416.932 225.248 416.027 225.991C411.311 229.863 421.029 234.562 420.342 238.737C420.082 240.334 418.148 241.422 416.921 242.276C417.93 243.667 419.167 246.678 419.037 248.355C418.314 249.43 417.66 249.63 416.526 250.207C414.94 251.019 414.727 252.878 413.422 254.095C413.609 254.365 413.786 254.639 413.931 254.932C414.768 256.573 415.496 258.908 414.857 260.699C414.545 261.58 413.807 262.61 412.912 262.968C412.33 263.2 412.299 263.029 411.773 262.788C410.765 261.272 410.785 259.241 410.224 257.506L410.11 257.172C409.226 257.199 407.838 257.366 407.042 256.939C402.991 254.761 405.185 250.028 404.016 246.781C403.959 246.624 403.891 246.471 403.828 246.316C403.823 246.242 403.823 246.168 403.813 246.095C403.673 245.349 402.991 244.633 402.69 243.905C401.437 240.875 400.043 236.991 399.242 233.81C398.79 232.022 399.768 230.146 399.071 228.541C398.343 227.987 398.223 227.876 397.272 227.773C394.349 230.143 394.989 237.335 393.325 240.809C392.904 241.697 392.259 242.578 391.256 242.844C390.205 243.123 388.931 242.791 388.006 242.277C385.91 241.113 381.142 232.538 380.544 229.981C380.321 229.012 380.763 228.132 381.34 227.356C384.787 222.701 394.973 216.069 399.731 211.327C400.838 210.225 399.877 209.199 401.005 208.087C403.335 205.79 406.792 204.285 408.451 201.341C408.929 200.484 409.257 199.599 408.981 198.635C407.702 198.757 405.856 200.528 404.613 201.169L404.343 201.304C397.246 200.921 388.983 200.311 382.265 202.783C381.553 201.586 380.061 200.993 378.844 200.449C373.868 201.764 365.793 202.874 360.838 200.933C360.089 200.641 360.037 200.546 359.736 199.823L361.462 197.54C355.045 184.112 350.677 194.113 343.488 187.962C338.775 183.929 342.543 180.792 334.897 176.825C333.795 176.984 332.725 177.186 331.642 177.443C330.185 179.265 334.555 184.739 334.643 187.72C334.775 192.206 331.027 194.985 328.229 198.007C331.343 198.746 334.219 199.337 336.807 201.334C337.994 202.25 338.283 202.82 338.459 204.223C337.02 208.277 330.616 210.093 327.239 212.473C327.755 214.408 328.228 216.733 329.213 218.475C330.461 220.683 336.181 225.272 335.997 227.447C335.799 229.766 334.182 232.2 333.774 234.549C333.483 236.224 333.791 238.316 333.902 240.021C336.273 240.338 338.526 240.472 340.4 242.106C342.397 245.711 345.981 263.856 345.815 268.24C343.836 269.178 341.163 268.22 339.148 267.742C338.42 266.945 337.545 266.001 336.552 265.536C335.565 265.074 335.125 265.275 334.187 265.631C332.906 266.773 332.47 268.522 331.894 270.085C329.614 268.454 327.751 266.307 325.989 264.155C326.372 262.12 327 259.537 325.626 257.75C324.846 256.737 324.177 256.598 322.999 256.5C322.091 257.043 321.687 257.259 321.293 258.297C320.875 259.4 321.878 260.908 322.369 261.874C321.587 264.327 320.815 266.672 319.639 268.976C317.185 268.991 314.695 268.66 312.251 268.443C309.69 269.903 307.169 270.74 304.311 271.457C303.96 271.574 303.936 271.546 303.68 271.73C302.009 272.934 301.747 275.937 301.379 277.802C302.368 278.752 303.449 279.64 304.477 280.549C301.417 284.369 298.034 288.233 294.552 291.673C290.325 291.82 285.818 291.362 281.679 292.336C279.908 292.753 278.124 293.523 276.37 294.056C275.034 293.145 273.632 292.186 271.98 292.088L271.523 292.492C271.054 297.586 272.177 303.317 272.783 308.413C267.814 312.982 260.608 321.627 255.076 324.656C253.509 325.514 251.578 325.9 249.861 326.35C246.799 330.389 242.969 334.21 242.017 339.291C236.323 342.084 230.398 340.497 225.146 342.713C221.991 344.045 224 346.346 223.06 348.665C222.38 349.304 221.796 349.505 220.865 349.643C219.138 349.898 217.825 348.647 216.497 347.706C215.016 348.575 213.473 349.288 211.918 350.014C211.864 359.8 207.94 355.425 204.555 359.734C203.556 361.006 203.337 362.842 203.424 364.414C203.589 367.367 205.447 369.95 205.875 372.843C206.404 376.42 205.156 380.138 206.454 383.642C208.451 389.031 212.692 393.201 213.472 399.177C214.38 406.129 208.407 409.181 204.718 413.972C200.016 420.078 203.944 430.294 204.906 437.308C205.088 438.635 205.354 440.523 204.865 441.812C203.59 445.167 197.295 448.873 194.813 452.12C195.334 455.391 197.815 462.296 197.33 465.045C194.864 467.373 189.449 464.609 186.871 466.14C184.594 467.492 182.916 475.448 182.097 478.14C180.232 479.237 177.401 481.082 176.027 482.733C175.199 483.728 174.682 484.85 173.773 485.823C170.127 487.142 163.701 480.674 159.244 480.406L158.725 480.378C158 479.853 150.062 471.011 149.238 469.812C148.959 468.204 149.922 467.058 150.249 465.519C147.321 459.603 144.977 453.165 141.69 447.465C140.012 444.557 137.124 442.495 135.848 439.332C133.003 432.278 132.74 424.459 129.452 417.552C127.669 413.805 125.14 410.388 122.919 406.886C121.438 404.546 120.059 402.147 118.783 399.691C117.507 397.233 116.338 394.726 115.278 392.17C112.131 384.509 113.499 377.241 110.155 370.219C104.148 357.606 95.0141 353.506 90.7318 338.785C88.9291 332.591 86.5555 325.891 85.7707 319.497C85.4359 316.77 86.2303 312.068 84.6466 309.849C84.2822 309.338 84.003 308.787 83.7018 308.238C83.8818 306.724 85.5311 306.533 86.0682 305.027C85.7724 303.092 84.1112 301.541 82.8674 300.103C83.1841 299.111 83.5715 298.057 83.714 297.025C84.0094 294.889 82.5081 293.438 81.243 291.927C80.5364 286.673 79.4408 280.984 77.4784 276.045C76.5073 273.6 73.6755 271.454 73.5678 268.771C74.9623 266.744 78.3067 267.817 80.6392 267.314L81.0573 267.221C84.8161 262.87 82.1986 262.072 83.5979 257.851C84.8067 254.205 87.2376 250.972 88.9468 247.536C86.0912 250.532 82.9475 253.911 82.1315 258.112C81.7633 260.006 82.4108 262.507 81.2784 264.149C79.0898 267.321 75.1921 264.165 72.3642 264.828C71.6425 264.997 71.2067 265.384 70.8708 266.031C69.4518 268.766 70.837 273.184 71.6618 275.968C71.2619 277.278 70.8542 278.656 70.2622 279.893C67.8777 284.871 56.2211 291.667 51.0323 293.37C45.1604 291.353 35.5432 287.576 31.5503 282.871C29.861 280.88 28.5689 278.476 27.0772 276.332C24.8356 273.108 21.993 270.158 19.0296 267.582C19.5589 266.044 20.0019 264.375 20.93 263.025C22.7316 264.127 24.5709 265.419 26.7079 265.696C28.0411 265.87 29.3362 266.023 30.6846 265.915C32.675 265.755 40.1271 264.159 41.3387 262.776C41.0367 262.137 40.5479 261.306 40.4174 260.614C40.2619 259.791 40.6576 259.163 41.1345 258.531C43.4165 255.507 50.5832 252.668 54.2958 252.109C55.7278 252.727 56.8988 253.505 58.4488 253.874L58.8373 253.583C57.8789 252.257 56.381 251.487 55.015 250.632C50.3338 252.089 39.673 252.44 36.8807 256.596C36.2083 257.597 35.5091 258.28 34.5756 259.042L34.2059 259.34C29.1499 258.92 23.8565 259.133 18.8957 258.133C16.1924 254.248 13.7615 250.163 11.0105 246.33C9.73451 245.615 8.49584 245.77 7.08274 245.652C5.86281 245.55 5.23475 245.284 4.45653 244.356C4.76172 243.035 6.37928 243.345 7.15622 242.117C6.75178 239.533 3.20082 237.892 1.32429 236.284C0.530737 235.604 0.0660227 235.187 0 234.142C0.100312 234.073 0.373774 233.87 0.513274 233.813C1.3228 233.476 2.50737 233.77 3.40166 233.55C5.58552 233.012 6.80992 231.51 9.25169 232.198C10.1456 232.845 10.2765 233.694 10.5709 234.703C10.7706 235.39 10.9276 235.309 11.5167 235.663C12.9769 235.72 14.2106 234.901 15.4555 234.236C17.1256 231.145 18.4448 229.556 21.3462 227.525C24.7681 227.678 28.098 225.836 31.3644 226.528C34.0807 227.103 37.1963 230.099 38.7089 232.334L43.376 233.762C43.6559 233.442 43.92 233.115 44.1928 232.791C45.6398 231.068 45.906 229.036 47.0942 227.404C48.1367 225.975 50.4588 227.003 51.897 226.894C52.7389 226.829 52.7689 226.62 53.2724 225.999C53.7746 220.679 37.789 206.471 37.0417 203.836C37.3937 202.063 38.9572 200.956 40.2338 199.767C42.0064 200.03 44.1907 200.58 45.942 200.18C46.6054 199.252 46.8297 198.985 46.96 197.872C44.3421 194.285 36.4317 196.244 33.0401 192.875C31.9518 190.061 35.1777 188.58 35.3072 185.805C33.9672 182.615 29.4706 184.209 27.146 182.162C26.5194 181.61 26.172 180.871 26.1471 180.04C26.0728 177.604 28.4385 171.546 30.1758 169.852C31.2157 168.837 35.4175 166.931 36.8952 167.041C37.0474 167.052 37.1982 167.075 37.3497 167.091L37.4547 166.673L38.1025 167.358C39.6547 166.245 40.6602 164.45 42.1691 163.251C43.1954 162.436 44.8104 161.824 46.1368 162.12C48.9988 162.757 48.2453 166.654 49.6867 168.484C50.0503 168.945 50.5723 169.284 51.1827 169.262C52.5949 169.21 52.8486 168.655 53.6274 167.624C54.8925 167.473 54.9611 167.643 56.0447 168.352C57.365 168.011 57.5028 166.724 58.5557 166.1C59.9571 165.269 61.6302 165.258 63.1788 164.155L63.5615 163.877C64.7731 164.2 65.9711 164.678 67.1576 165.085C72.1332 162.474 76.2466 158.412 80.6526 154.946C79.4734 153.495 76.247 150.479 76.0296 148.79C75.9361 148.065 76.0926 147.469 76.5786 146.913C79.1264 143.994 88.0355 144.724 91.7896 144.692L91.2587 140.525C94.4808 135.62 97.3396 130.213 101.182 125.772C101.191 125.704 101.204 125.636 101.211 125.568C101.412 123.387 101.936 121.523 102.607 119.436C101.616 117.171 100.793 114.131 101.342 111.663C102.629 105.866 110.2 105.394 114.43 102.669C116.032 101.637 118.094 100.064 118.498 98.1229C119.553 93.0492 122.058 86.1802 124.212 81.4359C126.083 81.0847 129.286 85.2642 132.098 84.9343L132.512 84.3395C131.823 82.976 130.671 82.8354 129.552 81.8916C128.696 81.169 128.668 80.7495 128.611 79.7261C129.186 78.053 130.578 77.0139 131.856 75.8627C130.901 75.5011 129.376 75.1031 128.578 74.5076C127.839 73.9561 127.824 73.4774 127.79 72.6249C128.403 71.8972 128.894 71.2901 129.257 70.4071C127.363 66.8168 121.706 70.0088 118.215 68.5427C113.966 66.7579 112.823 62.5089 110.687 58.9052C109.725 57.2806 108.699 56.0038 107.974 54.2262C108.355 52.2696 109.273 49.3858 108.91 47.4561C108.56 45.5946 106.957 44.3752 106.86 42.3725C108.323 38.6906 113.406 40.3229 116.479 38.1356L116.877 37.8496C113.714 31.1064 108.234 31.9696 102.921 28.7098C102.928 28.1944 106.983 25.7393 107.657 24.3507C107.646 23.1622 107.529 22.9927 106.871 21.9865C105.442 21.6992 104.543 22.4534 103.331 23.1633C100.936 22.0104 98.8329 20.1489 96.736 18.5343C96.5185 17.965 96.4542 17.561 96.5779 16.9539C97.3683 13.075 101.145 7.91366 104.404 5.80856C105.732 7.10441 107.122 8.66613 108.702 9.64379C110.046 8.95169 108.551 5.93821 109.209 4.4786C109.994 4.30341 110.779 4.08902 111.567 3.93416C113.81 3.49395 115.76 1.32064 117.632 0Z" fill="#FE6240"/>
</svg>
