<svg width="20" height="20" viewBox="0 0 20 20" fill="none" xmlns="http://www.w3.org/2000/svg">
<path d="M8.36488 4.42986L8.90571 5.39903C9.39321 6.27403 9.19738 7.42069 8.42905 8.18986C8.42905 8.18986 7.49571 9.12236 9.18738 10.8132C10.8765 12.5024 11.8099 11.5715 11.8099 11.5715C12.579 10.8024 13.7265 10.6065 14.6007 11.094L15.5699 11.6357C16.8907 12.3724 17.0465 14.224 15.8857 15.3857C15.1882 16.0824 14.3332 16.6257 13.389 16.6607C11.799 16.7215 9.09821 16.319 6.38905 13.6107C3.68071 10.9015 3.27821 8.20069 3.33905 6.61069C3.37488 5.66653 3.91738 4.81153 4.61405 4.11403C5.77571 2.95319 7.62738 3.10903 8.36405 4.43069L8.36488 4.42986Z" stroke="#9B9EA6" stroke-width="1.5" stroke-linecap="round"/>
</svg>
