<svg width="16" height="16" viewBox="0 0 16 16" fill="none" xmlns="http://www.w3.org/2000/svg">
<path d="M6.84098 13.1762C6.00817 13.1765 5.18346 13.0127 4.41395 12.6942C3.64444 12.3757 2.9452 11.9088 2.35618 11.32C1.15716 10.121 0.5 8.52999 0.5 6.83522C0.5 5.14045 1.15716 3.54944 2.35618 2.35041C4.8234 -0.116805 8.84704 -0.116805 11.3258 2.35041C12.5248 3.54944 13.182 5.14045 13.182 6.83522C13.182 8.52999 12.5248 10.121 11.3258 11.32C10.7368 11.9088 10.0375 12.3757 9.26801 12.6942C8.49851 13.0127 7.67379 13.1765 6.84098 13.1762ZM6.84098 1.64714C5.51514 1.64714 4.1893 2.15442 3.17474 3.16898C2.19477 4.14895 1.65291 5.45173 1.65291 6.83522C1.65291 8.2187 2.19477 9.52149 3.17474 10.5015C4.149 11.4702 5.46707 12.014 6.84098 12.014C8.2149 12.014 9.53297 11.4702 10.5072 10.5015C11.4872 9.52149 12.0291 8.2187 12.0291 6.83522C12.0291 5.45173 11.4872 4.14895 10.5072 3.16898C10.0267 2.68606 9.45535 2.30297 8.82614 2.04179C8.19692 1.78061 7.52225 1.64648 6.84098 1.64714Z" fill="#9B9EA6"/>
<path d="M14.9147 15.4587C14.8391 15.4596 14.7641 15.4447 14.6946 15.4149C14.6251 15.3852 14.5626 15.3412 14.5112 15.2858L10.6143 11.389C10.3838 11.1584 10.3838 10.801 10.6143 10.5704C10.8449 10.3398 11.2023 10.3398 11.4329 10.5704L15.3297 14.4672C15.5603 14.6978 15.5603 15.0552 15.3297 15.2858C15.2144 15.4011 15.0646 15.4587 14.9262 15.4587H14.9147Z" fill="#9B9EA6"/>
</svg>
