<svg width="432" height="278" viewBox="0 0 432 278" fill="none" xmlns="http://www.w3.org/2000/svg">
<path fill-rule="evenodd" clip-rule="evenodd" d="M0 90.5413V94.7268C2.25714 97.37 2.74571 103.015 1.74993 106.516L0.806075 107.949C1.31927 109.19 1.97958 110.112 2.4768 111.508C2.99666 113.01 3.21764 114.182 3.91788 115.578C5.85752 119.452 1.06634 117.268 6.03525 122.911C7.21141 122.612 6.96447 122.806 7.61612 121.901C8.28574 123.083 8.42219 123.351 8.32567 124.926L7.1362 125.213C6.65495 131.756 6.48321 130.996 10.053 134.438C12.0825 136.386 10.1588 137.097 9.62098 138.615C8.91342 140.58 14.0794 150.689 15.1058 152.403C16.1075 154.074 17.2724 154.212 16.9136 156.832C16.6527 158.683 16.1075 160.257 15.8865 162.263C19.1867 164.018 19.9928 165.885 24.7201 166.047C26.301 167.908 27.1396 170.893 29.4367 172.002C31.0981 172.818 32.249 172.052 32.9246 173.684C33.7879 175.764 33.0624 176.098 35.468 176.614C41.219 177.851 41.4387 186.89 42.0417 191.319L62.38 194.462C64.2284 197.927 64.7183 196.812 68.3513 198.645C69.5022 199.216 72.1235 201.551 74.3733 202.71C76.6204 203.867 77.5357 203.95 81.1773 205.964C83.3686 207.171 85.4547 208.502 87.4242 209.79L93.2758 213.991C94.816 215.035 99.8595 215.058 102.044 215.279C108.202 215.909 114.322 216.773 120.441 217.296L121.069 212.45L136.826 213.706C137.959 215.713 137.772 216.187 139.499 218.069C141.171 219.908 146.409 223.479 147.418 224.842C147.809 225.371 147.484 224.786 147.713 225.439L148.6 227.377C149.22 228.284 149.023 228.995 149.382 230.338C150.906 236.01 158.679 243.694 164.537 244.925C165.76 243.247 169.433 239.743 171.194 238.474C172.636 237.438 174.03 236.718 176.206 236.767C178.087 236.8 180.213 237.468 180.954 238.732C183.325 242.763 182.283 241.132 185.566 243.904C186.733 244.885 186.111 244.687 186.756 246.156C188.287 249.632 192.542 254.739 195.319 257.438C196.884 258.949 197.414 258.827 197.895 261.495C198.342 263.997 200.461 269.187 201.538 271.088C204.12 275.672 211.943 273.706 215.672 276.781C217.197 278.045 218.688 277.735 220.612 277.002C220.114 276.114 219.423 276.241 218.753 275.728C220.164 271.193 216.236 269.601 217.172 266.705C217.62 265.334 217.639 264.552 217.736 263.069L215.886 262.579L215.95 261.41L218.014 261.737C217.955 260.189 218.004 259.413 218.682 258.214L217.314 257.309C218.365 256.452 218.34 256.952 219.302 256.444C219.342 253.14 220.562 254.108 221.477 253.158C221.484 253.15 221.876 252.536 221.938 252.445C222.754 251.296 223.171 251.084 223.253 249.536C224.711 249.853 223.701 249.714 224.793 250.399C225.623 249.395 225.728 249.479 227.113 249.029L226.486 247.241C233.167 246.231 238.7 244.687 240.353 237.804L240.826 235.698C241.047 235.177 240.859 235.502 241.162 235.16C242.84 235.51 242.834 237.075 242.202 238.636L253.033 234.916C256.375 233.236 254.932 234.491 258.125 235.152C260.237 235.586 262.771 235.487 265.019 235.479C265.98 235.25 264.798 234.794 267.805 232.288L272.703 234.784C273.232 232.827 271.879 231.873 271.309 230.176C274.745 230.852 274.111 234.784 273.958 237.508C275.325 238.587 275.537 238.789 277.665 239.352C279.489 237.427 281.536 237.517 285.055 236.784C284.939 235.797 284.73 234.18 284.096 233.619C282.782 232.444 282.13 234.255 282.521 231.351C284.134 231.48 286.066 233.318 287.387 234.345C288.64 235.315 290.873 237.134 292.037 237.748C292.659 237.396 293.79 236.106 294.101 235.152C292.601 233.187 289.764 233.503 289.08 231.123C289.699 229.318 290.294 229.858 291.844 229.146C292.273 227.947 292.054 227.901 291.492 227.069L286.874 227.583L286.667 225.975L285.136 225.86L284.608 226.947L280.934 226.969C280.337 226.205 279.71 225.575 279.362 224.653C280.119 224.424 280.81 224.17 281.617 223.837C283.237 223.184 282.871 223.069 284.087 223.805C290.133 227.442 290.483 222.213 293.618 221.814C298.37 221.203 298.858 223.25 301.497 219.579C301.531 219.53 301.587 219.458 301.621 219.415C301.655 219.368 301.711 219.278 301.736 219.244C301.759 219.213 301.808 219.131 301.848 219.071C303.804 220.925 303.763 221.789 307.35 220.86C309.207 220.372 308.417 219.855 309.02 218.568L320.516 218.723C323.13 218.935 323.913 219.907 325.674 221.617C328.95 224.808 331.304 221.277 334.049 220.182L334.015 218.234L339.443 217.942L342.924 222.779C344.797 224.589 346.55 224.221 348.797 225.519C353.818 228.406 349.27 233.864 352.407 238.891C353.361 238.375 352.481 238.57 353.613 237.828C355.291 239.173 354.948 240.226 353.819 242.056L355.268 244.371C357.451 249.445 359.122 244.185 362.006 248.84C363.985 252.039 365.859 255.547 368.371 258.295C370.211 260.312 371.132 260.059 373.488 261.339C372.98 263.018 373.414 261.592 372.794 262.156C372.396 262.516 372.617 261.624 372.012 263.094C373.145 263.354 375.897 262.671 376.925 262.309C380.968 257.073 380.395 249.485 378.098 242.804C375.883 236.393 372.704 231.873 369.641 226.807C369.822 226.693 369.513 226.415 370.781 226.685C371.509 226.833 370.572 227.37 371.589 226.784C367.444 221.178 362.26 218.315 361.193 208.509C359.538 208.674 359.546 210.247 359.554 212.148C356.574 209.743 360.328 207.595 360.468 207.237C360.427 205.466 359.904 203.818 359.554 202.082C358.961 199.184 362.17 192.707 362.283 186.223C363.588 185.597 363.858 185.791 365.128 184.868C370.13 181.238 375.362 171.931 377.619 166.287C378.67 163.667 381.489 164.663 383.331 163.087C385.204 161.489 384.144 157.786 385.602 156.44C387.642 154.565 390.721 152.377 393.254 150.878C394.567 150.095 394.313 149.344 393.783 147.98C392.237 148.502 391.104 150.819 388.986 149.945C389.434 148.976 389.816 149.129 391.112 148.999L391.829 145.396L389.612 145.633C390.101 144.473 390.826 143.877 391.558 142.588C396.115 144.832 398.632 139.064 397.042 136.675C396.481 135.827 396.782 136.078 395.812 135.735L395.047 137.882C393.792 137.784 392.774 137.359 391.495 137.506C389.752 137.72 390.207 138.419 388.212 138.51L387.99 135.393C389.514 135.564 389.89 135.671 391.25 135.044C392.065 134.66 393.629 134.318 394.296 133.85C392.578 130.255 394.364 130.605 393.017 128.607C391.421 126.25 391.315 126.819 388.351 127.063C387.388 127.146 386.54 127.221 385.824 126.658C386.882 125.433 386.645 125.735 388.439 126.152C387.925 124.494 386.842 124.845 386.279 123.778C386.695 122.84 386.132 123.672 386.941 122.946C387.137 122.775 387.454 122.603 387.754 122.341C387.24 121.282 385.188 120.147 384.324 119.185C385.547 118.735 385.806 119.437 387.224 119.461C387.265 115.317 385.849 117.146 384.494 115.146C385.294 113.858 385.033 114.575 386.24 113.921C385.537 113.099 384.504 112.43 383.885 111.262C383.305 110.162 382.857 108.784 382.334 107.626C380.943 104.541 381.937 105.326 383.109 102.431C383.681 101.016 383.19 101.223 384.307 100.919C384.917 101.295 384.698 101.01 384.747 101.72C384.845 102.942 384.08 104.924 384.12 105.927C384.185 107.918 386.287 107.039 385.944 110.579C389.938 110.571 387.843 115.04 392.016 115.211C391.908 117.357 391.142 118.604 391.126 121.272C392.226 120.816 392.683 119.706 393.122 118.498C394.566 114.6 394.37 109.745 394.078 105.649C393.465 105.471 392.758 105.25 392.251 104.908C391.648 104.516 391.859 104.559 391.445 104.231L390.549 103.691C389.319 102.932 389.343 101.442 389.278 99.6777C391.062 100.518 391.682 100.526 393.801 100.95C394.183 101.806 394.035 102.549 394.044 103.707C397.066 101.954 399.186 88.7641 398.394 86.8491C396.505 86.447 395.583 87.1233 395.503 84.6359C395.447 83.0377 396.129 81.5846 396.855 80.501C398.419 78.166 400.088 76.7235 402.345 75.0681C404.555 73.454 406.329 72.2532 408.781 70.8574C414.658 67.5279 411.359 69.192 413.696 64.8927C414.438 65.4172 414.64 65.7274 415.726 66.0775L417.534 64.0959C420.719 60.8976 422.822 61.6804 423.678 58.1652C422.291 57.642 421.223 56.5004 419.719 56.3693C419.945 58.0846 420.931 57.5302 421.354 60.2353C420.134 60.9881 419.147 61.2077 417.289 61.4287C415.986 58.8607 410.74 56.7034 413.859 52.9706C411.864 51.3538 410.577 50.563 411.913 46.9493C413.617 42.3472 419.645 36.1302 420.371 32.3714C420.794 30.1842 419.131 30.7819 420.523 29.1578C422.935 30.1276 420.165 30.6588 423.116 30.6588C423.165 30.6015 423.23 30.4218 423.246 30.4611L424.036 28.2332L425.951 28.0309C426.147 25.4096 428.622 24.4318 429.96 22.7132C430.473 22.0422 430.759 21.2927 431.165 20.6637V19.4982C429.16 18.6728 428.388 17.2956 426.813 15.8925C424.982 14.2617 425.17 13.4117 421.771 12.8991C421.347 9.32338 419.172 4.20004 417.51 1.90296C416.946 1.13482 416.411 0.646258 415.375 0.295472C411.661 -0.945924 411.515 2.0088 408.72 3.88388L405.793 2.72501C403.481 10.391 403.226 19.6692 403.136 28.4296C400.253 29.3015 399.364 29.0832 399.471 32.4766C395.38 32.4267 392.674 35.2822 389.547 36.3599C387.746 36.9769 386.157 37.6066 384.527 38.2463C380.436 39.8411 376.623 39.0756 372.289 46.124C370.749 48.6354 372.215 49.9979 370.92 51.0676C369.079 52.5925 369.128 52.0221 368.059 54.7059C369.273 55.7663 369.039 55.5233 371.06 55.4953L372.109 61.3316C371.256 62.0398 368.697 62.8885 367.319 63.8929C362.699 67.269 365.681 65.549 362.805 66.2818C360.891 66.7711 359.064 67.4553 357.037 67.9705C355.415 68.3885 352.929 68.8591 351.568 69.6752C352.228 71.4618 353.769 72.8323 354.61 75.0768C351.952 77.2387 347.805 81.6112 345.392 84.2292C344.365 85.3388 343.509 86.2766 342.443 87.3297C341.016 88.7321 337.913 91.8233 335.923 92.8923C334.637 93.5786 333.089 93.9513 331.712 94.7115C330.253 95.5289 329.202 96.3616 327.972 97.1184C325.895 96.4827 324.283 95.6514 321.894 95.031C322.172 92.4936 322.683 91.5624 323.318 89.469C323.866 87.6571 323.866 85.7468 324.403 84.0681C324.842 83.4318 326.456 83.3732 327.19 83.0171C327.655 81.2698 325.861 77.5642 325.039 76.0559C324.43 74.9397 323.957 74.105 323.395 73.0952C323.085 72.5401 322.913 72.2159 322.643 71.553L321.934 69.9621C316.803 70.7875 315.515 78.1946 314.358 74.3679C313.762 72.3877 319.751 67.2463 316.899 62.9151C315.432 60.6892 315.296 62.0824 315.93 58.7549C313.657 58.2304 310.447 57.1894 308.141 56.4359C307.424 56.2022 303.291 53.7873 302.348 58.281C303.032 58.7822 303.244 58.6245 303.757 59.2615C303.039 60.013 302.624 60.2319 301.581 60.8204V65.087C298.64 65.087 300.651 64.285 299.521 62.4918C297.532 63.4037 298.916 64.8068 296.089 65.3892C295.795 68.6082 294.924 72.9328 294.875 76.016C294.849 77.714 295.861 78.6758 296.496 80.1775C297.066 81.5074 297.532 83.0097 297.875 84.558C299.561 92.2733 298.072 98.6214 292.038 100.766C289.741 99.723 288.057 97.2608 288.023 93.5706C287.981 90.2917 288.229 91.2862 287.045 88.7841C286.435 87.4867 286.058 85.9944 285.962 84.3709C285.536 77.4284 288.673 71.4731 289.246 64.9153C286.995 65.935 285.888 68.1536 284.855 70.2496C284.3 71.3739 284.503 71.7087 283.419 71.8878C282.196 69.6952 287.73 61.4061 287.973 57.4749C289.685 58.3901 289.343 58.0194 291.363 57.1228C291.305 57.5967 291.101 58.0134 291.08 58.3229C291.038 59.0671 290.899 58.7083 291.314 59.1709L295.12 55.7789C297.197 54.1714 297.158 53.6822 298.673 52.1239L304.197 53.6988C305.084 51.5934 305.631 51.9269 307.213 52.1645C309.868 52.5539 307.539 49.741 305.551 48.2833C304.702 48.7306 303.757 49.2438 302.485 49.3749C300.686 49.5626 301.564 49.1799 300.163 48.3784C299.999 47.2968 300.213 46.6119 299.805 45.7772C298.965 45.5429 298.707 46.52 297.206 46.936C295.975 47.2695 294.884 47.3281 293.938 47.9817C292.693 48.8204 290.672 51.2673 289.31 51.6926C286.86 52.4514 284.674 50.4186 283.175 49.4967C280.535 47.8632 280.08 47.6855 276.843 48.6733C276.379 44.3414 278.816 44.3274 280.095 41.7561C276.982 42.6281 274.929 44.6443 272.768 46.6511C270.593 48.6667 268.965 50.5903 266.04 51.9768C262.659 53.5843 261.226 52.5805 261.226 54.8963L259.417 55.1113C259.384 55.1911 259.35 55.2963 259.327 55.3695C259.31 55.4354 259.27 55.5339 259.244 55.6225C258.724 57.8257 259.455 53.9604 259.139 56.135C259.097 56.4212 259.124 56.8639 259.124 57.19L257.673 57.2053C257.657 55.1113 257.468 54.4576 259.114 53.6981L258.992 51.0057C257.054 50.6615 254.51 53.157 251.553 52.6711C250.843 52.5473 251.178 52.7024 250.771 52.3509C251.098 51.1281 250.6 52.5133 251.742 51.4942C251.935 51.3252 252.287 50.8426 252.507 50.5331C252.929 49.92 253.492 49.0873 253.94 48.4989C254.908 47.1956 256.206 45.4257 257.133 44.5025C258.332 43.303 259.423 41.9904 260.94 41.1344C263.571 39.6421 263.09 40.9227 265.217 38.3108C263.848 37.3011 260.623 37.3723 258.69 37.4322C256.116 37.5041 254.828 38.2056 252.661 38.6044C251.177 36.9403 249.671 36.467 247.275 35.8074C246.786 36.3951 246.706 36.8771 246.052 37.1047C245.627 36.5103 245.709 36.0756 245.394 35.237C245.311 35.0173 245.14 34.6399 245.034 34.4282L244.723 33.8425C244.708 33.734 244.651 33.7113 244.61 33.6461C239.012 34.8209 236.022 33.4677 230.227 33.7932C229.922 32.7422 229.439 31.4608 228.958 30.3745C228.534 29.436 228.519 29.6889 228.039 29.004C227.451 28.18 227.908 28.401 227.108 27.7227C226.702 28.4076 226.188 29.3781 225.805 30.1303C225.226 31.2718 225.234 31.3444 223.923 31.6951C221.992 32.2197 219.742 32.2915 217.593 32.1777C212.255 31.8762 209.908 32.3495 204.898 32.7901C191.405 33.9816 178.213 32.1604 164.818 31.5653C160.209 31.3617 156.06 31.6459 151.48 31.6459C143.374 31.6392 134.362 30.1709 126.719 28.5793C115.074 26.1585 102.519 25.1041 90.819 22.4862C89.0344 22.0855 87.0455 21.3599 85.3269 21.085C83.3227 20.7649 81.2213 20.6604 79.241 20.2517C77.4804 19.8942 75.7931 19.0602 73.6923 18.6202C69.9535 17.8534 65.7574 17.5505 62.1071 16.425C60.2893 15.8632 59.0006 15.1137 57.1115 14.508C54.5529 13.7012 37.2785 7.83371 36.4811 8.04804C35.7968 9.27213 36.6528 8.97126 37.3284 10.4443C37.6792 11.2297 37.8503 12.3527 37.9475 13.2845C38.2017 15.5936 38.1678 17.9273 38.3388 20.3076C35.3329 20.904 35.8707 22.7638 35.9586 25.3604C34.5907 26.2976 32.7422 26.8354 31.0622 27.292C30.7127 26.2157 30.4432 26.3701 30.4771 24.9577L33.3599 25.0981C33.6948 24.3533 34.3804 23.677 34.411 23.032C34.4516 22.3797 34.2086 22.1933 33.9224 21.931C33.5643 21.5969 33.8166 21.8505 33.3773 21.5636L32.9852 21.3267C33.3526 19.9748 33.8079 19.5181 34.7784 18.7161L35.1052 18.4312C32.3821 17.2497 24.5131 12.2388 22.7106 11.5133C22.0503 11.938 21.8639 12.1996 21.2442 12.6975C21.3999 15.1936 21.8073 18.121 22.019 20.894C22.433 26.4353 23.3795 25.57 21.5124 27.6834L22.6387 30.1795C21.5217 31.2552 21.9444 30.4557 20.8202 31.1187C20.8109 32.2909 22.0902 34.0947 22.865 34.7897L20.11 34.8456C19.883 36.8438 19.214 40.0501 18.7188 42.0729C18.3826 43.4661 17.8222 43.7623 17.072 44.7561C15.0518 47.4486 15.2136 47.7102 14.6851 50.9644C14.498 52.1466 11.4102 55.7183 9.80403 59.0751C1.28266 76.9638 6.6829 74.2767 4.19812 83.0989C3.70954 84.8029 4.18281 85.3082 4.05833 86.9483C3.08186 87.8622 2.56133 88.0166 1.84312 88.7914C1.05835 89.6221 1.00909 89.8897 0 90.5413Z" fill="#FE6240"/>
</svg>
